%TF.GenerationSoftware,KiCad,Pcbnew,7.0.8-7.0.8~ubuntu22.04.1*%
%TF.CreationDate,2023-10-30T09:28:09+01:00*%
%TF.ProjectId,usb2serial-autovtg,75736232-7365-4726-9961-6c2d6175746f,rev?*%
%TF.SameCoordinates,Original*%
%TF.FileFunction,Legend,Top*%
%TF.FilePolarity,Positive*%
%FSLAX46Y46*%
G04 Gerber Fmt 4.6, Leading zero omitted, Abs format (unit mm)*
G04 Created by KiCad (PCBNEW 7.0.8-7.0.8~ubuntu22.04.1) date 2023-10-30 09:28:09*
%MOMM*%
%LPD*%
G01*
G04 APERTURE LIST*
G04 Aperture macros list*
%AMRoundRect*
0 Rectangle with rounded corners*
0 $1 Rounding radius*
0 $2 $3 $4 $5 $6 $7 $8 $9 X,Y pos of 4 corners*
0 Add a 4 corners polygon primitive as box body*
4,1,4,$2,$3,$4,$5,$6,$7,$8,$9,$2,$3,0*
0 Add four circle primitives for the rounded corners*
1,1,$1+$1,$2,$3*
1,1,$1+$1,$4,$5*
1,1,$1+$1,$6,$7*
1,1,$1+$1,$8,$9*
0 Add four rect primitives between the rounded corners*
20,1,$1+$1,$2,$3,$4,$5,0*
20,1,$1+$1,$4,$5,$6,$7,0*
20,1,$1+$1,$6,$7,$8,$9,0*
20,1,$1+$1,$8,$9,$2,$3,0*%
G04 Aperture macros list end*
%ADD10C,0.300000*%
%ADD11C,0.275000*%
%ADD12C,0.250000*%
%ADD13C,0.120000*%
%ADD14C,0.150000*%
%ADD15RoundRect,0.140000X0.170000X-0.140000X0.170000X0.140000X-0.170000X0.140000X-0.170000X-0.140000X0*%
%ADD16RoundRect,0.140000X-0.170000X0.140000X-0.170000X-0.140000X0.170000X-0.140000X0.170000X0.140000X0*%
%ADD17RoundRect,0.140000X0.140000X0.170000X-0.140000X0.170000X-0.140000X-0.170000X0.140000X-0.170000X0*%
%ADD18RoundRect,0.140000X-0.140000X-0.170000X0.140000X-0.170000X0.140000X0.170000X-0.140000X0.170000X0*%
%ADD19RoundRect,0.218750X-0.218750X-0.256250X0.218750X-0.256250X0.218750X0.256250X-0.218750X0.256250X0*%
%ADD20RoundRect,0.135000X0.185000X-0.135000X0.185000X0.135000X-0.185000X0.135000X-0.185000X-0.135000X0*%
%ADD21RoundRect,0.135000X-0.185000X0.135000X-0.185000X-0.135000X0.185000X-0.135000X0.185000X0.135000X0*%
%ADD22RoundRect,0.135000X0.135000X0.185000X-0.135000X0.185000X-0.135000X-0.185000X0.135000X-0.185000X0*%
%ADD23R,0.250000X0.700000*%
%ADD24R,2.380000X1.660000*%
%ADD25R,0.700000X0.510000*%
%ADD26R,1.700000X1.700000*%
%ADD27O,1.700000X1.700000*%
%ADD28RoundRect,0.135000X-0.135000X-0.185000X0.135000X-0.185000X0.135000X0.185000X-0.135000X0.185000X0*%
%ADD29C,1.000000*%
%ADD30RoundRect,0.150000X-0.587500X-0.150000X0.587500X-0.150000X0.587500X0.150000X-0.587500X0.150000X0*%
%ADD31RoundRect,0.218750X0.218750X0.256250X-0.218750X0.256250X-0.218750X-0.256250X0.218750X-0.256250X0*%
%ADD32R,0.400000X0.450000*%
%ADD33R,0.700000X0.450000*%
%ADD34C,0.650000*%
%ADD35R,1.150000X0.600000*%
%ADD36R,1.150000X0.300000*%
%ADD37O,2.100000X1.000000*%
%ADD38O,1.800000X1.000000*%
%ADD39R,1.450000X0.450000*%
G04 APERTURE END LIST*
D10*
X155200000Y-71800000D02*
X154300000Y-71800000D01*
D11*
X146637500Y-79600000D02*
G75*
G03*
X146637500Y-79600000I-137500J0D01*
G01*
D10*
X154600000Y-72050000D02*
X154300000Y-71800000D01*
D11*
X146837500Y-77100000D02*
G75*
G03*
X146837500Y-77100000I-137500J0D01*
G01*
D10*
X154900000Y-77200000D02*
X154900000Y-76700000D01*
X154300000Y-74700000D02*
X155200000Y-74700000D01*
X154900000Y-75000000D02*
X155200000Y-74700000D01*
X154500000Y-77200000D02*
X155300000Y-77200000D01*
X154600000Y-71500000D02*
X154300000Y-71800000D01*
X154900000Y-74450000D02*
X155200000Y-74700000D01*
D12*
X143285716Y-84407452D02*
X142852382Y-84407452D01*
X142852382Y-85088404D02*
X142852382Y-83788404D01*
X142852382Y-83788404D02*
X143471430Y-83788404D01*
X143780954Y-83788404D02*
X144523811Y-83788404D01*
X144152383Y-85088404D02*
X144152383Y-83788404D01*
X144895240Y-83912214D02*
X144957144Y-83850309D01*
X144957144Y-83850309D02*
X145080954Y-83788404D01*
X145080954Y-83788404D02*
X145390478Y-83788404D01*
X145390478Y-83788404D02*
X145514287Y-83850309D01*
X145514287Y-83850309D02*
X145576192Y-83912214D01*
X145576192Y-83912214D02*
X145638097Y-84036023D01*
X145638097Y-84036023D02*
X145638097Y-84159833D01*
X145638097Y-84159833D02*
X145576192Y-84345547D01*
X145576192Y-84345547D02*
X144833335Y-85088404D01*
X144833335Y-85088404D02*
X145638097Y-85088404D01*
X146071430Y-83788404D02*
X146876192Y-83788404D01*
X146876192Y-83788404D02*
X146442858Y-84283642D01*
X146442858Y-84283642D02*
X146628573Y-84283642D01*
X146628573Y-84283642D02*
X146752382Y-84345547D01*
X146752382Y-84345547D02*
X146814287Y-84407452D01*
X146814287Y-84407452D02*
X146876192Y-84531261D01*
X146876192Y-84531261D02*
X146876192Y-84840785D01*
X146876192Y-84840785D02*
X146814287Y-84964595D01*
X146814287Y-84964595D02*
X146752382Y-85026500D01*
X146752382Y-85026500D02*
X146628573Y-85088404D01*
X146628573Y-85088404D02*
X146257144Y-85088404D01*
X146257144Y-85088404D02*
X146133335Y-85026500D01*
X146133335Y-85026500D02*
X146071430Y-84964595D01*
X147990477Y-84221738D02*
X147990477Y-85088404D01*
X147680953Y-83726500D02*
X147371430Y-84655071D01*
X147371430Y-84655071D02*
X148176191Y-84655071D01*
X150219048Y-85088404D02*
X150219048Y-84407452D01*
X150219048Y-84407452D02*
X150157143Y-84283642D01*
X150157143Y-84283642D02*
X150033334Y-84221738D01*
X150033334Y-84221738D02*
X149785715Y-84221738D01*
X149785715Y-84221738D02*
X149661905Y-84283642D01*
X150219048Y-85026500D02*
X150095239Y-85088404D01*
X150095239Y-85088404D02*
X149785715Y-85088404D01*
X149785715Y-85088404D02*
X149661905Y-85026500D01*
X149661905Y-85026500D02*
X149600001Y-84902690D01*
X149600001Y-84902690D02*
X149600001Y-84778880D01*
X149600001Y-84778880D02*
X149661905Y-84655071D01*
X149661905Y-84655071D02*
X149785715Y-84593166D01*
X149785715Y-84593166D02*
X150095239Y-84593166D01*
X150095239Y-84593166D02*
X150219048Y-84531261D01*
X151395238Y-84221738D02*
X151395238Y-85088404D01*
X150838095Y-84221738D02*
X150838095Y-84902690D01*
X150838095Y-84902690D02*
X150900000Y-85026500D01*
X150900000Y-85026500D02*
X151023810Y-85088404D01*
X151023810Y-85088404D02*
X151209524Y-85088404D01*
X151209524Y-85088404D02*
X151333333Y-85026500D01*
X151333333Y-85026500D02*
X151395238Y-84964595D01*
X151828571Y-84221738D02*
X152323809Y-84221738D01*
X152014285Y-83788404D02*
X152014285Y-84902690D01*
X152014285Y-84902690D02*
X152076190Y-85026500D01*
X152076190Y-85026500D02*
X152200000Y-85088404D01*
X152200000Y-85088404D02*
X152323809Y-85088404D01*
X152942857Y-85088404D02*
X152819047Y-85026500D01*
X152819047Y-85026500D02*
X152757142Y-84964595D01*
X152757142Y-84964595D02*
X152695238Y-84840785D01*
X152695238Y-84840785D02*
X152695238Y-84469357D01*
X152695238Y-84469357D02*
X152757142Y-84345547D01*
X152757142Y-84345547D02*
X152819047Y-84283642D01*
X152819047Y-84283642D02*
X152942857Y-84221738D01*
X152942857Y-84221738D02*
X153128571Y-84221738D01*
X153128571Y-84221738D02*
X153252380Y-84283642D01*
X153252380Y-84283642D02*
X153314285Y-84345547D01*
X153314285Y-84345547D02*
X153376190Y-84469357D01*
X153376190Y-84469357D02*
X153376190Y-84840785D01*
X153376190Y-84840785D02*
X153314285Y-84964595D01*
X153314285Y-84964595D02*
X153252380Y-85026500D01*
X153252380Y-85026500D02*
X153128571Y-85088404D01*
X153128571Y-85088404D02*
X152942857Y-85088404D01*
X153747618Y-83788404D02*
X154180951Y-85088404D01*
X154180951Y-85088404D02*
X154614285Y-83788404D01*
X154861904Y-84221738D02*
X155357142Y-84221738D01*
X155047618Y-83788404D02*
X155047618Y-84902690D01*
X155047618Y-84902690D02*
X155109523Y-85026500D01*
X155109523Y-85026500D02*
X155233333Y-85088404D01*
X155233333Y-85088404D02*
X155357142Y-85088404D01*
X156347618Y-84221738D02*
X156347618Y-85274119D01*
X156347618Y-85274119D02*
X156285713Y-85397928D01*
X156285713Y-85397928D02*
X156223809Y-85459833D01*
X156223809Y-85459833D02*
X156099999Y-85521738D01*
X156099999Y-85521738D02*
X155914285Y-85521738D01*
X155914285Y-85521738D02*
X155790475Y-85459833D01*
X156347618Y-85026500D02*
X156223809Y-85088404D01*
X156223809Y-85088404D02*
X155976190Y-85088404D01*
X155976190Y-85088404D02*
X155852380Y-85026500D01*
X155852380Y-85026500D02*
X155790475Y-84964595D01*
X155790475Y-84964595D02*
X155728571Y-84840785D01*
X155728571Y-84840785D02*
X155728571Y-84469357D01*
X155728571Y-84469357D02*
X155790475Y-84345547D01*
X155790475Y-84345547D02*
X155852380Y-84283642D01*
X155852380Y-84283642D02*
X155976190Y-84221738D01*
X155976190Y-84221738D02*
X156223809Y-84221738D01*
X156223809Y-84221738D02*
X156347618Y-84283642D01*
D13*
X144440000Y-74327836D02*
X144440000Y-74112164D01*
X145160000Y-74327836D02*
X145160000Y-74112164D01*
X145160000Y-76092164D02*
X145160000Y-76307836D01*
X144440000Y-76092164D02*
X144440000Y-76307836D01*
X148207836Y-72460000D02*
X147992164Y-72460000D01*
X148207836Y-71740000D02*
X147992164Y-71740000D01*
X148592164Y-77440000D02*
X148807836Y-77440000D01*
X148592164Y-78160000D02*
X148807836Y-78160000D01*
X139427500Y-69965000D02*
X139427500Y-71435000D01*
X139427500Y-71435000D02*
X141712500Y-71435000D01*
X141712500Y-69965000D02*
X139427500Y-69965000D01*
X145520000Y-76363641D02*
X145520000Y-76056359D01*
X146280000Y-76363641D02*
X146280000Y-76056359D01*
X146280000Y-74036359D02*
X146280000Y-74343641D01*
X145520000Y-74036359D02*
X145520000Y-74343641D01*
X151463641Y-75280000D02*
X151156359Y-75280000D01*
X151463641Y-74520000D02*
X151156359Y-74520000D01*
D14*
X149925000Y-76700000D02*
X149925000Y-73700000D01*
X146675000Y-75200000D02*
X146675000Y-73700000D01*
D13*
X153300000Y-70000000D02*
X151700000Y-70000000D01*
X151700000Y-73200000D02*
X154000000Y-73200000D01*
X153443641Y-74230000D02*
X153136359Y-74230000D01*
X153443641Y-73470000D02*
X153136359Y-73470000D01*
X148753641Y-71380000D02*
X148446359Y-71380000D01*
X148753641Y-70620000D02*
X148446359Y-70620000D01*
X143380000Y-79546359D02*
X143380000Y-79853641D01*
X142620000Y-79546359D02*
X142620000Y-79853641D01*
X151746359Y-81620000D02*
X152053641Y-81620000D01*
X151746359Y-82380000D02*
X152053641Y-82380000D01*
X151120000Y-80153641D02*
X151120000Y-79846359D01*
X151880000Y-80153641D02*
X151880000Y-79846359D01*
X153880000Y-81846359D02*
X153880000Y-82153641D01*
X153120000Y-81846359D02*
X153120000Y-82153641D01*
X153443641Y-75280000D02*
X153136359Y-75280000D01*
X153443641Y-74520000D02*
X153136359Y-74520000D01*
X144562500Y-69840000D02*
X142887500Y-69840000D01*
X144562500Y-69840000D02*
X145212500Y-69840000D01*
X144562500Y-72960000D02*
X143912500Y-72960000D01*
X144562500Y-72960000D02*
X145212500Y-72960000D01*
X138046359Y-70620000D02*
X138353641Y-70620000D01*
X138046359Y-71380000D02*
X138353641Y-71380000D01*
X151812164Y-82640000D02*
X152027836Y-82640000D01*
X151812164Y-83360000D02*
X152027836Y-83360000D01*
X148787836Y-79660000D02*
X148572164Y-79660000D01*
X148787836Y-78940000D02*
X148572164Y-78940000D01*
X140462779Y-83710000D02*
X140137221Y-83710000D01*
X140462779Y-82690000D02*
X140137221Y-82690000D01*
X154080000Y-79846359D02*
X154080000Y-80153641D01*
X153320000Y-79846359D02*
X153320000Y-80153641D01*
X153300000Y-75600000D02*
X151700000Y-75600000D01*
X151700000Y-78800000D02*
X154000000Y-78800000D01*
X152220000Y-80153641D02*
X152220000Y-79846359D01*
X152980000Y-80153641D02*
X152980000Y-79846359D01*
X149840000Y-71707836D02*
X149840000Y-71492164D01*
X150560000Y-71707836D02*
X150560000Y-71492164D01*
X142600000Y-76015000D02*
X142600000Y-74725000D01*
X142600000Y-74725000D02*
X142915000Y-74725000D01*
X143885000Y-74725000D02*
X144200000Y-74725000D01*
X144200000Y-74725000D02*
X144200000Y-75725000D01*
X143380000Y-77236359D02*
X143380000Y-77543641D01*
X142620000Y-77236359D02*
X142620000Y-77543641D01*
X142920000Y-81943641D02*
X142920000Y-81636359D01*
X143680000Y-81943641D02*
X143680000Y-81636359D01*
X149840000Y-78427836D02*
X149840000Y-78212164D01*
X150560000Y-78427836D02*
X150560000Y-78212164D01*
X144520000Y-79660000D02*
X145930000Y-79660000D01*
X145930000Y-77340000D02*
X143900000Y-77340000D01*
X145930000Y-77340000D02*
X145930000Y-78000000D01*
X145930000Y-79000000D02*
X145930000Y-79660000D01*
X137700000Y-72330000D02*
X139500000Y-72330000D01*
X135600000Y-72330000D02*
X134450000Y-72330000D01*
X137700000Y-81670000D02*
X139500000Y-81670000D01*
X135600000Y-81670000D02*
X134450000Y-81670000D01*
X147400000Y-80005000D02*
X144400000Y-80005000D01*
X148400000Y-83245000D02*
X146400000Y-83245000D01*
X137887836Y-83260000D02*
X137672164Y-83260000D01*
X137887836Y-82540000D02*
X137672164Y-82540000D01*
%LPC*%
D15*
X144800000Y-74700000D03*
X144800000Y-73740000D03*
D16*
X144800000Y-75720000D03*
X144800000Y-76680000D03*
D17*
X148580000Y-72100000D03*
X147620000Y-72100000D03*
D18*
X148220000Y-77800000D03*
X149180000Y-77800000D03*
D19*
X140125000Y-70700000D03*
X141700000Y-70700000D03*
D20*
X145900000Y-76720000D03*
X145900000Y-75700000D03*
D21*
X145900000Y-73680000D03*
X145900000Y-74700000D03*
D22*
X151820000Y-74900000D03*
X150800000Y-74900000D03*
D23*
X147175000Y-76600000D03*
X147625000Y-76600000D03*
X148075000Y-76600000D03*
X148525000Y-76600000D03*
X148975000Y-76600000D03*
X149425000Y-76600000D03*
X149425000Y-73800000D03*
X148975000Y-73800000D03*
X148525000Y-73800000D03*
X148075000Y-73800000D03*
X147625000Y-73800000D03*
X147175000Y-73800000D03*
D24*
X148300000Y-75200000D03*
D25*
X153660000Y-72550000D03*
X153660000Y-71600000D03*
X153660000Y-70650000D03*
X151340000Y-70650000D03*
X151340000Y-72550000D03*
D26*
X156200000Y-73200000D03*
D27*
X156200000Y-75740000D03*
X156200000Y-78280000D03*
X156200000Y-80820000D03*
D22*
X153800000Y-73850000D03*
X152780000Y-73850000D03*
X149110000Y-71000000D03*
X148090000Y-71000000D03*
D21*
X143000000Y-79190000D03*
X143000000Y-80210000D03*
D28*
X151390000Y-82000000D03*
X152410000Y-82000000D03*
D20*
X151500000Y-80510000D03*
X151500000Y-79490000D03*
D21*
X153500000Y-81490000D03*
X153500000Y-82510000D03*
D22*
X153800000Y-74900000D03*
X152780000Y-74900000D03*
D29*
X135200000Y-69200000D03*
D30*
X143625000Y-70450000D03*
X143625000Y-72350000D03*
X145500000Y-71400000D03*
D28*
X137690000Y-71000000D03*
X138710000Y-71000000D03*
D18*
X151440000Y-83000000D03*
X152400000Y-83000000D03*
D17*
X149160000Y-79300000D03*
X148200000Y-79300000D03*
D31*
X141087500Y-83200000D03*
X139512500Y-83200000D03*
D21*
X153700000Y-79490000D03*
X153700000Y-80510000D03*
D25*
X153660000Y-78150000D03*
X153660000Y-77200000D03*
X153660000Y-76250000D03*
X151340000Y-76250000D03*
X151340000Y-78150000D03*
D20*
X152600000Y-80510000D03*
X152600000Y-79490000D03*
D15*
X150200000Y-72080000D03*
X150200000Y-71120000D03*
D29*
X135200000Y-84800000D03*
D32*
X143000000Y-75850000D03*
X143800000Y-75850000D03*
X143400000Y-74800000D03*
D29*
X156800000Y-69200000D03*
D21*
X143000000Y-76880000D03*
X143000000Y-77900000D03*
D20*
X143300000Y-82300000D03*
X143300000Y-81280000D03*
D15*
X150200000Y-78800000D03*
X150200000Y-77840000D03*
D33*
X144200000Y-77850000D03*
X144200000Y-79150000D03*
X146200000Y-78500000D03*
D34*
X140305000Y-74110000D03*
X140305000Y-79890000D03*
D35*
X141380000Y-73800000D03*
X141380000Y-74600000D03*
D36*
X141380000Y-75750000D03*
X141380000Y-76750000D03*
X141380000Y-77250000D03*
X141380000Y-78250000D03*
D35*
X141380000Y-79400000D03*
X141380000Y-80200000D03*
X141380000Y-80200000D03*
X141380000Y-79400000D03*
D36*
X141380000Y-78750000D03*
X141380000Y-77750000D03*
X141380000Y-76250000D03*
X141380000Y-75250000D03*
D35*
X141380000Y-74600000D03*
X141380000Y-73800000D03*
D37*
X140805000Y-72680000D03*
D38*
X136625000Y-72680000D03*
D37*
X140805000Y-81320000D03*
D38*
X136625000Y-81320000D03*
D39*
X145200000Y-80650000D03*
X145200000Y-81300000D03*
X145200000Y-81950000D03*
X145200000Y-82600000D03*
X149600000Y-82600000D03*
X149600000Y-81950000D03*
X149600000Y-81300000D03*
X149600000Y-80650000D03*
D17*
X138260000Y-82900000D03*
X137300000Y-82900000D03*
%LPD*%
M02*
