%TF.GenerationSoftware,KiCad,Pcbnew,7.0.8-7.0.8~ubuntu22.04.1*%
%TF.CreationDate,2023-10-30T09:28:09+01:00*%
%TF.ProjectId,usb2serial-autovtg,75736232-7365-4726-9961-6c2d6175746f,rev?*%
%TF.SameCoordinates,Original*%
%TF.FileFunction,Paste,Top*%
%TF.FilePolarity,Positive*%
%FSLAX46Y46*%
G04 Gerber Fmt 4.6, Leading zero omitted, Abs format (unit mm)*
G04 Created by KiCad (PCBNEW 7.0.8-7.0.8~ubuntu22.04.1) date 2023-10-30 09:28:09*
%MOMM*%
%LPD*%
G01*
G04 APERTURE LIST*
G04 Aperture macros list*
%AMRoundRect*
0 Rectangle with rounded corners*
0 $1 Rounding radius*
0 $2 $3 $4 $5 $6 $7 $8 $9 X,Y pos of 4 corners*
0 Add a 4 corners polygon primitive as box body*
4,1,4,$2,$3,$4,$5,$6,$7,$8,$9,$2,$3,0*
0 Add four circle primitives for the rounded corners*
1,1,$1+$1,$2,$3*
1,1,$1+$1,$4,$5*
1,1,$1+$1,$6,$7*
1,1,$1+$1,$8,$9*
0 Add four rect primitives between the rounded corners*
20,1,$1+$1,$2,$3,$4,$5,0*
20,1,$1+$1,$4,$5,$6,$7,0*
20,1,$1+$1,$6,$7,$8,$9,0*
20,1,$1+$1,$8,$9,$2,$3,0*%
G04 Aperture macros list end*
%ADD10RoundRect,0.140000X0.170000X-0.140000X0.170000X0.140000X-0.170000X0.140000X-0.170000X-0.140000X0*%
%ADD11RoundRect,0.140000X-0.170000X0.140000X-0.170000X-0.140000X0.170000X-0.140000X0.170000X0.140000X0*%
%ADD12RoundRect,0.140000X0.140000X0.170000X-0.140000X0.170000X-0.140000X-0.170000X0.140000X-0.170000X0*%
%ADD13RoundRect,0.140000X-0.140000X-0.170000X0.140000X-0.170000X0.140000X0.170000X-0.140000X0.170000X0*%
%ADD14RoundRect,0.218750X-0.218750X-0.256250X0.218750X-0.256250X0.218750X0.256250X-0.218750X0.256250X0*%
%ADD15RoundRect,0.135000X0.185000X-0.135000X0.185000X0.135000X-0.185000X0.135000X-0.185000X-0.135000X0*%
%ADD16RoundRect,0.135000X-0.185000X0.135000X-0.185000X-0.135000X0.185000X-0.135000X0.185000X0.135000X0*%
%ADD17RoundRect,0.135000X0.135000X0.185000X-0.135000X0.185000X-0.135000X-0.185000X0.135000X-0.185000X0*%
%ADD18R,1.000000X0.640000*%
%ADD19R,0.250000X0.700000*%
%ADD20R,0.700000X0.510000*%
%ADD21RoundRect,0.135000X-0.135000X-0.185000X0.135000X-0.185000X0.135000X0.185000X-0.135000X0.185000X0*%
%ADD22RoundRect,0.150000X-0.587500X-0.150000X0.587500X-0.150000X0.587500X0.150000X-0.587500X0.150000X0*%
%ADD23RoundRect,0.218750X0.218750X0.256250X-0.218750X0.256250X-0.218750X-0.256250X0.218750X-0.256250X0*%
%ADD24R,0.400000X0.450000*%
%ADD25R,0.700000X0.450000*%
%ADD26R,1.150000X0.600000*%
%ADD27R,1.150000X0.300000*%
%ADD28O,2.100000X1.000000*%
%ADD29O,1.800000X1.000000*%
%ADD30R,1.450000X0.450000*%
G04 APERTURE END LIST*
D10*
X144800000Y-74700000D03*
X144800000Y-73740000D03*
D11*
X144800000Y-75720000D03*
X144800000Y-76680000D03*
D12*
X148580000Y-72100000D03*
X147620000Y-72100000D03*
D13*
X148220000Y-77800000D03*
X149180000Y-77800000D03*
D14*
X140125000Y-70700000D03*
X141700000Y-70700000D03*
D15*
X145900000Y-76720000D03*
X145900000Y-75700000D03*
D16*
X145900000Y-73680000D03*
X145900000Y-74700000D03*
D17*
X151820000Y-74900000D03*
X150800000Y-74900000D03*
D18*
X147705000Y-75615000D03*
X148895000Y-75615000D03*
X147705000Y-74785000D03*
X148895000Y-74785000D03*
D19*
X147175000Y-76600000D03*
X147625000Y-76600000D03*
X148075000Y-76600000D03*
X148525000Y-76600000D03*
X148975000Y-76600000D03*
X149425000Y-76600000D03*
X149425000Y-73800000D03*
X148975000Y-73800000D03*
X148525000Y-73800000D03*
X148075000Y-73800000D03*
X147625000Y-73800000D03*
X147175000Y-73800000D03*
D20*
X153660000Y-72550000D03*
X153660000Y-71600000D03*
X153660000Y-70650000D03*
X151340000Y-70650000D03*
X151340000Y-72550000D03*
D17*
X153800000Y-73850000D03*
X152780000Y-73850000D03*
X149110000Y-71000000D03*
X148090000Y-71000000D03*
D16*
X143000000Y-79190000D03*
X143000000Y-80210000D03*
D21*
X151390000Y-82000000D03*
X152410000Y-82000000D03*
D15*
X151500000Y-80510000D03*
X151500000Y-79490000D03*
D16*
X153500000Y-81490000D03*
X153500000Y-82510000D03*
D17*
X153800000Y-74900000D03*
X152780000Y-74900000D03*
D22*
X143625000Y-70450000D03*
X143625000Y-72350000D03*
X145500000Y-71400000D03*
D21*
X137690000Y-71000000D03*
X138710000Y-71000000D03*
D13*
X151440000Y-83000000D03*
X152400000Y-83000000D03*
D12*
X149160000Y-79300000D03*
X148200000Y-79300000D03*
D23*
X141087500Y-83200000D03*
X139512500Y-83200000D03*
D16*
X153700000Y-79490000D03*
X153700000Y-80510000D03*
D20*
X153660000Y-78150000D03*
X153660000Y-77200000D03*
X153660000Y-76250000D03*
X151340000Y-76250000D03*
X151340000Y-78150000D03*
D15*
X152600000Y-80510000D03*
X152600000Y-79490000D03*
D10*
X150200000Y-72080000D03*
X150200000Y-71120000D03*
D24*
X143000000Y-75850000D03*
X143800000Y-75850000D03*
X143400000Y-74800000D03*
D16*
X143000000Y-76880000D03*
X143000000Y-77900000D03*
D15*
X143300000Y-82300000D03*
X143300000Y-81280000D03*
D10*
X150200000Y-78800000D03*
X150200000Y-77840000D03*
D25*
X144200000Y-77850000D03*
X144200000Y-79150000D03*
X146200000Y-78500000D03*
D26*
X141380000Y-73800000D03*
X141380000Y-74600000D03*
D27*
X141380000Y-75750000D03*
X141380000Y-76750000D03*
X141380000Y-77250000D03*
X141380000Y-78250000D03*
D26*
X141380000Y-79400000D03*
X141380000Y-80200000D03*
X141380000Y-80200000D03*
X141380000Y-79400000D03*
D27*
X141380000Y-78750000D03*
X141380000Y-77750000D03*
X141380000Y-76250000D03*
X141380000Y-75250000D03*
D26*
X141380000Y-74600000D03*
X141380000Y-73800000D03*
D28*
X140805000Y-72680000D03*
D29*
X136625000Y-72680000D03*
D28*
X140805000Y-81320000D03*
D29*
X136625000Y-81320000D03*
D30*
X145200000Y-80650000D03*
X145200000Y-81300000D03*
X145200000Y-81950000D03*
X145200000Y-82600000D03*
X149600000Y-82600000D03*
X149600000Y-81950000D03*
X149600000Y-81300000D03*
X149600000Y-80650000D03*
D12*
X138260000Y-82900000D03*
X137300000Y-82900000D03*
M02*
