%TF.GenerationSoftware,KiCad,Pcbnew,7.0.8-7.0.8~ubuntu22.04.1*%
%TF.CreationDate,2023-10-30T09:28:09+01:00*%
%TF.ProjectId,usb2serial-autovtg,75736232-7365-4726-9961-6c2d6175746f,rev?*%
%TF.SameCoordinates,Original*%
%TF.FileFunction,Copper,L1,Top*%
%TF.FilePolarity,Positive*%
%FSLAX46Y46*%
G04 Gerber Fmt 4.6, Leading zero omitted, Abs format (unit mm)*
G04 Created by KiCad (PCBNEW 7.0.8-7.0.8~ubuntu22.04.1) date 2023-10-30 09:28:09*
%MOMM*%
%LPD*%
G01*
G04 APERTURE LIST*
G04 Aperture macros list*
%AMRoundRect*
0 Rectangle with rounded corners*
0 $1 Rounding radius*
0 $2 $3 $4 $5 $6 $7 $8 $9 X,Y pos of 4 corners*
0 Add a 4 corners polygon primitive as box body*
4,1,4,$2,$3,$4,$5,$6,$7,$8,$9,$2,$3,0*
0 Add four circle primitives for the rounded corners*
1,1,$1+$1,$2,$3*
1,1,$1+$1,$4,$5*
1,1,$1+$1,$6,$7*
1,1,$1+$1,$8,$9*
0 Add four rect primitives between the rounded corners*
20,1,$1+$1,$2,$3,$4,$5,0*
20,1,$1+$1,$4,$5,$6,$7,0*
20,1,$1+$1,$6,$7,$8,$9,0*
20,1,$1+$1,$8,$9,$2,$3,0*%
G04 Aperture macros list end*
%TA.AperFunction,SMDPad,CuDef*%
%ADD10RoundRect,0.140000X0.170000X-0.140000X0.170000X0.140000X-0.170000X0.140000X-0.170000X-0.140000X0*%
%TD*%
%TA.AperFunction,SMDPad,CuDef*%
%ADD11RoundRect,0.140000X-0.170000X0.140000X-0.170000X-0.140000X0.170000X-0.140000X0.170000X0.140000X0*%
%TD*%
%TA.AperFunction,SMDPad,CuDef*%
%ADD12RoundRect,0.140000X0.140000X0.170000X-0.140000X0.170000X-0.140000X-0.170000X0.140000X-0.170000X0*%
%TD*%
%TA.AperFunction,SMDPad,CuDef*%
%ADD13RoundRect,0.140000X-0.140000X-0.170000X0.140000X-0.170000X0.140000X0.170000X-0.140000X0.170000X0*%
%TD*%
%TA.AperFunction,SMDPad,CuDef*%
%ADD14RoundRect,0.218750X-0.218750X-0.256250X0.218750X-0.256250X0.218750X0.256250X-0.218750X0.256250X0*%
%TD*%
%TA.AperFunction,SMDPad,CuDef*%
%ADD15RoundRect,0.135000X0.185000X-0.135000X0.185000X0.135000X-0.185000X0.135000X-0.185000X-0.135000X0*%
%TD*%
%TA.AperFunction,SMDPad,CuDef*%
%ADD16RoundRect,0.135000X-0.185000X0.135000X-0.185000X-0.135000X0.185000X-0.135000X0.185000X0.135000X0*%
%TD*%
%TA.AperFunction,SMDPad,CuDef*%
%ADD17RoundRect,0.135000X0.135000X0.185000X-0.135000X0.185000X-0.135000X-0.185000X0.135000X-0.185000X0*%
%TD*%
%TA.AperFunction,SMDPad,CuDef*%
%ADD18R,0.250000X0.700000*%
%TD*%
%TA.AperFunction,SMDPad,CuDef*%
%ADD19R,2.380000X1.660000*%
%TD*%
%TA.AperFunction,SMDPad,CuDef*%
%ADD20R,0.700000X0.510000*%
%TD*%
%TA.AperFunction,ComponentPad*%
%ADD21R,1.700000X1.700000*%
%TD*%
%TA.AperFunction,ComponentPad*%
%ADD22O,1.700000X1.700000*%
%TD*%
%TA.AperFunction,SMDPad,CuDef*%
%ADD23RoundRect,0.135000X-0.135000X-0.185000X0.135000X-0.185000X0.135000X0.185000X-0.135000X0.185000X0*%
%TD*%
%TA.AperFunction,SMDPad,CuDef*%
%ADD24C,0.500000*%
%TD*%
%TA.AperFunction,SMDPad,CuDef*%
%ADD25RoundRect,0.150000X-0.587500X-0.150000X0.587500X-0.150000X0.587500X0.150000X-0.587500X0.150000X0*%
%TD*%
%TA.AperFunction,SMDPad,CuDef*%
%ADD26RoundRect,0.218750X0.218750X0.256250X-0.218750X0.256250X-0.218750X-0.256250X0.218750X-0.256250X0*%
%TD*%
%TA.AperFunction,SMDPad,CuDef*%
%ADD27R,0.400000X0.450000*%
%TD*%
%TA.AperFunction,SMDPad,CuDef*%
%ADD28R,0.700000X0.450000*%
%TD*%
%TA.AperFunction,SMDPad,CuDef*%
%ADD29R,1.150000X0.600000*%
%TD*%
%TA.AperFunction,SMDPad,CuDef*%
%ADD30R,1.150000X0.300000*%
%TD*%
%TA.AperFunction,ComponentPad*%
%ADD31O,2.100000X1.000000*%
%TD*%
%TA.AperFunction,ComponentPad*%
%ADD32O,1.800000X1.000000*%
%TD*%
%TA.AperFunction,SMDPad,CuDef*%
%ADD33R,1.450000X0.450000*%
%TD*%
%TA.AperFunction,ViaPad*%
%ADD34C,0.600000*%
%TD*%
%TA.AperFunction,Conductor*%
%ADD35C,0.250000*%
%TD*%
%TA.AperFunction,Conductor*%
%ADD36C,0.500000*%
%TD*%
%TA.AperFunction,Conductor*%
%ADD37C,0.200000*%
%TD*%
%TA.AperFunction,Conductor*%
%ADD38C,0.400000*%
%TD*%
G04 APERTURE END LIST*
D10*
X144800000Y-74700000D03*
X144800000Y-73740000D03*
D11*
X144800000Y-75720000D03*
X144800000Y-76680000D03*
D12*
X148580000Y-72100000D03*
X147620000Y-72100000D03*
D13*
X148220000Y-77800000D03*
X149180000Y-77800000D03*
D14*
X140125000Y-70700000D03*
X141700000Y-70700000D03*
D15*
X145900000Y-76720000D03*
X145900000Y-75700000D03*
D16*
X145900000Y-73680000D03*
X145900000Y-74700000D03*
D17*
X151820000Y-74900000D03*
X150800000Y-74900000D03*
D18*
X147175000Y-76600000D03*
X147625000Y-76600000D03*
X148075000Y-76600000D03*
X148525000Y-76600000D03*
X148975000Y-76600000D03*
X149425000Y-76600000D03*
X149425000Y-73800000D03*
X148975000Y-73800000D03*
X148525000Y-73800000D03*
X148075000Y-73800000D03*
X147625000Y-73800000D03*
X147175000Y-73800000D03*
D19*
X148300000Y-75200000D03*
D20*
X153660000Y-72550000D03*
X153660000Y-71600000D03*
X153660000Y-70650000D03*
X151340000Y-70650000D03*
X151340000Y-72550000D03*
D21*
X156200000Y-73200000D03*
D22*
X156200000Y-75740000D03*
X156200000Y-78280000D03*
X156200000Y-80820000D03*
D17*
X153800000Y-73850000D03*
X152780000Y-73850000D03*
X149110000Y-71000000D03*
X148090000Y-71000000D03*
D16*
X143000000Y-79190000D03*
X143000000Y-80210000D03*
D23*
X151390000Y-82000000D03*
X152410000Y-82000000D03*
D15*
X151500000Y-80510000D03*
X151500000Y-79490000D03*
D16*
X153500000Y-81490000D03*
X153500000Y-82510000D03*
D17*
X153800000Y-74900000D03*
X152780000Y-74900000D03*
D24*
X135200000Y-69200000D03*
D25*
X143625000Y-70450000D03*
X143625000Y-72350000D03*
X145500000Y-71400000D03*
D23*
X137690000Y-71000000D03*
X138710000Y-71000000D03*
D13*
X151440000Y-83000000D03*
X152400000Y-83000000D03*
D12*
X149160000Y-79300000D03*
X148200000Y-79300000D03*
D26*
X141087500Y-83200000D03*
X139512500Y-83200000D03*
D16*
X153700000Y-79490000D03*
X153700000Y-80510000D03*
D20*
X153660000Y-78150000D03*
X153660000Y-77200000D03*
X153660000Y-76250000D03*
X151340000Y-76250000D03*
X151340000Y-78150000D03*
D15*
X152600000Y-80510000D03*
X152600000Y-79490000D03*
D10*
X150200000Y-72080000D03*
X150200000Y-71120000D03*
D24*
X135200000Y-84800000D03*
D27*
X143000000Y-75850000D03*
X143800000Y-75850000D03*
X143400000Y-74800000D03*
D24*
X156800000Y-69200000D03*
D16*
X143000000Y-76880000D03*
X143000000Y-77900000D03*
D15*
X143300000Y-82300000D03*
X143300000Y-81280000D03*
D10*
X150200000Y-78800000D03*
X150200000Y-77840000D03*
D28*
X144200000Y-77850000D03*
X144200000Y-79150000D03*
X146200000Y-78500000D03*
D29*
X141380000Y-73800000D03*
X141380000Y-74600000D03*
D30*
X141380000Y-75750000D03*
X141380000Y-76750000D03*
X141380000Y-77250000D03*
X141380000Y-78250000D03*
D29*
X141380000Y-79400000D03*
X141380000Y-80200000D03*
X141380000Y-80200000D03*
X141380000Y-79400000D03*
D30*
X141380000Y-78750000D03*
X141380000Y-77750000D03*
X141380000Y-76250000D03*
X141380000Y-75250000D03*
D29*
X141380000Y-74600000D03*
X141380000Y-73800000D03*
D31*
X140805000Y-72680000D03*
D32*
X136625000Y-72680000D03*
D31*
X140805000Y-81320000D03*
D32*
X136625000Y-81320000D03*
D33*
X145200000Y-80650000D03*
X145200000Y-81300000D03*
X145200000Y-81950000D03*
X145200000Y-82600000D03*
X149600000Y-82600000D03*
X149600000Y-81950000D03*
X149600000Y-81300000D03*
X149600000Y-80650000D03*
D12*
X138260000Y-82900000D03*
X137300000Y-82900000D03*
D34*
X147400000Y-75200000D03*
X143900000Y-76800000D03*
X150200000Y-70400000D03*
X152800000Y-76300000D03*
X152600000Y-81200000D03*
X137000000Y-71000000D03*
X142900000Y-74200000D03*
X137300000Y-82200000D03*
X153100000Y-83300000D03*
X149200000Y-75200000D03*
X148200000Y-80000000D03*
X150200000Y-77100000D03*
X144900000Y-70400000D03*
X152900000Y-70700000D03*
X146900000Y-72500000D03*
X143900000Y-81900000D03*
X146400000Y-82600000D03*
X144000000Y-73800000D03*
X150100000Y-73200000D03*
X147200000Y-77600000D03*
X142200000Y-82900000D03*
X146500000Y-81398500D03*
X148100000Y-72900000D03*
X151400000Y-71400000D03*
X154300000Y-82600000D03*
X148300000Y-82600000D03*
X139000000Y-74700000D03*
X140100000Y-75700000D03*
D35*
X143900000Y-76800000D02*
X144680000Y-76800000D01*
D36*
X141380000Y-80200000D02*
X141380000Y-80745000D01*
D37*
X148975000Y-75695000D02*
X148895000Y-75615000D01*
D38*
X153610000Y-70700000D02*
X153660000Y-70650000D01*
D35*
X149200000Y-77300000D02*
X149200000Y-77800000D01*
D38*
X152600000Y-80510000D02*
X152600000Y-81200000D01*
X147300000Y-72100000D02*
X146900000Y-72500000D01*
X147620000Y-72100000D02*
X147300000Y-72100000D01*
D35*
X143820000Y-76880000D02*
X143900000Y-76800000D01*
X152400000Y-83000000D02*
X152400000Y-82010000D01*
X150200000Y-71100000D02*
X150200000Y-70400000D01*
X143600000Y-82600000D02*
X145200000Y-82600000D01*
X148975000Y-77075000D02*
X149200000Y-77300000D01*
D38*
X143400000Y-74700000D02*
X142900000Y-74200000D01*
D35*
X137690000Y-71000000D02*
X137000000Y-71000000D01*
X147500000Y-73275000D02*
X147500000Y-72600000D01*
D38*
X152900000Y-70700000D02*
X153610000Y-70700000D01*
D37*
X147625000Y-74705000D02*
X147705000Y-74785000D01*
D35*
X143300000Y-82300000D02*
X143500000Y-82300000D01*
X147625000Y-73400000D02*
X147500000Y-73275000D01*
X148975000Y-76600000D02*
X148975000Y-77075000D01*
D38*
X148200000Y-79300000D02*
X148200000Y-80000000D01*
D35*
X148975000Y-76600000D02*
X148975000Y-75875000D01*
D38*
X142900000Y-74200000D02*
X142480000Y-73780000D01*
D36*
X141380000Y-80745000D02*
X140805000Y-81320000D01*
D35*
X144800000Y-73740000D02*
X144060000Y-73740000D01*
D38*
X152850000Y-76250000D02*
X152800000Y-76300000D01*
X153660000Y-76250000D02*
X152850000Y-76250000D01*
D35*
X152400000Y-82010000D02*
X152410000Y-82000000D01*
X148975000Y-75875000D02*
X148300000Y-75200000D01*
X144060000Y-73740000D02*
X144000000Y-73800000D01*
D38*
X150160000Y-77800000D02*
X150200000Y-77840000D01*
X150200000Y-77840000D02*
X150200000Y-77100000D01*
D35*
X147625000Y-73800000D02*
X147625000Y-73400000D01*
X152700000Y-83300000D02*
X152400000Y-83000000D01*
D38*
X137300000Y-82900000D02*
X137300000Y-82200000D01*
D35*
X152410000Y-82000000D02*
X152410000Y-81390000D01*
D38*
X137300000Y-82200000D02*
X137300000Y-81995000D01*
D35*
X144680000Y-76800000D02*
X144800000Y-76680000D01*
X143000000Y-76880000D02*
X143820000Y-76880000D01*
X147620000Y-72100000D02*
X147620000Y-72480000D01*
D38*
X144850000Y-70450000D02*
X144900000Y-70400000D01*
X145200000Y-82600000D02*
X146400000Y-82600000D01*
D35*
X143500000Y-82300000D02*
X143900000Y-81900000D01*
D38*
X149180000Y-77800000D02*
X150160000Y-77800000D01*
X137300000Y-81995000D02*
X136625000Y-81320000D01*
D35*
X153100000Y-83300000D02*
X152700000Y-83300000D01*
D36*
X141380000Y-73255000D02*
X140805000Y-72680000D01*
D35*
X147625000Y-73800000D02*
X147625000Y-74525000D01*
X152410000Y-81390000D02*
X152600000Y-81200000D01*
X147620000Y-72480000D02*
X147500000Y-72600000D01*
D38*
X142480000Y-73780000D02*
X141375000Y-73780000D01*
D36*
X141380000Y-73800000D02*
X141380000Y-73255000D01*
D38*
X143400000Y-74800000D02*
X143400000Y-74700000D01*
D35*
X147625000Y-74525000D02*
X148300000Y-75200000D01*
X143300000Y-82300000D02*
X143600000Y-82600000D01*
D38*
X143625000Y-70450000D02*
X144850000Y-70450000D01*
X148580000Y-71490000D02*
X148090000Y-71000000D01*
D35*
X148580000Y-72480000D02*
X148700000Y-72600000D01*
X148580000Y-72100000D02*
X148580000Y-72480000D01*
X148525000Y-73375000D02*
X148700000Y-73200000D01*
X147400000Y-71000000D02*
X148090000Y-71000000D01*
X147625000Y-77175000D02*
X147200000Y-77600000D01*
X148700000Y-73200000D02*
X148700000Y-72600000D01*
D38*
X148580000Y-72100000D02*
X148580000Y-71490000D01*
D35*
X148525000Y-73800000D02*
X148525000Y-73375000D01*
X142400000Y-71400000D02*
X144100000Y-71400000D01*
X144100000Y-71400000D02*
X144800000Y-72100000D01*
X141700000Y-70700000D02*
X142400000Y-71400000D01*
X146300000Y-72100000D02*
X147400000Y-71000000D01*
X148075000Y-76600000D02*
X147625000Y-76600000D01*
D38*
X149000000Y-72100000D02*
X148580000Y-72100000D01*
D35*
X144800000Y-72100000D02*
X146300000Y-72100000D01*
X147625000Y-76600000D02*
X147625000Y-77175000D01*
D38*
X150100000Y-73200000D02*
X149000000Y-72100000D01*
D35*
X148525000Y-76600000D02*
X148525000Y-77075000D01*
X148525000Y-77075000D02*
X148240000Y-77360000D01*
D38*
X147200000Y-80698500D02*
X146500000Y-81398500D01*
X141087500Y-83200000D02*
X141900000Y-83200000D01*
X148000000Y-77800000D02*
X147200000Y-78600000D01*
X148220000Y-77920000D02*
X149160000Y-78860000D01*
X149160000Y-79300000D02*
X149160000Y-79760000D01*
D35*
X148240000Y-77360000D02*
X148240000Y-77800000D01*
D38*
X148220000Y-77800000D02*
X148220000Y-77920000D01*
X147200000Y-78600000D02*
X147200000Y-80698500D01*
X148220000Y-77800000D02*
X148000000Y-77800000D01*
X149160000Y-79760000D02*
X149600000Y-80200000D01*
X141900000Y-83200000D02*
X142200000Y-82900000D01*
X149160000Y-78860000D02*
X149160000Y-79300000D01*
X149600000Y-80200000D02*
X149600000Y-80650000D01*
D35*
X151612500Y-69712500D02*
X152100000Y-70200000D01*
X141112500Y-69712500D02*
X151612500Y-69712500D01*
X151820000Y-73480000D02*
X151820000Y-74900000D01*
X140125000Y-70700000D02*
X141112500Y-69712500D01*
X152100000Y-70200000D02*
X152100000Y-73200000D01*
X152100000Y-73200000D02*
X151820000Y-73480000D01*
D37*
X153300000Y-74370000D02*
X153300000Y-75300000D01*
X153100000Y-71600000D02*
X152780000Y-71920000D01*
X153300000Y-75300000D02*
X153600000Y-75600000D01*
D35*
X152600000Y-79490000D02*
X153700000Y-79490000D01*
D37*
X154400000Y-78790000D02*
X153700000Y-79490000D01*
X153660000Y-71600000D02*
X153100000Y-71600000D01*
X152780000Y-71920000D02*
X152780000Y-73850000D01*
X152780000Y-73850000D02*
X153300000Y-74370000D01*
X154400000Y-75900000D02*
X154400000Y-78790000D01*
X153600000Y-75600000D02*
X154100000Y-75600000D01*
X154100000Y-75600000D02*
X154400000Y-75900000D01*
D38*
X154720000Y-80820000D02*
X154410000Y-80510000D01*
D35*
X153500000Y-81490000D02*
X153500000Y-81000000D01*
X153700000Y-80800000D02*
X153500000Y-81000000D01*
X153700000Y-80510000D02*
X153700000Y-80800000D01*
D38*
X154410000Y-80510000D02*
X153700000Y-80510000D01*
X156200000Y-80820000D02*
X154720000Y-80820000D01*
X155360000Y-74900000D02*
X153800000Y-74900000D01*
X156200000Y-75740000D02*
X155360000Y-74900000D01*
X154950000Y-73200000D02*
X154300000Y-73850000D01*
X156200000Y-73200000D02*
X154950000Y-73200000D01*
X153800000Y-73850000D02*
X154300000Y-73850000D01*
D37*
X149425000Y-76600000D02*
X149700000Y-76600000D01*
X149700000Y-76600000D02*
X150100000Y-76200000D01*
X150100000Y-75600000D02*
X150800000Y-74900000D01*
X150100000Y-76200000D02*
X150100000Y-75600000D01*
X151300000Y-75300000D02*
X150700000Y-75900000D01*
X151300000Y-74400000D02*
X150700000Y-73800000D01*
X150700000Y-76596000D02*
X151304000Y-77200000D01*
X149425000Y-73800000D02*
X150700000Y-73800000D01*
X150700000Y-75900000D02*
X150700000Y-76596000D01*
X151304000Y-77200000D02*
X153660000Y-77200000D01*
X151300000Y-74400000D02*
X151300000Y-75300000D01*
X151400000Y-70710000D02*
X151340000Y-70650000D01*
X148075000Y-73800000D02*
X148075000Y-72925000D01*
X148075000Y-72925000D02*
X148100000Y-72900000D01*
X151400000Y-71400000D02*
X151400000Y-70710000D01*
D35*
X146200000Y-71400000D02*
X147250000Y-70350000D01*
X151340000Y-72550000D02*
X150670000Y-72550000D01*
X147250000Y-70350000D02*
X148470000Y-70350000D01*
X150670000Y-72550000D02*
X150200000Y-72080000D01*
X145500000Y-71400000D02*
X146200000Y-71400000D01*
X148470000Y-70350000D02*
X150200000Y-72080000D01*
D37*
X151040000Y-82600000D02*
X151440000Y-83000000D01*
X142700000Y-82600000D02*
X143400000Y-83300000D01*
X143000000Y-80210000D02*
X143000000Y-80700000D01*
X151140000Y-83300000D02*
X151440000Y-83000000D01*
X142700000Y-81000000D02*
X142700000Y-82600000D01*
X143400000Y-83300000D02*
X151140000Y-83300000D01*
X151390000Y-82950000D02*
X151440000Y-83000000D01*
X151390000Y-82000000D02*
X151390000Y-82950000D01*
X143000000Y-80700000D02*
X142700000Y-81000000D01*
X149600000Y-82600000D02*
X151040000Y-82600000D01*
D35*
X150200000Y-79300000D02*
X150400000Y-79500000D01*
X151340000Y-78150000D02*
X150850000Y-78150000D01*
X150850000Y-78150000D02*
X150200000Y-78800000D01*
X151500000Y-79500000D02*
X150400000Y-79500000D01*
X150200000Y-79300000D02*
X150200000Y-78800000D01*
X143320000Y-81300000D02*
X143300000Y-81280000D01*
X145200000Y-81300000D02*
X144200000Y-81300000D01*
D37*
X144200000Y-79150000D02*
X144200000Y-81300000D01*
D35*
X144200000Y-81300000D02*
X143320000Y-81300000D01*
X153590000Y-82600000D02*
X153500000Y-82510000D01*
X146853500Y-81953500D02*
X145203500Y-81953500D01*
X147500000Y-82600000D02*
X146853500Y-81953500D01*
X154300000Y-82600000D02*
X153590000Y-82600000D01*
X145203500Y-81953500D02*
X145200000Y-81950000D01*
X148300000Y-82600000D02*
X147500000Y-82600000D01*
X150650000Y-81950000D02*
X150800000Y-81800000D01*
X150800000Y-81400000D02*
X150700000Y-81300000D01*
X149600000Y-81950000D02*
X150650000Y-81950000D01*
X151500000Y-80510000D02*
X151500000Y-80700000D01*
X151500000Y-80700000D02*
X150800000Y-81400000D01*
X150800000Y-81800000D02*
X150800000Y-81400000D01*
X150700000Y-81300000D02*
X149600000Y-81300000D01*
X151850000Y-76250000D02*
X152780000Y-75320000D01*
X152780000Y-75320000D02*
X152780000Y-74900000D01*
X151850000Y-76250000D02*
X151340000Y-76250000D01*
X146200000Y-80100000D02*
X145650000Y-80650000D01*
X146200000Y-78500000D02*
X146200000Y-80100000D01*
X145650000Y-80650000D02*
X145200000Y-80650000D01*
X141380000Y-75750000D02*
X140150000Y-75750000D01*
X138710000Y-74410000D02*
X139000000Y-74700000D01*
X138710000Y-71000000D02*
X138710000Y-74410000D01*
X140150000Y-75750000D02*
X140100000Y-75700000D01*
X142150000Y-78750000D02*
X143000000Y-77900000D01*
X141380000Y-78750000D02*
X142150000Y-78750000D01*
D37*
X143550000Y-75300000D02*
X143000000Y-75850000D01*
D35*
X140770000Y-76230000D02*
X141375000Y-76230000D01*
X140630000Y-77230000D02*
X140500000Y-77100000D01*
D37*
X142650000Y-75850000D02*
X142250000Y-76250000D01*
D35*
X140500000Y-77100000D02*
X140500000Y-76500000D01*
X145800000Y-75700000D02*
X144800000Y-74700000D01*
D37*
X142250000Y-76250000D02*
X141380000Y-76250000D01*
D35*
X145900000Y-75700000D02*
X145800000Y-75700000D01*
X140500000Y-76500000D02*
X140770000Y-76230000D01*
D37*
X144200000Y-75300000D02*
X143550000Y-75300000D01*
X143000000Y-75850000D02*
X142650000Y-75850000D01*
X144200000Y-75300000D02*
X144800000Y-74700000D01*
D35*
X141375000Y-77230000D02*
X140630000Y-77230000D01*
X142230000Y-76730000D02*
X142300000Y-76800000D01*
X141375000Y-77730000D02*
X142170000Y-77730000D01*
D37*
X144670000Y-75850000D02*
X144800000Y-75720000D01*
X145900000Y-74700000D02*
X146500000Y-75300000D01*
X146400000Y-76200000D02*
X145280000Y-76200000D01*
X142663812Y-76380000D02*
X142300000Y-76743812D01*
X143295000Y-76380000D02*
X142663812Y-76380000D01*
D35*
X142170000Y-77730000D02*
X142300000Y-77600000D01*
D37*
X143800000Y-75850000D02*
X143800000Y-75875000D01*
X146500000Y-75300000D02*
X146500000Y-76100000D01*
X143800000Y-75850000D02*
X144670000Y-75850000D01*
D35*
X141375000Y-76730000D02*
X142230000Y-76730000D01*
D37*
X143800000Y-75875000D02*
X143295000Y-76380000D01*
X145280000Y-76200000D02*
X144800000Y-75720000D01*
D35*
X142300000Y-77600000D02*
X142300000Y-76800000D01*
D37*
X146500000Y-76100000D02*
X146400000Y-76200000D01*
X142300000Y-76743812D02*
X142300000Y-76800000D01*
D35*
X147175000Y-76600000D02*
X146020000Y-76600000D01*
X146020000Y-76600000D02*
X145900000Y-76720000D01*
X147175000Y-73800000D02*
X146020000Y-73800000D01*
X146020000Y-73800000D02*
X145900000Y-73680000D01*
D38*
X139512500Y-83200000D02*
X138560000Y-83200000D01*
X138560000Y-83200000D02*
X138260000Y-82900000D01*
D37*
X144200000Y-77850000D02*
X144200000Y-78300000D01*
X143690000Y-78500000D02*
X143000000Y-79190000D01*
X144000000Y-78500000D02*
X143690000Y-78500000D01*
X144200000Y-78300000D02*
X144000000Y-78500000D01*
%TA.AperFunction,Conductor*%
G36*
X141859191Y-74319407D02*
G01*
X141895155Y-74368907D01*
X141900000Y-74399500D01*
X141900000Y-74800500D01*
X141881093Y-74858691D01*
X141831593Y-74894655D01*
X141801000Y-74899500D01*
X140785252Y-74899500D01*
X140785251Y-74899500D01*
X140785241Y-74899501D01*
X140726772Y-74911132D01*
X140726766Y-74911134D01*
X140660451Y-74955445D01*
X140660445Y-74955451D01*
X140616134Y-75021766D01*
X140616132Y-75021772D01*
X140604501Y-75080241D01*
X140604500Y-75080253D01*
X140604500Y-75241812D01*
X140592849Y-75288408D01*
X140589317Y-75295029D01*
X140545246Y-75337473D01*
X140484644Y-75345906D01*
X140437833Y-75320933D01*
X140436481Y-75322495D01*
X140431127Y-75317856D01*
X140310057Y-75240049D01*
X140310054Y-75240047D01*
X140310053Y-75240047D01*
X140310050Y-75240046D01*
X140171964Y-75199500D01*
X140171961Y-75199500D01*
X140028039Y-75199500D01*
X140028035Y-75199500D01*
X139889949Y-75240046D01*
X139889942Y-75240049D01*
X139768873Y-75317855D01*
X139674622Y-75426628D01*
X139614834Y-75557543D01*
X139594353Y-75699997D01*
X139594353Y-75700002D01*
X139614834Y-75842456D01*
X139674622Y-75973371D01*
X139674623Y-75973373D01*
X139674717Y-75973481D01*
X139768873Y-76082144D01*
X139816569Y-76112796D01*
X139889947Y-76159953D01*
X140000484Y-76192409D01*
X140050991Y-76226945D01*
X140071553Y-76284572D01*
X140054315Y-76343279D01*
X140042597Y-76357402D01*
X140000000Y-76399999D01*
X140000000Y-76400000D01*
X140000000Y-77600000D01*
X140000000Y-78300000D01*
X140494382Y-78800000D01*
X140579828Y-78883875D01*
X140607574Y-78935208D01*
X140616132Y-78978228D01*
X140616133Y-78978231D01*
X140660448Y-79044552D01*
X140726769Y-79088867D01*
X140771231Y-79097711D01*
X140785241Y-79100498D01*
X140785246Y-79100498D01*
X140785252Y-79100500D01*
X140785253Y-79100500D01*
X141801000Y-79100500D01*
X141859191Y-79119407D01*
X141895155Y-79168907D01*
X141900000Y-79199500D01*
X141900000Y-79600500D01*
X141881093Y-79658691D01*
X141831593Y-79694655D01*
X141801000Y-79699500D01*
X140915159Y-79699500D01*
X140856968Y-79680593D01*
X140823695Y-79638386D01*
X140815896Y-79619560D01*
X140807698Y-79599767D01*
X140715451Y-79479549D01*
X140595233Y-79387302D01*
X140455236Y-79329313D01*
X140455234Y-79329312D01*
X140455232Y-79329312D01*
X140342720Y-79314500D01*
X140267280Y-79314500D01*
X140267279Y-79314500D01*
X140154767Y-79329312D01*
X140154761Y-79329314D01*
X140014768Y-79387301D01*
X139894551Y-79479547D01*
X139894547Y-79479551D01*
X139802301Y-79599768D01*
X139786098Y-79638886D01*
X139746361Y-79685412D01*
X139694634Y-79700000D01*
X139500000Y-79700000D01*
X139500000Y-79700001D01*
X139500000Y-81801000D01*
X139481093Y-81859191D01*
X139431593Y-81895155D01*
X139401000Y-81900000D01*
X138500000Y-81900000D01*
X138500000Y-81900001D01*
X138500000Y-83101000D01*
X138481093Y-83159191D01*
X138431593Y-83195155D01*
X138401000Y-83200000D01*
X138199000Y-83200000D01*
X138140809Y-83181093D01*
X138104845Y-83131593D01*
X138100000Y-83101000D01*
X138100000Y-76243934D01*
X138118907Y-76185743D01*
X138132575Y-76170526D01*
X139866783Y-74601481D01*
X139922615Y-74576462D01*
X139982494Y-74589040D01*
X139993455Y-74596344D01*
X140014767Y-74612698D01*
X140154764Y-74670687D01*
X140267280Y-74685500D01*
X140267281Y-74685500D01*
X140342719Y-74685500D01*
X140342720Y-74685500D01*
X140455236Y-74670687D01*
X140595233Y-74612698D01*
X140715451Y-74520451D01*
X140807698Y-74400233D01*
X140823695Y-74361614D01*
X140863432Y-74315088D01*
X140915159Y-74300500D01*
X141801000Y-74300500D01*
X141859191Y-74319407D01*
G37*
%TD.AperFunction*%
M02*
