%TF.GenerationSoftware,KiCad,Pcbnew,7.0.8-7.0.8~ubuntu22.04.1*%
%TF.CreationDate,2023-10-30T09:28:17+01:00*%
%TF.ProjectId,usb2serial-autovtg,75736232-7365-4726-9961-6c2d6175746f,rev?*%
%TF.SameCoordinates,Original*%
%TF.FileFunction,Drillmap*%
%TF.FilePolarity,Positive*%
%FSLAX45Y45*%
G04 Gerber Fmt 4.5, Leading zero omitted, Abs format (unit mm)*
G04 Created by KiCad (PCBNEW 7.0.8-7.0.8~ubuntu22.04.1) date 2023-10-30 09:28:17*
%MOMM*%
%LPD*%
G01*
G04 APERTURE LIST*
%ADD10C,0.150000*%
%ADD11C,0.200000*%
%ADD12C,0.030000*%
%ADD13C,0.060000*%
%ADD14C,0.100000*%
G04 APERTURE END LIST*
D10*
X15630000Y-8600000D02*
X13570000Y-8600000D01*
X13570000Y-6800000D02*
X15630000Y-6800000D01*
X15630000Y-8600000D02*
G75*
G03*
X15800000Y-8430000I0J170000D01*
G01*
X13400000Y-8430000D02*
X13400000Y-6970000D01*
X13570000Y-6800000D02*
G75*
G03*
X13400000Y-6970000I0J-170000D01*
G01*
X15800000Y-6970000D02*
G75*
G03*
X15630000Y-6800000I-170000J0D01*
G01*
X13400000Y-8430000D02*
G75*
G03*
X13570000Y-8600000I170000J0D01*
G01*
X15800000Y-6970000D02*
X15800000Y-8430000D01*
D11*
D12*
X13685000Y-7085000D02*
X13715000Y-7115000D01*
X13715000Y-7085000D02*
X13685000Y-7115000D01*
X13715000Y-8205000D02*
X13745000Y-8235000D01*
X13745000Y-8205000D02*
X13715000Y-8235000D01*
X13885000Y-7455000D02*
X13915000Y-7485000D01*
X13915000Y-7455000D02*
X13885000Y-7485000D01*
X13995000Y-7555000D02*
X14025000Y-7585000D01*
X14025000Y-7555000D02*
X13995000Y-7585000D01*
X14205000Y-8275000D02*
X14235000Y-8305000D01*
X14235000Y-8275000D02*
X14205000Y-8305000D01*
X14275000Y-7405000D02*
X14305000Y-7435000D01*
X14305000Y-7405000D02*
X14275000Y-7435000D01*
X14375000Y-7665000D02*
X14405000Y-7695000D01*
X14405000Y-7665000D02*
X14375000Y-7695000D01*
X14375000Y-8175000D02*
X14405000Y-8205000D01*
X14405000Y-8175000D02*
X14375000Y-8205000D01*
X14385000Y-7365000D02*
X14415000Y-7395000D01*
X14415000Y-7365000D02*
X14385000Y-7395000D01*
X14475000Y-7025000D02*
X14505000Y-7055000D01*
X14505000Y-7025000D02*
X14475000Y-7055000D01*
X14625000Y-8245000D02*
X14655000Y-8275000D01*
X14655000Y-8245000D02*
X14625000Y-8275000D01*
X14635000Y-8124850D02*
X14665000Y-8154850D01*
X14665000Y-8124850D02*
X14635000Y-8154850D01*
X14675000Y-7235000D02*
X14705000Y-7265000D01*
X14705000Y-7235000D02*
X14675000Y-7265000D01*
X14705000Y-7745000D02*
X14735000Y-7775000D01*
X14735000Y-7745000D02*
X14705000Y-7775000D01*
X14725000Y-7505000D02*
X14755000Y-7535000D01*
X14755000Y-7505000D02*
X14725000Y-7535000D01*
X14795000Y-7275000D02*
X14825000Y-7305000D01*
X14825000Y-7275000D02*
X14795000Y-7305000D01*
X14805000Y-7985000D02*
X14835000Y-8015000D01*
X14835000Y-7985000D02*
X14805000Y-8015000D01*
X14815000Y-8245000D02*
X14845000Y-8275000D01*
X14845000Y-8245000D02*
X14815000Y-8275000D01*
X14905000Y-7505000D02*
X14935000Y-7535000D01*
X14935000Y-7505000D02*
X14905000Y-7535000D01*
X14995000Y-7305000D02*
X15025000Y-7335000D01*
X15025000Y-7305000D02*
X14995000Y-7335000D01*
X15005000Y-7025000D02*
X15035000Y-7055000D01*
X15035000Y-7025000D02*
X15005000Y-7055000D01*
X15005000Y-7695000D02*
X15035000Y-7725000D01*
X15035000Y-7695000D02*
X15005000Y-7725000D01*
X15125000Y-7125000D02*
X15155000Y-7155000D01*
X15155000Y-7125000D02*
X15125000Y-7155000D01*
X15245000Y-8105000D02*
X15275000Y-8135000D01*
X15275000Y-8105000D02*
X15245000Y-8135000D01*
X15265000Y-7615000D02*
X15295000Y-7645000D01*
X15295000Y-7615000D02*
X15265000Y-7645000D01*
X15275000Y-7055000D02*
X15305000Y-7085000D01*
X15305000Y-7055000D02*
X15275000Y-7085000D01*
X15295000Y-8315000D02*
X15325000Y-8345000D01*
X15325000Y-8315000D02*
X15295000Y-8345000D01*
X15415000Y-8245000D02*
X15445000Y-8275000D01*
X15445000Y-8245000D02*
X15415000Y-8275000D01*
D13*
X13692500Y-7268000D02*
G75*
G03*
X13692500Y-7268000I-30000J0D01*
G01*
D11*
X13702500Y-7238000D02*
X13622500Y-7238000D01*
X13622500Y-7238000D02*
G75*
G03*
X13622500Y-7298000I0J-30000D01*
G01*
X13622500Y-7298000D02*
X13702500Y-7298000D01*
X13702500Y-7298000D02*
G75*
G03*
X13702500Y-7238000I0J30000D01*
G01*
D13*
X13692500Y-8132000D02*
G75*
G03*
X13692500Y-8132000I-30000J0D01*
G01*
D11*
X13702500Y-8102000D02*
X13622500Y-8102000D01*
X13622500Y-8102000D02*
G75*
G03*
X13622500Y-8162000I0J-30000D01*
G01*
X13622500Y-8162000D02*
X13702500Y-8162000D01*
X13702500Y-8162000D02*
G75*
G03*
X13702500Y-8102000I0J30000D01*
G01*
D13*
X14110500Y-7268000D02*
G75*
G03*
X14110500Y-7268000I-30000J0D01*
G01*
D11*
X14135500Y-7238000D02*
X14025500Y-7238000D01*
X14025500Y-7238000D02*
G75*
G03*
X14025500Y-7298000I0J-30000D01*
G01*
X14025500Y-7298000D02*
X14135500Y-7298000D01*
X14135500Y-7298000D02*
G75*
G03*
X14135500Y-7238000I0J30000D01*
G01*
D13*
X14110500Y-8132000D02*
G75*
G03*
X14110500Y-8132000I-30000J0D01*
G01*
D11*
X14135500Y-8102000D02*
X14025500Y-8102000D01*
X14025500Y-8102000D02*
G75*
G03*
X14025500Y-8162000I0J-30000D01*
G01*
X14025500Y-8162000D02*
X14135500Y-8162000D01*
X14135500Y-8162000D02*
G75*
G03*
X14135500Y-8102000I0J30000D01*
G01*
D14*
X15620000Y-7270000D02*
X15620000Y-7370000D01*
X15570000Y-7320000D02*
X15670000Y-7320000D01*
X15620000Y-7524000D02*
X15620000Y-7624000D01*
X15570000Y-7574000D02*
X15670000Y-7574000D01*
X15620000Y-7778000D02*
X15620000Y-7878000D01*
X15570000Y-7828000D02*
X15670000Y-7828000D01*
X15620000Y-8032000D02*
X15620000Y-8132000D01*
X15570000Y-8082000D02*
X15670000Y-8082000D01*
D11*
X13653277Y-8918984D02*
X13653277Y-8718984D01*
X13653277Y-8718984D02*
X13700896Y-8718984D01*
X13700896Y-8718984D02*
X13729467Y-8728508D01*
X13729467Y-8728508D02*
X13748515Y-8747555D01*
X13748515Y-8747555D02*
X13758039Y-8766603D01*
X13758039Y-8766603D02*
X13767562Y-8804698D01*
X13767562Y-8804698D02*
X13767562Y-8833270D01*
X13767562Y-8833270D02*
X13758039Y-8871365D01*
X13758039Y-8871365D02*
X13748515Y-8890412D01*
X13748515Y-8890412D02*
X13729467Y-8909460D01*
X13729467Y-8909460D02*
X13700896Y-8918984D01*
X13700896Y-8918984D02*
X13653277Y-8918984D01*
X13853277Y-8918984D02*
X13853277Y-8785650D01*
X13853277Y-8823746D02*
X13862801Y-8804698D01*
X13862801Y-8804698D02*
X13872324Y-8795174D01*
X13872324Y-8795174D02*
X13891372Y-8785650D01*
X13891372Y-8785650D02*
X13910420Y-8785650D01*
X13977086Y-8918984D02*
X13977086Y-8785650D01*
X13977086Y-8718984D02*
X13967562Y-8728508D01*
X13967562Y-8728508D02*
X13977086Y-8738031D01*
X13977086Y-8738031D02*
X13986610Y-8728508D01*
X13986610Y-8728508D02*
X13977086Y-8718984D01*
X13977086Y-8718984D02*
X13977086Y-8738031D01*
X14100896Y-8918984D02*
X14081848Y-8909460D01*
X14081848Y-8909460D02*
X14072324Y-8890412D01*
X14072324Y-8890412D02*
X14072324Y-8718984D01*
X14205658Y-8918984D02*
X14186610Y-8909460D01*
X14186610Y-8909460D02*
X14177086Y-8890412D01*
X14177086Y-8890412D02*
X14177086Y-8718984D01*
X14434229Y-8918984D02*
X14434229Y-8718984D01*
X14434229Y-8718984D02*
X14500896Y-8861841D01*
X14500896Y-8861841D02*
X14567562Y-8718984D01*
X14567562Y-8718984D02*
X14567562Y-8918984D01*
X14748515Y-8918984D02*
X14748515Y-8814222D01*
X14748515Y-8814222D02*
X14738991Y-8795174D01*
X14738991Y-8795174D02*
X14719943Y-8785650D01*
X14719943Y-8785650D02*
X14681848Y-8785650D01*
X14681848Y-8785650D02*
X14662801Y-8795174D01*
X14748515Y-8909460D02*
X14729467Y-8918984D01*
X14729467Y-8918984D02*
X14681848Y-8918984D01*
X14681848Y-8918984D02*
X14662801Y-8909460D01*
X14662801Y-8909460D02*
X14653277Y-8890412D01*
X14653277Y-8890412D02*
X14653277Y-8871365D01*
X14653277Y-8871365D02*
X14662801Y-8852317D01*
X14662801Y-8852317D02*
X14681848Y-8842793D01*
X14681848Y-8842793D02*
X14729467Y-8842793D01*
X14729467Y-8842793D02*
X14748515Y-8833270D01*
X14843753Y-8785650D02*
X14843753Y-8985650D01*
X14843753Y-8795174D02*
X14862801Y-8785650D01*
X14862801Y-8785650D02*
X14900896Y-8785650D01*
X14900896Y-8785650D02*
X14919943Y-8795174D01*
X14919943Y-8795174D02*
X14929467Y-8804698D01*
X14929467Y-8804698D02*
X14938991Y-8823746D01*
X14938991Y-8823746D02*
X14938991Y-8880889D01*
X14938991Y-8880889D02*
X14929467Y-8899936D01*
X14929467Y-8899936D02*
X14919943Y-8909460D01*
X14919943Y-8909460D02*
X14900896Y-8918984D01*
X14900896Y-8918984D02*
X14862801Y-8918984D01*
X14862801Y-8918984D02*
X14843753Y-8909460D01*
X15024705Y-8899936D02*
X15034229Y-8909460D01*
X15034229Y-8909460D02*
X15024705Y-8918984D01*
X15024705Y-8918984D02*
X15015182Y-8909460D01*
X15015182Y-8909460D02*
X15024705Y-8899936D01*
X15024705Y-8899936D02*
X15024705Y-8918984D01*
X15024705Y-8795174D02*
X15034229Y-8804698D01*
X15034229Y-8804698D02*
X15024705Y-8814222D01*
X15024705Y-8814222D02*
X15015182Y-8804698D01*
X15015182Y-8804698D02*
X15024705Y-8795174D01*
X15024705Y-8795174D02*
X15024705Y-8814222D01*
D12*
X13362500Y-9232500D02*
X13392500Y-9262500D01*
X13392500Y-9232500D02*
X13362500Y-9262500D01*
D11*
X13691372Y-9138984D02*
X13710420Y-9138984D01*
X13710420Y-9138984D02*
X13729467Y-9148508D01*
X13729467Y-9148508D02*
X13738991Y-9158031D01*
X13738991Y-9158031D02*
X13748515Y-9177079D01*
X13748515Y-9177079D02*
X13758039Y-9215174D01*
X13758039Y-9215174D02*
X13758039Y-9262793D01*
X13758039Y-9262793D02*
X13748515Y-9300889D01*
X13748515Y-9300889D02*
X13738991Y-9319936D01*
X13738991Y-9319936D02*
X13729467Y-9329460D01*
X13729467Y-9329460D02*
X13710420Y-9338984D01*
X13710420Y-9338984D02*
X13691372Y-9338984D01*
X13691372Y-9338984D02*
X13672324Y-9329460D01*
X13672324Y-9329460D02*
X13662801Y-9319936D01*
X13662801Y-9319936D02*
X13653277Y-9300889D01*
X13653277Y-9300889D02*
X13643753Y-9262793D01*
X13643753Y-9262793D02*
X13643753Y-9215174D01*
X13643753Y-9215174D02*
X13653277Y-9177079D01*
X13653277Y-9177079D02*
X13662801Y-9158031D01*
X13662801Y-9158031D02*
X13672324Y-9148508D01*
X13672324Y-9148508D02*
X13691372Y-9138984D01*
X13843753Y-9319936D02*
X13853277Y-9329460D01*
X13853277Y-9329460D02*
X13843753Y-9338984D01*
X13843753Y-9338984D02*
X13834229Y-9329460D01*
X13834229Y-9329460D02*
X13843753Y-9319936D01*
X13843753Y-9319936D02*
X13843753Y-9338984D01*
X13919943Y-9138984D02*
X14043753Y-9138984D01*
X14043753Y-9138984D02*
X13977086Y-9215174D01*
X13977086Y-9215174D02*
X14005658Y-9215174D01*
X14005658Y-9215174D02*
X14024705Y-9224698D01*
X14024705Y-9224698D02*
X14034229Y-9234222D01*
X14034229Y-9234222D02*
X14043753Y-9253270D01*
X14043753Y-9253270D02*
X14043753Y-9300889D01*
X14043753Y-9300889D02*
X14034229Y-9319936D01*
X14034229Y-9319936D02*
X14024705Y-9329460D01*
X14024705Y-9329460D02*
X14005658Y-9338984D01*
X14005658Y-9338984D02*
X13948515Y-9338984D01*
X13948515Y-9338984D02*
X13929467Y-9329460D01*
X13929467Y-9329460D02*
X13919943Y-9319936D01*
X14167562Y-9138984D02*
X14186610Y-9138984D01*
X14186610Y-9138984D02*
X14205658Y-9148508D01*
X14205658Y-9148508D02*
X14215182Y-9158031D01*
X14215182Y-9158031D02*
X14224705Y-9177079D01*
X14224705Y-9177079D02*
X14234229Y-9215174D01*
X14234229Y-9215174D02*
X14234229Y-9262793D01*
X14234229Y-9262793D02*
X14224705Y-9300889D01*
X14224705Y-9300889D02*
X14215182Y-9319936D01*
X14215182Y-9319936D02*
X14205658Y-9329460D01*
X14205658Y-9329460D02*
X14186610Y-9338984D01*
X14186610Y-9338984D02*
X14167562Y-9338984D01*
X14167562Y-9338984D02*
X14148515Y-9329460D01*
X14148515Y-9329460D02*
X14138991Y-9319936D01*
X14138991Y-9319936D02*
X14129467Y-9300889D01*
X14129467Y-9300889D02*
X14119943Y-9262793D01*
X14119943Y-9262793D02*
X14119943Y-9215174D01*
X14119943Y-9215174D02*
X14129467Y-9177079D01*
X14129467Y-9177079D02*
X14138991Y-9158031D01*
X14138991Y-9158031D02*
X14148515Y-9148508D01*
X14148515Y-9148508D02*
X14167562Y-9138984D01*
X14358039Y-9138984D02*
X14377086Y-9138984D01*
X14377086Y-9138984D02*
X14396134Y-9148508D01*
X14396134Y-9148508D02*
X14405658Y-9158031D01*
X14405658Y-9158031D02*
X14415182Y-9177079D01*
X14415182Y-9177079D02*
X14424705Y-9215174D01*
X14424705Y-9215174D02*
X14424705Y-9262793D01*
X14424705Y-9262793D02*
X14415182Y-9300889D01*
X14415182Y-9300889D02*
X14405658Y-9319936D01*
X14405658Y-9319936D02*
X14396134Y-9329460D01*
X14396134Y-9329460D02*
X14377086Y-9338984D01*
X14377086Y-9338984D02*
X14358039Y-9338984D01*
X14358039Y-9338984D02*
X14338991Y-9329460D01*
X14338991Y-9329460D02*
X14329467Y-9319936D01*
X14329467Y-9319936D02*
X14319943Y-9300889D01*
X14319943Y-9300889D02*
X14310420Y-9262793D01*
X14310420Y-9262793D02*
X14310420Y-9215174D01*
X14310420Y-9215174D02*
X14319943Y-9177079D01*
X14319943Y-9177079D02*
X14329467Y-9158031D01*
X14329467Y-9158031D02*
X14338991Y-9148508D01*
X14338991Y-9148508D02*
X14358039Y-9138984D01*
X14510420Y-9338984D02*
X14510420Y-9205650D01*
X14510420Y-9224698D02*
X14519943Y-9215174D01*
X14519943Y-9215174D02*
X14538991Y-9205650D01*
X14538991Y-9205650D02*
X14567563Y-9205650D01*
X14567563Y-9205650D02*
X14586610Y-9215174D01*
X14586610Y-9215174D02*
X14596134Y-9234222D01*
X14596134Y-9234222D02*
X14596134Y-9338984D01*
X14596134Y-9234222D02*
X14605658Y-9215174D01*
X14605658Y-9215174D02*
X14624705Y-9205650D01*
X14624705Y-9205650D02*
X14653277Y-9205650D01*
X14653277Y-9205650D02*
X14672324Y-9215174D01*
X14672324Y-9215174D02*
X14681848Y-9234222D01*
X14681848Y-9234222D02*
X14681848Y-9338984D01*
X14777086Y-9338984D02*
X14777086Y-9205650D01*
X14777086Y-9224698D02*
X14786610Y-9215174D01*
X14786610Y-9215174D02*
X14805658Y-9205650D01*
X14805658Y-9205650D02*
X14834229Y-9205650D01*
X14834229Y-9205650D02*
X14853277Y-9215174D01*
X14853277Y-9215174D02*
X14862801Y-9234222D01*
X14862801Y-9234222D02*
X14862801Y-9338984D01*
X14862801Y-9234222D02*
X14872324Y-9215174D01*
X14872324Y-9215174D02*
X14891372Y-9205650D01*
X14891372Y-9205650D02*
X14919943Y-9205650D01*
X14919943Y-9205650D02*
X14938991Y-9215174D01*
X14938991Y-9215174D02*
X14948515Y-9234222D01*
X14948515Y-9234222D02*
X14948515Y-9338984D01*
X15338991Y-9129460D02*
X15167563Y-9386603D01*
X15596134Y-9138984D02*
X15615182Y-9138984D01*
X15615182Y-9138984D02*
X15634229Y-9148508D01*
X15634229Y-9148508D02*
X15643753Y-9158031D01*
X15643753Y-9158031D02*
X15653277Y-9177079D01*
X15653277Y-9177079D02*
X15662801Y-9215174D01*
X15662801Y-9215174D02*
X15662801Y-9262793D01*
X15662801Y-9262793D02*
X15653277Y-9300889D01*
X15653277Y-9300889D02*
X15643753Y-9319936D01*
X15643753Y-9319936D02*
X15634229Y-9329460D01*
X15634229Y-9329460D02*
X15615182Y-9338984D01*
X15615182Y-9338984D02*
X15596134Y-9338984D01*
X15596134Y-9338984D02*
X15577086Y-9329460D01*
X15577086Y-9329460D02*
X15567563Y-9319936D01*
X15567563Y-9319936D02*
X15558039Y-9300889D01*
X15558039Y-9300889D02*
X15548515Y-9262793D01*
X15548515Y-9262793D02*
X15548515Y-9215174D01*
X15548515Y-9215174D02*
X15558039Y-9177079D01*
X15558039Y-9177079D02*
X15567563Y-9158031D01*
X15567563Y-9158031D02*
X15577086Y-9148508D01*
X15577086Y-9148508D02*
X15596134Y-9138984D01*
X15748515Y-9319936D02*
X15758039Y-9329460D01*
X15758039Y-9329460D02*
X15748515Y-9338984D01*
X15748515Y-9338984D02*
X15738991Y-9329460D01*
X15738991Y-9329460D02*
X15748515Y-9319936D01*
X15748515Y-9319936D02*
X15748515Y-9338984D01*
X15881848Y-9138984D02*
X15900896Y-9138984D01*
X15900896Y-9138984D02*
X15919944Y-9148508D01*
X15919944Y-9148508D02*
X15929467Y-9158031D01*
X15929467Y-9158031D02*
X15938991Y-9177079D01*
X15938991Y-9177079D02*
X15948515Y-9215174D01*
X15948515Y-9215174D02*
X15948515Y-9262793D01*
X15948515Y-9262793D02*
X15938991Y-9300889D01*
X15938991Y-9300889D02*
X15929467Y-9319936D01*
X15929467Y-9319936D02*
X15919944Y-9329460D01*
X15919944Y-9329460D02*
X15900896Y-9338984D01*
X15900896Y-9338984D02*
X15881848Y-9338984D01*
X15881848Y-9338984D02*
X15862801Y-9329460D01*
X15862801Y-9329460D02*
X15853277Y-9319936D01*
X15853277Y-9319936D02*
X15843753Y-9300889D01*
X15843753Y-9300889D02*
X15834229Y-9262793D01*
X15834229Y-9262793D02*
X15834229Y-9215174D01*
X15834229Y-9215174D02*
X15843753Y-9177079D01*
X15843753Y-9177079D02*
X15853277Y-9158031D01*
X15853277Y-9158031D02*
X15862801Y-9148508D01*
X15862801Y-9148508D02*
X15881848Y-9138984D01*
X16138991Y-9338984D02*
X16024706Y-9338984D01*
X16081848Y-9338984D02*
X16081848Y-9138984D01*
X16081848Y-9138984D02*
X16062801Y-9167555D01*
X16062801Y-9167555D02*
X16043753Y-9186603D01*
X16043753Y-9186603D02*
X16024706Y-9196127D01*
X16329467Y-9338984D02*
X16215182Y-9338984D01*
X16272325Y-9338984D02*
X16272325Y-9138984D01*
X16272325Y-9138984D02*
X16253277Y-9167555D01*
X16253277Y-9167555D02*
X16234229Y-9186603D01*
X16234229Y-9186603D02*
X16215182Y-9196127D01*
X16443753Y-9224698D02*
X16424706Y-9215174D01*
X16424706Y-9215174D02*
X16415182Y-9205650D01*
X16415182Y-9205650D02*
X16405658Y-9186603D01*
X16405658Y-9186603D02*
X16405658Y-9177079D01*
X16405658Y-9177079D02*
X16415182Y-9158031D01*
X16415182Y-9158031D02*
X16424706Y-9148508D01*
X16424706Y-9148508D02*
X16443753Y-9138984D01*
X16443753Y-9138984D02*
X16481848Y-9138984D01*
X16481848Y-9138984D02*
X16500896Y-9148508D01*
X16500896Y-9148508D02*
X16510420Y-9158031D01*
X16510420Y-9158031D02*
X16519944Y-9177079D01*
X16519944Y-9177079D02*
X16519944Y-9186603D01*
X16519944Y-9186603D02*
X16510420Y-9205650D01*
X16510420Y-9205650D02*
X16500896Y-9215174D01*
X16500896Y-9215174D02*
X16481848Y-9224698D01*
X16481848Y-9224698D02*
X16443753Y-9224698D01*
X16443753Y-9224698D02*
X16424706Y-9234222D01*
X16424706Y-9234222D02*
X16415182Y-9243746D01*
X16415182Y-9243746D02*
X16405658Y-9262793D01*
X16405658Y-9262793D02*
X16405658Y-9300889D01*
X16405658Y-9300889D02*
X16415182Y-9319936D01*
X16415182Y-9319936D02*
X16424706Y-9329460D01*
X16424706Y-9329460D02*
X16443753Y-9338984D01*
X16443753Y-9338984D02*
X16481848Y-9338984D01*
X16481848Y-9338984D02*
X16500896Y-9329460D01*
X16500896Y-9329460D02*
X16510420Y-9319936D01*
X16510420Y-9319936D02*
X16519944Y-9300889D01*
X16519944Y-9300889D02*
X16519944Y-9262793D01*
X16519944Y-9262793D02*
X16510420Y-9243746D01*
X16510420Y-9243746D02*
X16500896Y-9234222D01*
X16500896Y-9234222D02*
X16481848Y-9224698D01*
X16596134Y-9138984D02*
X16596134Y-9177079D01*
X16672325Y-9138984D02*
X16672325Y-9177079D01*
X16967563Y-9415174D02*
X16958039Y-9405650D01*
X16958039Y-9405650D02*
X16938991Y-9377079D01*
X16938991Y-9377079D02*
X16929468Y-9358031D01*
X16929468Y-9358031D02*
X16919944Y-9329460D01*
X16919944Y-9329460D02*
X16910420Y-9281841D01*
X16910420Y-9281841D02*
X16910420Y-9243746D01*
X16910420Y-9243746D02*
X16919944Y-9196127D01*
X16919944Y-9196127D02*
X16929468Y-9167555D01*
X16929468Y-9167555D02*
X16938991Y-9148508D01*
X16938991Y-9148508D02*
X16958039Y-9119936D01*
X16958039Y-9119936D02*
X16967563Y-9110412D01*
X17034230Y-9158031D02*
X17043753Y-9148508D01*
X17043753Y-9148508D02*
X17062801Y-9138984D01*
X17062801Y-9138984D02*
X17110420Y-9138984D01*
X17110420Y-9138984D02*
X17129468Y-9148508D01*
X17129468Y-9148508D02*
X17138991Y-9158031D01*
X17138991Y-9158031D02*
X17148515Y-9177079D01*
X17148515Y-9177079D02*
X17148515Y-9196127D01*
X17148515Y-9196127D02*
X17138991Y-9224698D01*
X17138991Y-9224698D02*
X17024706Y-9338984D01*
X17024706Y-9338984D02*
X17148515Y-9338984D01*
X17262801Y-9224698D02*
X17243753Y-9215174D01*
X17243753Y-9215174D02*
X17234230Y-9205650D01*
X17234230Y-9205650D02*
X17224706Y-9186603D01*
X17224706Y-9186603D02*
X17224706Y-9177079D01*
X17224706Y-9177079D02*
X17234230Y-9158031D01*
X17234230Y-9158031D02*
X17243753Y-9148508D01*
X17243753Y-9148508D02*
X17262801Y-9138984D01*
X17262801Y-9138984D02*
X17300896Y-9138984D01*
X17300896Y-9138984D02*
X17319944Y-9148508D01*
X17319944Y-9148508D02*
X17329468Y-9158031D01*
X17329468Y-9158031D02*
X17338991Y-9177079D01*
X17338991Y-9177079D02*
X17338991Y-9186603D01*
X17338991Y-9186603D02*
X17329468Y-9205650D01*
X17329468Y-9205650D02*
X17319944Y-9215174D01*
X17319944Y-9215174D02*
X17300896Y-9224698D01*
X17300896Y-9224698D02*
X17262801Y-9224698D01*
X17262801Y-9224698D02*
X17243753Y-9234222D01*
X17243753Y-9234222D02*
X17234230Y-9243746D01*
X17234230Y-9243746D02*
X17224706Y-9262793D01*
X17224706Y-9262793D02*
X17224706Y-9300889D01*
X17224706Y-9300889D02*
X17234230Y-9319936D01*
X17234230Y-9319936D02*
X17243753Y-9329460D01*
X17243753Y-9329460D02*
X17262801Y-9338984D01*
X17262801Y-9338984D02*
X17300896Y-9338984D01*
X17300896Y-9338984D02*
X17319944Y-9329460D01*
X17319944Y-9329460D02*
X17329468Y-9319936D01*
X17329468Y-9319936D02*
X17338991Y-9300889D01*
X17338991Y-9300889D02*
X17338991Y-9262793D01*
X17338991Y-9262793D02*
X17329468Y-9243746D01*
X17329468Y-9243746D02*
X17319944Y-9234222D01*
X17319944Y-9234222D02*
X17300896Y-9224698D01*
X17577087Y-9338984D02*
X17577087Y-9138984D01*
X17662801Y-9338984D02*
X17662801Y-9234222D01*
X17662801Y-9234222D02*
X17653277Y-9215174D01*
X17653277Y-9215174D02*
X17634230Y-9205650D01*
X17634230Y-9205650D02*
X17605658Y-9205650D01*
X17605658Y-9205650D02*
X17586611Y-9215174D01*
X17586611Y-9215174D02*
X17577087Y-9224698D01*
X17786611Y-9338984D02*
X17767563Y-9329460D01*
X17767563Y-9329460D02*
X17758039Y-9319936D01*
X17758039Y-9319936D02*
X17748515Y-9300889D01*
X17748515Y-9300889D02*
X17748515Y-9243746D01*
X17748515Y-9243746D02*
X17758039Y-9224698D01*
X17758039Y-9224698D02*
X17767563Y-9215174D01*
X17767563Y-9215174D02*
X17786611Y-9205650D01*
X17786611Y-9205650D02*
X17815182Y-9205650D01*
X17815182Y-9205650D02*
X17834230Y-9215174D01*
X17834230Y-9215174D02*
X17843753Y-9224698D01*
X17843753Y-9224698D02*
X17853277Y-9243746D01*
X17853277Y-9243746D02*
X17853277Y-9300889D01*
X17853277Y-9300889D02*
X17843753Y-9319936D01*
X17843753Y-9319936D02*
X17834230Y-9329460D01*
X17834230Y-9329460D02*
X17815182Y-9338984D01*
X17815182Y-9338984D02*
X17786611Y-9338984D01*
X17967563Y-9338984D02*
X17948515Y-9329460D01*
X17948515Y-9329460D02*
X17938992Y-9310412D01*
X17938992Y-9310412D02*
X17938992Y-9138984D01*
X18119944Y-9329460D02*
X18100896Y-9338984D01*
X18100896Y-9338984D02*
X18062801Y-9338984D01*
X18062801Y-9338984D02*
X18043753Y-9329460D01*
X18043753Y-9329460D02*
X18034230Y-9310412D01*
X18034230Y-9310412D02*
X18034230Y-9234222D01*
X18034230Y-9234222D02*
X18043753Y-9215174D01*
X18043753Y-9215174D02*
X18062801Y-9205650D01*
X18062801Y-9205650D02*
X18100896Y-9205650D01*
X18100896Y-9205650D02*
X18119944Y-9215174D01*
X18119944Y-9215174D02*
X18129468Y-9234222D01*
X18129468Y-9234222D02*
X18129468Y-9253270D01*
X18129468Y-9253270D02*
X18034230Y-9272317D01*
X18205658Y-9329460D02*
X18224706Y-9338984D01*
X18224706Y-9338984D02*
X18262801Y-9338984D01*
X18262801Y-9338984D02*
X18281849Y-9329460D01*
X18281849Y-9329460D02*
X18291373Y-9310412D01*
X18291373Y-9310412D02*
X18291373Y-9300889D01*
X18291373Y-9300889D02*
X18281849Y-9281841D01*
X18281849Y-9281841D02*
X18262801Y-9272317D01*
X18262801Y-9272317D02*
X18234230Y-9272317D01*
X18234230Y-9272317D02*
X18215182Y-9262793D01*
X18215182Y-9262793D02*
X18205658Y-9243746D01*
X18205658Y-9243746D02*
X18205658Y-9234222D01*
X18205658Y-9234222D02*
X18215182Y-9215174D01*
X18215182Y-9215174D02*
X18234230Y-9205650D01*
X18234230Y-9205650D02*
X18262801Y-9205650D01*
X18262801Y-9205650D02*
X18281849Y-9215174D01*
X18358039Y-9415174D02*
X18367563Y-9405650D01*
X18367563Y-9405650D02*
X18386611Y-9377079D01*
X18386611Y-9377079D02*
X18396134Y-9358031D01*
X18396134Y-9358031D02*
X18405658Y-9329460D01*
X18405658Y-9329460D02*
X18415182Y-9281841D01*
X18415182Y-9281841D02*
X18415182Y-9243746D01*
X18415182Y-9243746D02*
X18405658Y-9196127D01*
X18405658Y-9196127D02*
X18396134Y-9167555D01*
X18396134Y-9167555D02*
X18386611Y-9148508D01*
X18386611Y-9148508D02*
X18367563Y-9119936D01*
X18367563Y-9119936D02*
X18358039Y-9110412D01*
D13*
X13392500Y-9511500D02*
G75*
G03*
X13392500Y-9511500I-30000J0D01*
G01*
D11*
X13691372Y-9402984D02*
X13710420Y-9402984D01*
X13710420Y-9402984D02*
X13729467Y-9412508D01*
X13729467Y-9412508D02*
X13738991Y-9422031D01*
X13738991Y-9422031D02*
X13748515Y-9441079D01*
X13748515Y-9441079D02*
X13758039Y-9479174D01*
X13758039Y-9479174D02*
X13758039Y-9526793D01*
X13758039Y-9526793D02*
X13748515Y-9564889D01*
X13748515Y-9564889D02*
X13738991Y-9583936D01*
X13738991Y-9583936D02*
X13729467Y-9593460D01*
X13729467Y-9593460D02*
X13710420Y-9602984D01*
X13710420Y-9602984D02*
X13691372Y-9602984D01*
X13691372Y-9602984D02*
X13672324Y-9593460D01*
X13672324Y-9593460D02*
X13662801Y-9583936D01*
X13662801Y-9583936D02*
X13653277Y-9564889D01*
X13653277Y-9564889D02*
X13643753Y-9526793D01*
X13643753Y-9526793D02*
X13643753Y-9479174D01*
X13643753Y-9479174D02*
X13653277Y-9441079D01*
X13653277Y-9441079D02*
X13662801Y-9422031D01*
X13662801Y-9422031D02*
X13672324Y-9412508D01*
X13672324Y-9412508D02*
X13691372Y-9402984D01*
X13843753Y-9583936D02*
X13853277Y-9593460D01*
X13853277Y-9593460D02*
X13843753Y-9602984D01*
X13843753Y-9602984D02*
X13834229Y-9593460D01*
X13834229Y-9593460D02*
X13843753Y-9583936D01*
X13843753Y-9583936D02*
X13843753Y-9602984D01*
X14024705Y-9402984D02*
X13986610Y-9402984D01*
X13986610Y-9402984D02*
X13967562Y-9412508D01*
X13967562Y-9412508D02*
X13958039Y-9422031D01*
X13958039Y-9422031D02*
X13938991Y-9450603D01*
X13938991Y-9450603D02*
X13929467Y-9488698D01*
X13929467Y-9488698D02*
X13929467Y-9564889D01*
X13929467Y-9564889D02*
X13938991Y-9583936D01*
X13938991Y-9583936D02*
X13948515Y-9593460D01*
X13948515Y-9593460D02*
X13967562Y-9602984D01*
X13967562Y-9602984D02*
X14005658Y-9602984D01*
X14005658Y-9602984D02*
X14024705Y-9593460D01*
X14024705Y-9593460D02*
X14034229Y-9583936D01*
X14034229Y-9583936D02*
X14043753Y-9564889D01*
X14043753Y-9564889D02*
X14043753Y-9517270D01*
X14043753Y-9517270D02*
X14034229Y-9498222D01*
X14034229Y-9498222D02*
X14024705Y-9488698D01*
X14024705Y-9488698D02*
X14005658Y-9479174D01*
X14005658Y-9479174D02*
X13967562Y-9479174D01*
X13967562Y-9479174D02*
X13948515Y-9488698D01*
X13948515Y-9488698D02*
X13938991Y-9498222D01*
X13938991Y-9498222D02*
X13929467Y-9517270D01*
X14167562Y-9402984D02*
X14186610Y-9402984D01*
X14186610Y-9402984D02*
X14205658Y-9412508D01*
X14205658Y-9412508D02*
X14215182Y-9422031D01*
X14215182Y-9422031D02*
X14224705Y-9441079D01*
X14224705Y-9441079D02*
X14234229Y-9479174D01*
X14234229Y-9479174D02*
X14234229Y-9526793D01*
X14234229Y-9526793D02*
X14224705Y-9564889D01*
X14224705Y-9564889D02*
X14215182Y-9583936D01*
X14215182Y-9583936D02*
X14205658Y-9593460D01*
X14205658Y-9593460D02*
X14186610Y-9602984D01*
X14186610Y-9602984D02*
X14167562Y-9602984D01*
X14167562Y-9602984D02*
X14148515Y-9593460D01*
X14148515Y-9593460D02*
X14138991Y-9583936D01*
X14138991Y-9583936D02*
X14129467Y-9564889D01*
X14129467Y-9564889D02*
X14119943Y-9526793D01*
X14119943Y-9526793D02*
X14119943Y-9479174D01*
X14119943Y-9479174D02*
X14129467Y-9441079D01*
X14129467Y-9441079D02*
X14138991Y-9422031D01*
X14138991Y-9422031D02*
X14148515Y-9412508D01*
X14148515Y-9412508D02*
X14167562Y-9402984D01*
X14358039Y-9402984D02*
X14377086Y-9402984D01*
X14377086Y-9402984D02*
X14396134Y-9412508D01*
X14396134Y-9412508D02*
X14405658Y-9422031D01*
X14405658Y-9422031D02*
X14415182Y-9441079D01*
X14415182Y-9441079D02*
X14424705Y-9479174D01*
X14424705Y-9479174D02*
X14424705Y-9526793D01*
X14424705Y-9526793D02*
X14415182Y-9564889D01*
X14415182Y-9564889D02*
X14405658Y-9583936D01*
X14405658Y-9583936D02*
X14396134Y-9593460D01*
X14396134Y-9593460D02*
X14377086Y-9602984D01*
X14377086Y-9602984D02*
X14358039Y-9602984D01*
X14358039Y-9602984D02*
X14338991Y-9593460D01*
X14338991Y-9593460D02*
X14329467Y-9583936D01*
X14329467Y-9583936D02*
X14319943Y-9564889D01*
X14319943Y-9564889D02*
X14310420Y-9526793D01*
X14310420Y-9526793D02*
X14310420Y-9479174D01*
X14310420Y-9479174D02*
X14319943Y-9441079D01*
X14319943Y-9441079D02*
X14329467Y-9422031D01*
X14329467Y-9422031D02*
X14338991Y-9412508D01*
X14338991Y-9412508D02*
X14358039Y-9402984D01*
X14510420Y-9602984D02*
X14510420Y-9469650D01*
X14510420Y-9488698D02*
X14519943Y-9479174D01*
X14519943Y-9479174D02*
X14538991Y-9469650D01*
X14538991Y-9469650D02*
X14567563Y-9469650D01*
X14567563Y-9469650D02*
X14586610Y-9479174D01*
X14586610Y-9479174D02*
X14596134Y-9498222D01*
X14596134Y-9498222D02*
X14596134Y-9602984D01*
X14596134Y-9498222D02*
X14605658Y-9479174D01*
X14605658Y-9479174D02*
X14624705Y-9469650D01*
X14624705Y-9469650D02*
X14653277Y-9469650D01*
X14653277Y-9469650D02*
X14672324Y-9479174D01*
X14672324Y-9479174D02*
X14681848Y-9498222D01*
X14681848Y-9498222D02*
X14681848Y-9602984D01*
X14777086Y-9602984D02*
X14777086Y-9469650D01*
X14777086Y-9488698D02*
X14786610Y-9479174D01*
X14786610Y-9479174D02*
X14805658Y-9469650D01*
X14805658Y-9469650D02*
X14834229Y-9469650D01*
X14834229Y-9469650D02*
X14853277Y-9479174D01*
X14853277Y-9479174D02*
X14862801Y-9498222D01*
X14862801Y-9498222D02*
X14862801Y-9602984D01*
X14862801Y-9498222D02*
X14872324Y-9479174D01*
X14872324Y-9479174D02*
X14891372Y-9469650D01*
X14891372Y-9469650D02*
X14919943Y-9469650D01*
X14919943Y-9469650D02*
X14938991Y-9479174D01*
X14938991Y-9479174D02*
X14948515Y-9498222D01*
X14948515Y-9498222D02*
X14948515Y-9602984D01*
X15338991Y-9393460D02*
X15167563Y-9650603D01*
X15596134Y-9402984D02*
X15615182Y-9402984D01*
X15615182Y-9402984D02*
X15634229Y-9412508D01*
X15634229Y-9412508D02*
X15643753Y-9422031D01*
X15643753Y-9422031D02*
X15653277Y-9441079D01*
X15653277Y-9441079D02*
X15662801Y-9479174D01*
X15662801Y-9479174D02*
X15662801Y-9526793D01*
X15662801Y-9526793D02*
X15653277Y-9564889D01*
X15653277Y-9564889D02*
X15643753Y-9583936D01*
X15643753Y-9583936D02*
X15634229Y-9593460D01*
X15634229Y-9593460D02*
X15615182Y-9602984D01*
X15615182Y-9602984D02*
X15596134Y-9602984D01*
X15596134Y-9602984D02*
X15577086Y-9593460D01*
X15577086Y-9593460D02*
X15567563Y-9583936D01*
X15567563Y-9583936D02*
X15558039Y-9564889D01*
X15558039Y-9564889D02*
X15548515Y-9526793D01*
X15548515Y-9526793D02*
X15548515Y-9479174D01*
X15548515Y-9479174D02*
X15558039Y-9441079D01*
X15558039Y-9441079D02*
X15567563Y-9422031D01*
X15567563Y-9422031D02*
X15577086Y-9412508D01*
X15577086Y-9412508D02*
X15596134Y-9402984D01*
X15748515Y-9583936D02*
X15758039Y-9593460D01*
X15758039Y-9593460D02*
X15748515Y-9602984D01*
X15748515Y-9602984D02*
X15738991Y-9593460D01*
X15738991Y-9593460D02*
X15748515Y-9583936D01*
X15748515Y-9583936D02*
X15748515Y-9602984D01*
X15881848Y-9402984D02*
X15900896Y-9402984D01*
X15900896Y-9402984D02*
X15919944Y-9412508D01*
X15919944Y-9412508D02*
X15929467Y-9422031D01*
X15929467Y-9422031D02*
X15938991Y-9441079D01*
X15938991Y-9441079D02*
X15948515Y-9479174D01*
X15948515Y-9479174D02*
X15948515Y-9526793D01*
X15948515Y-9526793D02*
X15938991Y-9564889D01*
X15938991Y-9564889D02*
X15929467Y-9583936D01*
X15929467Y-9583936D02*
X15919944Y-9593460D01*
X15919944Y-9593460D02*
X15900896Y-9602984D01*
X15900896Y-9602984D02*
X15881848Y-9602984D01*
X15881848Y-9602984D02*
X15862801Y-9593460D01*
X15862801Y-9593460D02*
X15853277Y-9583936D01*
X15853277Y-9583936D02*
X15843753Y-9564889D01*
X15843753Y-9564889D02*
X15834229Y-9526793D01*
X15834229Y-9526793D02*
X15834229Y-9479174D01*
X15834229Y-9479174D02*
X15843753Y-9441079D01*
X15843753Y-9441079D02*
X15853277Y-9422031D01*
X15853277Y-9422031D02*
X15862801Y-9412508D01*
X15862801Y-9412508D02*
X15881848Y-9402984D01*
X16024706Y-9422031D02*
X16034229Y-9412508D01*
X16034229Y-9412508D02*
X16053277Y-9402984D01*
X16053277Y-9402984D02*
X16100896Y-9402984D01*
X16100896Y-9402984D02*
X16119944Y-9412508D01*
X16119944Y-9412508D02*
X16129467Y-9422031D01*
X16129467Y-9422031D02*
X16138991Y-9441079D01*
X16138991Y-9441079D02*
X16138991Y-9460127D01*
X16138991Y-9460127D02*
X16129467Y-9488698D01*
X16129467Y-9488698D02*
X16015182Y-9602984D01*
X16015182Y-9602984D02*
X16138991Y-9602984D01*
X16205658Y-9402984D02*
X16329467Y-9402984D01*
X16329467Y-9402984D02*
X16262801Y-9479174D01*
X16262801Y-9479174D02*
X16291372Y-9479174D01*
X16291372Y-9479174D02*
X16310420Y-9488698D01*
X16310420Y-9488698D02*
X16319944Y-9498222D01*
X16319944Y-9498222D02*
X16329467Y-9517270D01*
X16329467Y-9517270D02*
X16329467Y-9564889D01*
X16329467Y-9564889D02*
X16319944Y-9583936D01*
X16319944Y-9583936D02*
X16310420Y-9593460D01*
X16310420Y-9593460D02*
X16291372Y-9602984D01*
X16291372Y-9602984D02*
X16234229Y-9602984D01*
X16234229Y-9602984D02*
X16215182Y-9593460D01*
X16215182Y-9593460D02*
X16205658Y-9583936D01*
X16500896Y-9402984D02*
X16462801Y-9402984D01*
X16462801Y-9402984D02*
X16443753Y-9412508D01*
X16443753Y-9412508D02*
X16434229Y-9422031D01*
X16434229Y-9422031D02*
X16415182Y-9450603D01*
X16415182Y-9450603D02*
X16405658Y-9488698D01*
X16405658Y-9488698D02*
X16405658Y-9564889D01*
X16405658Y-9564889D02*
X16415182Y-9583936D01*
X16415182Y-9583936D02*
X16424706Y-9593460D01*
X16424706Y-9593460D02*
X16443753Y-9602984D01*
X16443753Y-9602984D02*
X16481848Y-9602984D01*
X16481848Y-9602984D02*
X16500896Y-9593460D01*
X16500896Y-9593460D02*
X16510420Y-9583936D01*
X16510420Y-9583936D02*
X16519944Y-9564889D01*
X16519944Y-9564889D02*
X16519944Y-9517270D01*
X16519944Y-9517270D02*
X16510420Y-9498222D01*
X16510420Y-9498222D02*
X16500896Y-9488698D01*
X16500896Y-9488698D02*
X16481848Y-9479174D01*
X16481848Y-9479174D02*
X16443753Y-9479174D01*
X16443753Y-9479174D02*
X16424706Y-9488698D01*
X16424706Y-9488698D02*
X16415182Y-9498222D01*
X16415182Y-9498222D02*
X16405658Y-9517270D01*
X16596134Y-9402984D02*
X16596134Y-9441079D01*
X16672325Y-9402984D02*
X16672325Y-9441079D01*
X16967563Y-9679174D02*
X16958039Y-9669650D01*
X16958039Y-9669650D02*
X16938991Y-9641079D01*
X16938991Y-9641079D02*
X16929468Y-9622031D01*
X16929468Y-9622031D02*
X16919944Y-9593460D01*
X16919944Y-9593460D02*
X16910420Y-9545841D01*
X16910420Y-9545841D02*
X16910420Y-9507746D01*
X16910420Y-9507746D02*
X16919944Y-9460127D01*
X16919944Y-9460127D02*
X16929468Y-9431555D01*
X16929468Y-9431555D02*
X16938991Y-9412508D01*
X16938991Y-9412508D02*
X16958039Y-9383936D01*
X16958039Y-9383936D02*
X16967563Y-9374412D01*
X17081849Y-9402984D02*
X17100896Y-9402984D01*
X17100896Y-9402984D02*
X17119944Y-9412508D01*
X17119944Y-9412508D02*
X17129468Y-9422031D01*
X17129468Y-9422031D02*
X17138991Y-9441079D01*
X17138991Y-9441079D02*
X17148515Y-9479174D01*
X17148515Y-9479174D02*
X17148515Y-9526793D01*
X17148515Y-9526793D02*
X17138991Y-9564889D01*
X17138991Y-9564889D02*
X17129468Y-9583936D01*
X17129468Y-9583936D02*
X17119944Y-9593460D01*
X17119944Y-9593460D02*
X17100896Y-9602984D01*
X17100896Y-9602984D02*
X17081849Y-9602984D01*
X17081849Y-9602984D02*
X17062801Y-9593460D01*
X17062801Y-9593460D02*
X17053277Y-9583936D01*
X17053277Y-9583936D02*
X17043753Y-9564889D01*
X17043753Y-9564889D02*
X17034230Y-9526793D01*
X17034230Y-9526793D02*
X17034230Y-9479174D01*
X17034230Y-9479174D02*
X17043753Y-9441079D01*
X17043753Y-9441079D02*
X17053277Y-9422031D01*
X17053277Y-9422031D02*
X17062801Y-9412508D01*
X17062801Y-9412508D02*
X17081849Y-9402984D01*
X17386611Y-9602984D02*
X17386611Y-9402984D01*
X17472325Y-9602984D02*
X17472325Y-9498222D01*
X17472325Y-9498222D02*
X17462801Y-9479174D01*
X17462801Y-9479174D02*
X17443753Y-9469650D01*
X17443753Y-9469650D02*
X17415182Y-9469650D01*
X17415182Y-9469650D02*
X17396134Y-9479174D01*
X17396134Y-9479174D02*
X17386611Y-9488698D01*
X17596134Y-9602984D02*
X17577087Y-9593460D01*
X17577087Y-9593460D02*
X17567563Y-9583936D01*
X17567563Y-9583936D02*
X17558039Y-9564889D01*
X17558039Y-9564889D02*
X17558039Y-9507746D01*
X17558039Y-9507746D02*
X17567563Y-9488698D01*
X17567563Y-9488698D02*
X17577087Y-9479174D01*
X17577087Y-9479174D02*
X17596134Y-9469650D01*
X17596134Y-9469650D02*
X17624706Y-9469650D01*
X17624706Y-9469650D02*
X17643753Y-9479174D01*
X17643753Y-9479174D02*
X17653277Y-9488698D01*
X17653277Y-9488698D02*
X17662801Y-9507746D01*
X17662801Y-9507746D02*
X17662801Y-9564889D01*
X17662801Y-9564889D02*
X17653277Y-9583936D01*
X17653277Y-9583936D02*
X17643753Y-9593460D01*
X17643753Y-9593460D02*
X17624706Y-9602984D01*
X17624706Y-9602984D02*
X17596134Y-9602984D01*
X17777087Y-9602984D02*
X17758039Y-9593460D01*
X17758039Y-9593460D02*
X17748515Y-9574412D01*
X17748515Y-9574412D02*
X17748515Y-9402984D01*
X17929468Y-9593460D02*
X17910420Y-9602984D01*
X17910420Y-9602984D02*
X17872325Y-9602984D01*
X17872325Y-9602984D02*
X17853277Y-9593460D01*
X17853277Y-9593460D02*
X17843753Y-9574412D01*
X17843753Y-9574412D02*
X17843753Y-9498222D01*
X17843753Y-9498222D02*
X17853277Y-9479174D01*
X17853277Y-9479174D02*
X17872325Y-9469650D01*
X17872325Y-9469650D02*
X17910420Y-9469650D01*
X17910420Y-9469650D02*
X17929468Y-9479174D01*
X17929468Y-9479174D02*
X17938992Y-9498222D01*
X17938992Y-9498222D02*
X17938992Y-9517270D01*
X17938992Y-9517270D02*
X17843753Y-9536317D01*
X18015182Y-9593460D02*
X18034230Y-9602984D01*
X18034230Y-9602984D02*
X18072325Y-9602984D01*
X18072325Y-9602984D02*
X18091373Y-9593460D01*
X18091373Y-9593460D02*
X18100896Y-9574412D01*
X18100896Y-9574412D02*
X18100896Y-9564889D01*
X18100896Y-9564889D02*
X18091373Y-9545841D01*
X18091373Y-9545841D02*
X18072325Y-9536317D01*
X18072325Y-9536317D02*
X18043753Y-9536317D01*
X18043753Y-9536317D02*
X18024706Y-9526793D01*
X18024706Y-9526793D02*
X18015182Y-9507746D01*
X18015182Y-9507746D02*
X18015182Y-9498222D01*
X18015182Y-9498222D02*
X18024706Y-9479174D01*
X18024706Y-9479174D02*
X18043753Y-9469650D01*
X18043753Y-9469650D02*
X18072325Y-9469650D01*
X18072325Y-9469650D02*
X18091373Y-9479174D01*
X18338992Y-9526793D02*
X18491373Y-9526793D01*
X18415182Y-9602984D02*
X18415182Y-9450603D01*
X18824706Y-9469650D02*
X18824706Y-9602984D01*
X18777087Y-9393460D02*
X18729468Y-9536317D01*
X18729468Y-9536317D02*
X18853277Y-9536317D01*
X19072325Y-9593460D02*
X19091373Y-9602984D01*
X19091373Y-9602984D02*
X19129468Y-9602984D01*
X19129468Y-9602984D02*
X19148516Y-9593460D01*
X19148516Y-9593460D02*
X19158039Y-9574412D01*
X19158039Y-9574412D02*
X19158039Y-9564889D01*
X19158039Y-9564889D02*
X19148516Y-9545841D01*
X19148516Y-9545841D02*
X19129468Y-9536317D01*
X19129468Y-9536317D02*
X19100896Y-9536317D01*
X19100896Y-9536317D02*
X19081849Y-9526793D01*
X19081849Y-9526793D02*
X19072325Y-9507746D01*
X19072325Y-9507746D02*
X19072325Y-9498222D01*
X19072325Y-9498222D02*
X19081849Y-9479174D01*
X19081849Y-9479174D02*
X19100896Y-9469650D01*
X19100896Y-9469650D02*
X19129468Y-9469650D01*
X19129468Y-9469650D02*
X19148516Y-9479174D01*
X19272325Y-9602984D02*
X19253277Y-9593460D01*
X19253277Y-9593460D02*
X19243754Y-9574412D01*
X19243754Y-9574412D02*
X19243754Y-9402984D01*
X19377087Y-9602984D02*
X19358039Y-9593460D01*
X19358039Y-9593460D02*
X19348516Y-9583936D01*
X19348516Y-9583936D02*
X19338992Y-9564889D01*
X19338992Y-9564889D02*
X19338992Y-9507746D01*
X19338992Y-9507746D02*
X19348516Y-9488698D01*
X19348516Y-9488698D02*
X19358039Y-9479174D01*
X19358039Y-9479174D02*
X19377087Y-9469650D01*
X19377087Y-9469650D02*
X19405658Y-9469650D01*
X19405658Y-9469650D02*
X19424706Y-9479174D01*
X19424706Y-9479174D02*
X19434230Y-9488698D01*
X19434230Y-9488698D02*
X19443754Y-9507746D01*
X19443754Y-9507746D02*
X19443754Y-9564889D01*
X19443754Y-9564889D02*
X19434230Y-9583936D01*
X19434230Y-9583936D02*
X19424706Y-9593460D01*
X19424706Y-9593460D02*
X19405658Y-9602984D01*
X19405658Y-9602984D02*
X19377087Y-9602984D01*
X19500897Y-9469650D02*
X19577087Y-9469650D01*
X19529468Y-9402984D02*
X19529468Y-9574412D01*
X19529468Y-9574412D02*
X19538992Y-9593460D01*
X19538992Y-9593460D02*
X19558039Y-9602984D01*
X19558039Y-9602984D02*
X19577087Y-9602984D01*
X19634230Y-9593460D02*
X19653277Y-9602984D01*
X19653277Y-9602984D02*
X19691373Y-9602984D01*
X19691373Y-9602984D02*
X19710420Y-9593460D01*
X19710420Y-9593460D02*
X19719944Y-9574412D01*
X19719944Y-9574412D02*
X19719944Y-9564889D01*
X19719944Y-9564889D02*
X19710420Y-9545841D01*
X19710420Y-9545841D02*
X19691373Y-9536317D01*
X19691373Y-9536317D02*
X19662801Y-9536317D01*
X19662801Y-9536317D02*
X19643754Y-9526793D01*
X19643754Y-9526793D02*
X19634230Y-9507746D01*
X19634230Y-9507746D02*
X19634230Y-9498222D01*
X19634230Y-9498222D02*
X19643754Y-9479174D01*
X19643754Y-9479174D02*
X19662801Y-9469650D01*
X19662801Y-9469650D02*
X19691373Y-9469650D01*
X19691373Y-9469650D02*
X19710420Y-9479174D01*
X19786611Y-9679174D02*
X19796135Y-9669650D01*
X19796135Y-9669650D02*
X19815182Y-9641079D01*
X19815182Y-9641079D02*
X19824706Y-9622031D01*
X19824706Y-9622031D02*
X19834230Y-9593460D01*
X19834230Y-9593460D02*
X19843754Y-9545841D01*
X19843754Y-9545841D02*
X19843754Y-9507746D01*
X19843754Y-9507746D02*
X19834230Y-9460127D01*
X19834230Y-9460127D02*
X19824706Y-9431555D01*
X19824706Y-9431555D02*
X19815182Y-9412508D01*
X19815182Y-9412508D02*
X19796135Y-9383936D01*
X19796135Y-9383936D02*
X19786611Y-9374412D01*
D14*
X13342500Y-9725500D02*
X13342500Y-9825500D01*
X13292500Y-9775500D02*
X13392500Y-9775500D01*
D11*
X13758039Y-9866984D02*
X13643753Y-9866984D01*
X13700896Y-9866984D02*
X13700896Y-9666984D01*
X13700896Y-9666984D02*
X13681848Y-9695555D01*
X13681848Y-9695555D02*
X13662801Y-9714603D01*
X13662801Y-9714603D02*
X13643753Y-9724127D01*
X13843753Y-9847936D02*
X13853277Y-9857460D01*
X13853277Y-9857460D02*
X13843753Y-9866984D01*
X13843753Y-9866984D02*
X13834229Y-9857460D01*
X13834229Y-9857460D02*
X13843753Y-9847936D01*
X13843753Y-9847936D02*
X13843753Y-9866984D01*
X13977086Y-9666984D02*
X13996134Y-9666984D01*
X13996134Y-9666984D02*
X14015182Y-9676508D01*
X14015182Y-9676508D02*
X14024705Y-9686031D01*
X14024705Y-9686031D02*
X14034229Y-9705079D01*
X14034229Y-9705079D02*
X14043753Y-9743174D01*
X14043753Y-9743174D02*
X14043753Y-9790793D01*
X14043753Y-9790793D02*
X14034229Y-9828889D01*
X14034229Y-9828889D02*
X14024705Y-9847936D01*
X14024705Y-9847936D02*
X14015182Y-9857460D01*
X14015182Y-9857460D02*
X13996134Y-9866984D01*
X13996134Y-9866984D02*
X13977086Y-9866984D01*
X13977086Y-9866984D02*
X13958039Y-9857460D01*
X13958039Y-9857460D02*
X13948515Y-9847936D01*
X13948515Y-9847936D02*
X13938991Y-9828889D01*
X13938991Y-9828889D02*
X13929467Y-9790793D01*
X13929467Y-9790793D02*
X13929467Y-9743174D01*
X13929467Y-9743174D02*
X13938991Y-9705079D01*
X13938991Y-9705079D02*
X13948515Y-9686031D01*
X13948515Y-9686031D02*
X13958039Y-9676508D01*
X13958039Y-9676508D02*
X13977086Y-9666984D01*
X14167562Y-9666984D02*
X14186610Y-9666984D01*
X14186610Y-9666984D02*
X14205658Y-9676508D01*
X14205658Y-9676508D02*
X14215182Y-9686031D01*
X14215182Y-9686031D02*
X14224705Y-9705079D01*
X14224705Y-9705079D02*
X14234229Y-9743174D01*
X14234229Y-9743174D02*
X14234229Y-9790793D01*
X14234229Y-9790793D02*
X14224705Y-9828889D01*
X14224705Y-9828889D02*
X14215182Y-9847936D01*
X14215182Y-9847936D02*
X14205658Y-9857460D01*
X14205658Y-9857460D02*
X14186610Y-9866984D01*
X14186610Y-9866984D02*
X14167562Y-9866984D01*
X14167562Y-9866984D02*
X14148515Y-9857460D01*
X14148515Y-9857460D02*
X14138991Y-9847936D01*
X14138991Y-9847936D02*
X14129467Y-9828889D01*
X14129467Y-9828889D02*
X14119943Y-9790793D01*
X14119943Y-9790793D02*
X14119943Y-9743174D01*
X14119943Y-9743174D02*
X14129467Y-9705079D01*
X14129467Y-9705079D02*
X14138991Y-9686031D01*
X14138991Y-9686031D02*
X14148515Y-9676508D01*
X14148515Y-9676508D02*
X14167562Y-9666984D01*
X14358039Y-9666984D02*
X14377086Y-9666984D01*
X14377086Y-9666984D02*
X14396134Y-9676508D01*
X14396134Y-9676508D02*
X14405658Y-9686031D01*
X14405658Y-9686031D02*
X14415182Y-9705079D01*
X14415182Y-9705079D02*
X14424705Y-9743174D01*
X14424705Y-9743174D02*
X14424705Y-9790793D01*
X14424705Y-9790793D02*
X14415182Y-9828889D01*
X14415182Y-9828889D02*
X14405658Y-9847936D01*
X14405658Y-9847936D02*
X14396134Y-9857460D01*
X14396134Y-9857460D02*
X14377086Y-9866984D01*
X14377086Y-9866984D02*
X14358039Y-9866984D01*
X14358039Y-9866984D02*
X14338991Y-9857460D01*
X14338991Y-9857460D02*
X14329467Y-9847936D01*
X14329467Y-9847936D02*
X14319943Y-9828889D01*
X14319943Y-9828889D02*
X14310420Y-9790793D01*
X14310420Y-9790793D02*
X14310420Y-9743174D01*
X14310420Y-9743174D02*
X14319943Y-9705079D01*
X14319943Y-9705079D02*
X14329467Y-9686031D01*
X14329467Y-9686031D02*
X14338991Y-9676508D01*
X14338991Y-9676508D02*
X14358039Y-9666984D01*
X14510420Y-9866984D02*
X14510420Y-9733650D01*
X14510420Y-9752698D02*
X14519943Y-9743174D01*
X14519943Y-9743174D02*
X14538991Y-9733650D01*
X14538991Y-9733650D02*
X14567563Y-9733650D01*
X14567563Y-9733650D02*
X14586610Y-9743174D01*
X14586610Y-9743174D02*
X14596134Y-9762222D01*
X14596134Y-9762222D02*
X14596134Y-9866984D01*
X14596134Y-9762222D02*
X14605658Y-9743174D01*
X14605658Y-9743174D02*
X14624705Y-9733650D01*
X14624705Y-9733650D02*
X14653277Y-9733650D01*
X14653277Y-9733650D02*
X14672324Y-9743174D01*
X14672324Y-9743174D02*
X14681848Y-9762222D01*
X14681848Y-9762222D02*
X14681848Y-9866984D01*
X14777086Y-9866984D02*
X14777086Y-9733650D01*
X14777086Y-9752698D02*
X14786610Y-9743174D01*
X14786610Y-9743174D02*
X14805658Y-9733650D01*
X14805658Y-9733650D02*
X14834229Y-9733650D01*
X14834229Y-9733650D02*
X14853277Y-9743174D01*
X14853277Y-9743174D02*
X14862801Y-9762222D01*
X14862801Y-9762222D02*
X14862801Y-9866984D01*
X14862801Y-9762222D02*
X14872324Y-9743174D01*
X14872324Y-9743174D02*
X14891372Y-9733650D01*
X14891372Y-9733650D02*
X14919943Y-9733650D01*
X14919943Y-9733650D02*
X14938991Y-9743174D01*
X14938991Y-9743174D02*
X14948515Y-9762222D01*
X14948515Y-9762222D02*
X14948515Y-9866984D01*
X15338991Y-9657460D02*
X15167563Y-9914603D01*
X15596134Y-9666984D02*
X15615182Y-9666984D01*
X15615182Y-9666984D02*
X15634229Y-9676508D01*
X15634229Y-9676508D02*
X15643753Y-9686031D01*
X15643753Y-9686031D02*
X15653277Y-9705079D01*
X15653277Y-9705079D02*
X15662801Y-9743174D01*
X15662801Y-9743174D02*
X15662801Y-9790793D01*
X15662801Y-9790793D02*
X15653277Y-9828889D01*
X15653277Y-9828889D02*
X15643753Y-9847936D01*
X15643753Y-9847936D02*
X15634229Y-9857460D01*
X15634229Y-9857460D02*
X15615182Y-9866984D01*
X15615182Y-9866984D02*
X15596134Y-9866984D01*
X15596134Y-9866984D02*
X15577086Y-9857460D01*
X15577086Y-9857460D02*
X15567563Y-9847936D01*
X15567563Y-9847936D02*
X15558039Y-9828889D01*
X15558039Y-9828889D02*
X15548515Y-9790793D01*
X15548515Y-9790793D02*
X15548515Y-9743174D01*
X15548515Y-9743174D02*
X15558039Y-9705079D01*
X15558039Y-9705079D02*
X15567563Y-9686031D01*
X15567563Y-9686031D02*
X15577086Y-9676508D01*
X15577086Y-9676508D02*
X15596134Y-9666984D01*
X15748515Y-9847936D02*
X15758039Y-9857460D01*
X15758039Y-9857460D02*
X15748515Y-9866984D01*
X15748515Y-9866984D02*
X15738991Y-9857460D01*
X15738991Y-9857460D02*
X15748515Y-9847936D01*
X15748515Y-9847936D02*
X15748515Y-9866984D01*
X15881848Y-9666984D02*
X15900896Y-9666984D01*
X15900896Y-9666984D02*
X15919944Y-9676508D01*
X15919944Y-9676508D02*
X15929467Y-9686031D01*
X15929467Y-9686031D02*
X15938991Y-9705079D01*
X15938991Y-9705079D02*
X15948515Y-9743174D01*
X15948515Y-9743174D02*
X15948515Y-9790793D01*
X15948515Y-9790793D02*
X15938991Y-9828889D01*
X15938991Y-9828889D02*
X15929467Y-9847936D01*
X15929467Y-9847936D02*
X15919944Y-9857460D01*
X15919944Y-9857460D02*
X15900896Y-9866984D01*
X15900896Y-9866984D02*
X15881848Y-9866984D01*
X15881848Y-9866984D02*
X15862801Y-9857460D01*
X15862801Y-9857460D02*
X15853277Y-9847936D01*
X15853277Y-9847936D02*
X15843753Y-9828889D01*
X15843753Y-9828889D02*
X15834229Y-9790793D01*
X15834229Y-9790793D02*
X15834229Y-9743174D01*
X15834229Y-9743174D02*
X15843753Y-9705079D01*
X15843753Y-9705079D02*
X15853277Y-9686031D01*
X15853277Y-9686031D02*
X15862801Y-9676508D01*
X15862801Y-9676508D02*
X15881848Y-9666984D01*
X16015182Y-9666984D02*
X16138991Y-9666984D01*
X16138991Y-9666984D02*
X16072325Y-9743174D01*
X16072325Y-9743174D02*
X16100896Y-9743174D01*
X16100896Y-9743174D02*
X16119944Y-9752698D01*
X16119944Y-9752698D02*
X16129467Y-9762222D01*
X16129467Y-9762222D02*
X16138991Y-9781270D01*
X16138991Y-9781270D02*
X16138991Y-9828889D01*
X16138991Y-9828889D02*
X16129467Y-9847936D01*
X16129467Y-9847936D02*
X16119944Y-9857460D01*
X16119944Y-9857460D02*
X16100896Y-9866984D01*
X16100896Y-9866984D02*
X16043753Y-9866984D01*
X16043753Y-9866984D02*
X16024706Y-9857460D01*
X16024706Y-9857460D02*
X16015182Y-9847936D01*
X16234229Y-9866984D02*
X16272325Y-9866984D01*
X16272325Y-9866984D02*
X16291372Y-9857460D01*
X16291372Y-9857460D02*
X16300896Y-9847936D01*
X16300896Y-9847936D02*
X16319944Y-9819365D01*
X16319944Y-9819365D02*
X16329467Y-9781270D01*
X16329467Y-9781270D02*
X16329467Y-9705079D01*
X16329467Y-9705079D02*
X16319944Y-9686031D01*
X16319944Y-9686031D02*
X16310420Y-9676508D01*
X16310420Y-9676508D02*
X16291372Y-9666984D01*
X16291372Y-9666984D02*
X16253277Y-9666984D01*
X16253277Y-9666984D02*
X16234229Y-9676508D01*
X16234229Y-9676508D02*
X16224706Y-9686031D01*
X16224706Y-9686031D02*
X16215182Y-9705079D01*
X16215182Y-9705079D02*
X16215182Y-9752698D01*
X16215182Y-9752698D02*
X16224706Y-9771746D01*
X16224706Y-9771746D02*
X16234229Y-9781270D01*
X16234229Y-9781270D02*
X16253277Y-9790793D01*
X16253277Y-9790793D02*
X16291372Y-9790793D01*
X16291372Y-9790793D02*
X16310420Y-9781270D01*
X16310420Y-9781270D02*
X16319944Y-9771746D01*
X16319944Y-9771746D02*
X16329467Y-9752698D01*
X16500896Y-9733650D02*
X16500896Y-9866984D01*
X16453277Y-9657460D02*
X16405658Y-9800317D01*
X16405658Y-9800317D02*
X16529467Y-9800317D01*
X16596134Y-9666984D02*
X16596134Y-9705079D01*
X16672325Y-9666984D02*
X16672325Y-9705079D01*
X16967563Y-9943174D02*
X16958039Y-9933650D01*
X16958039Y-9933650D02*
X16938991Y-9905079D01*
X16938991Y-9905079D02*
X16929468Y-9886031D01*
X16929468Y-9886031D02*
X16919944Y-9857460D01*
X16919944Y-9857460D02*
X16910420Y-9809841D01*
X16910420Y-9809841D02*
X16910420Y-9771746D01*
X16910420Y-9771746D02*
X16919944Y-9724127D01*
X16919944Y-9724127D02*
X16929468Y-9695555D01*
X16929468Y-9695555D02*
X16938991Y-9676508D01*
X16938991Y-9676508D02*
X16958039Y-9647936D01*
X16958039Y-9647936D02*
X16967563Y-9638412D01*
X17129468Y-9733650D02*
X17129468Y-9866984D01*
X17081849Y-9657460D02*
X17034230Y-9800317D01*
X17034230Y-9800317D02*
X17158039Y-9800317D01*
X17386611Y-9866984D02*
X17386611Y-9666984D01*
X17472325Y-9866984D02*
X17472325Y-9762222D01*
X17472325Y-9762222D02*
X17462801Y-9743174D01*
X17462801Y-9743174D02*
X17443753Y-9733650D01*
X17443753Y-9733650D02*
X17415182Y-9733650D01*
X17415182Y-9733650D02*
X17396134Y-9743174D01*
X17396134Y-9743174D02*
X17386611Y-9752698D01*
X17596134Y-9866984D02*
X17577087Y-9857460D01*
X17577087Y-9857460D02*
X17567563Y-9847936D01*
X17567563Y-9847936D02*
X17558039Y-9828889D01*
X17558039Y-9828889D02*
X17558039Y-9771746D01*
X17558039Y-9771746D02*
X17567563Y-9752698D01*
X17567563Y-9752698D02*
X17577087Y-9743174D01*
X17577087Y-9743174D02*
X17596134Y-9733650D01*
X17596134Y-9733650D02*
X17624706Y-9733650D01*
X17624706Y-9733650D02*
X17643753Y-9743174D01*
X17643753Y-9743174D02*
X17653277Y-9752698D01*
X17653277Y-9752698D02*
X17662801Y-9771746D01*
X17662801Y-9771746D02*
X17662801Y-9828889D01*
X17662801Y-9828889D02*
X17653277Y-9847936D01*
X17653277Y-9847936D02*
X17643753Y-9857460D01*
X17643753Y-9857460D02*
X17624706Y-9866984D01*
X17624706Y-9866984D02*
X17596134Y-9866984D01*
X17777087Y-9866984D02*
X17758039Y-9857460D01*
X17758039Y-9857460D02*
X17748515Y-9838412D01*
X17748515Y-9838412D02*
X17748515Y-9666984D01*
X17929468Y-9857460D02*
X17910420Y-9866984D01*
X17910420Y-9866984D02*
X17872325Y-9866984D01*
X17872325Y-9866984D02*
X17853277Y-9857460D01*
X17853277Y-9857460D02*
X17843753Y-9838412D01*
X17843753Y-9838412D02*
X17843753Y-9762222D01*
X17843753Y-9762222D02*
X17853277Y-9743174D01*
X17853277Y-9743174D02*
X17872325Y-9733650D01*
X17872325Y-9733650D02*
X17910420Y-9733650D01*
X17910420Y-9733650D02*
X17929468Y-9743174D01*
X17929468Y-9743174D02*
X17938992Y-9762222D01*
X17938992Y-9762222D02*
X17938992Y-9781270D01*
X17938992Y-9781270D02*
X17843753Y-9800317D01*
X18015182Y-9857460D02*
X18034230Y-9866984D01*
X18034230Y-9866984D02*
X18072325Y-9866984D01*
X18072325Y-9866984D02*
X18091373Y-9857460D01*
X18091373Y-9857460D02*
X18100896Y-9838412D01*
X18100896Y-9838412D02*
X18100896Y-9828889D01*
X18100896Y-9828889D02*
X18091373Y-9809841D01*
X18091373Y-9809841D02*
X18072325Y-9800317D01*
X18072325Y-9800317D02*
X18043753Y-9800317D01*
X18043753Y-9800317D02*
X18024706Y-9790793D01*
X18024706Y-9790793D02*
X18015182Y-9771746D01*
X18015182Y-9771746D02*
X18015182Y-9762222D01*
X18015182Y-9762222D02*
X18024706Y-9743174D01*
X18024706Y-9743174D02*
X18043753Y-9733650D01*
X18043753Y-9733650D02*
X18072325Y-9733650D01*
X18072325Y-9733650D02*
X18091373Y-9743174D01*
X18167563Y-9943174D02*
X18177087Y-9933650D01*
X18177087Y-9933650D02*
X18196134Y-9905079D01*
X18196134Y-9905079D02*
X18205658Y-9886031D01*
X18205658Y-9886031D02*
X18215182Y-9857460D01*
X18215182Y-9857460D02*
X18224706Y-9809841D01*
X18224706Y-9809841D02*
X18224706Y-9771746D01*
X18224706Y-9771746D02*
X18215182Y-9724127D01*
X18215182Y-9724127D02*
X18205658Y-9695555D01*
X18205658Y-9695555D02*
X18196134Y-9676508D01*
X18196134Y-9676508D02*
X18177087Y-9647936D01*
X18177087Y-9647936D02*
X18167563Y-9638412D01*
M02*
