%TF.GenerationSoftware,KiCad,Pcbnew,7.0.8-7.0.8~ubuntu22.04.1*%
%TF.CreationDate,2023-10-30T09:28:09+01:00*%
%TF.ProjectId,usb2serial-autovtg,75736232-7365-4726-9961-6c2d6175746f,rev?*%
%TF.SameCoordinates,Original*%
%TF.FileFunction,Legend,Bot*%
%TF.FilePolarity,Positive*%
%FSLAX46Y46*%
G04 Gerber Fmt 4.6, Leading zero omitted, Abs format (unit mm)*
G04 Created by KiCad (PCBNEW 7.0.8-7.0.8~ubuntu22.04.1) date 2023-10-30 09:28:09*
%MOMM*%
%LPD*%
G01*
G04 APERTURE LIST*
%ADD10C,0.400000*%
%ADD11C,0.200000*%
%ADD12C,0.250000*%
%ADD13R,1.700000X1.700000*%
%ADD14O,1.700000X1.700000*%
%ADD15C,0.650000*%
%ADD16O,2.100000X1.000000*%
%ADD17O,1.800000X1.000000*%
G04 APERTURE END LIST*
D10*
X153300000Y-78400000D02*
X154300000Y-78400000D01*
D11*
X154600000Y-75550000D02*
X154000000Y-76050000D01*
X154000000Y-75050000D02*
X154600000Y-75550000D01*
D10*
X152500000Y-75550000D02*
X154300000Y-75550000D01*
D11*
X154300000Y-75750000D02*
X154100000Y-75350000D01*
X154000000Y-75750000D02*
X154300000Y-75750000D01*
X154000000Y-76050000D02*
X154000000Y-75050000D01*
X154100000Y-75350000D02*
X154300000Y-75450000D01*
X153000000Y-73200000D02*
X152800000Y-73100000D01*
D10*
X153800000Y-77500000D02*
X153800000Y-78400000D01*
D11*
X153100000Y-72500000D02*
X153100000Y-73500000D01*
D10*
X154600000Y-73000000D02*
X152800000Y-73000000D01*
D11*
X153100000Y-72800000D02*
X152800000Y-72800000D01*
X152500000Y-73000000D02*
X153100000Y-72500000D01*
X153100000Y-73500000D02*
X152500000Y-73000000D01*
X152800000Y-72800000D02*
X153000000Y-73200000D01*
X147496993Y-69423409D02*
X147830326Y-69423409D01*
X147830326Y-69947219D02*
X147830326Y-68947219D01*
X147830326Y-68947219D02*
X147354136Y-68947219D01*
X147116040Y-68947219D02*
X146544612Y-68947219D01*
X146830326Y-69947219D02*
X146830326Y-68947219D01*
X146258897Y-69042457D02*
X146211278Y-68994838D01*
X146211278Y-68994838D02*
X146116040Y-68947219D01*
X146116040Y-68947219D02*
X145877945Y-68947219D01*
X145877945Y-68947219D02*
X145782707Y-68994838D01*
X145782707Y-68994838D02*
X145735088Y-69042457D01*
X145735088Y-69042457D02*
X145687469Y-69137695D01*
X145687469Y-69137695D02*
X145687469Y-69232933D01*
X145687469Y-69232933D02*
X145735088Y-69375790D01*
X145735088Y-69375790D02*
X146306516Y-69947219D01*
X146306516Y-69947219D02*
X145687469Y-69947219D01*
X145354135Y-68947219D02*
X144735088Y-68947219D01*
X144735088Y-68947219D02*
X145068421Y-69328171D01*
X145068421Y-69328171D02*
X144925564Y-69328171D01*
X144925564Y-69328171D02*
X144830326Y-69375790D01*
X144830326Y-69375790D02*
X144782707Y-69423409D01*
X144782707Y-69423409D02*
X144735088Y-69518647D01*
X144735088Y-69518647D02*
X144735088Y-69756742D01*
X144735088Y-69756742D02*
X144782707Y-69851980D01*
X144782707Y-69851980D02*
X144830326Y-69899600D01*
X144830326Y-69899600D02*
X144925564Y-69947219D01*
X144925564Y-69947219D02*
X145211278Y-69947219D01*
X145211278Y-69947219D02*
X145306516Y-69899600D01*
X145306516Y-69899600D02*
X145354135Y-69851980D01*
X143877945Y-69280552D02*
X143877945Y-69947219D01*
X144116040Y-68899600D02*
X144354135Y-69613885D01*
X144354135Y-69613885D02*
X143735088Y-69613885D01*
X142163659Y-69947219D02*
X142163659Y-69423409D01*
X142163659Y-69423409D02*
X142211278Y-69328171D01*
X142211278Y-69328171D02*
X142306516Y-69280552D01*
X142306516Y-69280552D02*
X142496992Y-69280552D01*
X142496992Y-69280552D02*
X142592230Y-69328171D01*
X142163659Y-69899600D02*
X142258897Y-69947219D01*
X142258897Y-69947219D02*
X142496992Y-69947219D01*
X142496992Y-69947219D02*
X142592230Y-69899600D01*
X142592230Y-69899600D02*
X142639849Y-69804361D01*
X142639849Y-69804361D02*
X142639849Y-69709123D01*
X142639849Y-69709123D02*
X142592230Y-69613885D01*
X142592230Y-69613885D02*
X142496992Y-69566266D01*
X142496992Y-69566266D02*
X142258897Y-69566266D01*
X142258897Y-69566266D02*
X142163659Y-69518647D01*
X141258897Y-69280552D02*
X141258897Y-69947219D01*
X141687468Y-69280552D02*
X141687468Y-69804361D01*
X141687468Y-69804361D02*
X141639849Y-69899600D01*
X141639849Y-69899600D02*
X141544611Y-69947219D01*
X141544611Y-69947219D02*
X141401754Y-69947219D01*
X141401754Y-69947219D02*
X141306516Y-69899600D01*
X141306516Y-69899600D02*
X141258897Y-69851980D01*
X140925563Y-69280552D02*
X140544611Y-69280552D01*
X140782706Y-68947219D02*
X140782706Y-69804361D01*
X140782706Y-69804361D02*
X140735087Y-69899600D01*
X140735087Y-69899600D02*
X140639849Y-69947219D01*
X140639849Y-69947219D02*
X140544611Y-69947219D01*
X140068420Y-69947219D02*
X140163658Y-69899600D01*
X140163658Y-69899600D02*
X140211277Y-69851980D01*
X140211277Y-69851980D02*
X140258896Y-69756742D01*
X140258896Y-69756742D02*
X140258896Y-69471028D01*
X140258896Y-69471028D02*
X140211277Y-69375790D01*
X140211277Y-69375790D02*
X140163658Y-69328171D01*
X140163658Y-69328171D02*
X140068420Y-69280552D01*
X140068420Y-69280552D02*
X139925563Y-69280552D01*
X139925563Y-69280552D02*
X139830325Y-69328171D01*
X139830325Y-69328171D02*
X139782706Y-69375790D01*
X139782706Y-69375790D02*
X139735087Y-69471028D01*
X139735087Y-69471028D02*
X139735087Y-69756742D01*
X139735087Y-69756742D02*
X139782706Y-69851980D01*
X139782706Y-69851980D02*
X139830325Y-69899600D01*
X139830325Y-69899600D02*
X139925563Y-69947219D01*
X139925563Y-69947219D02*
X140068420Y-69947219D01*
X139449372Y-68947219D02*
X139116039Y-69947219D01*
X139116039Y-69947219D02*
X138782706Y-68947219D01*
X138592229Y-69280552D02*
X138211277Y-69280552D01*
X138449372Y-68947219D02*
X138449372Y-69804361D01*
X138449372Y-69804361D02*
X138401753Y-69899600D01*
X138401753Y-69899600D02*
X138306515Y-69947219D01*
X138306515Y-69947219D02*
X138211277Y-69947219D01*
X137449372Y-69280552D02*
X137449372Y-70090076D01*
X137449372Y-70090076D02*
X137496991Y-70185314D01*
X137496991Y-70185314D02*
X137544610Y-70232933D01*
X137544610Y-70232933D02*
X137639848Y-70280552D01*
X137639848Y-70280552D02*
X137782705Y-70280552D01*
X137782705Y-70280552D02*
X137877943Y-70232933D01*
X137449372Y-69899600D02*
X137544610Y-69947219D01*
X137544610Y-69947219D02*
X137735086Y-69947219D01*
X137735086Y-69947219D02*
X137830324Y-69899600D01*
X137830324Y-69899600D02*
X137877943Y-69851980D01*
X137877943Y-69851980D02*
X137925562Y-69756742D01*
X137925562Y-69756742D02*
X137925562Y-69471028D01*
X137925562Y-69471028D02*
X137877943Y-69375790D01*
X137877943Y-69375790D02*
X137830324Y-69328171D01*
X137830324Y-69328171D02*
X137735086Y-69280552D01*
X137735086Y-69280552D02*
X137544610Y-69280552D01*
X137544610Y-69280552D02*
X137449372Y-69328171D01*
X136306514Y-69280552D02*
X136068419Y-69947219D01*
X136068419Y-69947219D02*
X135830324Y-69280552D01*
X135496990Y-69042457D02*
X135449371Y-68994838D01*
X135449371Y-68994838D02*
X135354133Y-68947219D01*
X135354133Y-68947219D02*
X135116038Y-68947219D01*
X135116038Y-68947219D02*
X135020800Y-68994838D01*
X135020800Y-68994838D02*
X134973181Y-69042457D01*
X134973181Y-69042457D02*
X134925562Y-69137695D01*
X134925562Y-69137695D02*
X134925562Y-69232933D01*
X134925562Y-69232933D02*
X134973181Y-69375790D01*
X134973181Y-69375790D02*
X135544609Y-69947219D01*
X135544609Y-69947219D02*
X134925562Y-69947219D01*
X147925564Y-70890552D02*
X147401755Y-70890552D01*
X147401755Y-70890552D02*
X147925564Y-71557219D01*
X147925564Y-71557219D02*
X147401755Y-71557219D01*
X147020802Y-70890552D02*
X147020802Y-71557219D01*
X147020802Y-70985790D02*
X146973183Y-70938171D01*
X146973183Y-70938171D02*
X146877945Y-70890552D01*
X146877945Y-70890552D02*
X146735088Y-70890552D01*
X146735088Y-70890552D02*
X146639850Y-70938171D01*
X146639850Y-70938171D02*
X146592231Y-71033409D01*
X146592231Y-71033409D02*
X146592231Y-71557219D01*
X145687469Y-70890552D02*
X145687469Y-71557219D01*
X146116040Y-70890552D02*
X146116040Y-71414361D01*
X146116040Y-71414361D02*
X146068421Y-71509600D01*
X146068421Y-71509600D02*
X145973183Y-71557219D01*
X145973183Y-71557219D02*
X145830326Y-71557219D01*
X145830326Y-71557219D02*
X145735088Y-71509600D01*
X145735088Y-71509600D02*
X145687469Y-71461980D01*
X144496992Y-70652457D02*
X144449373Y-70604838D01*
X144449373Y-70604838D02*
X144354135Y-70557219D01*
X144354135Y-70557219D02*
X144116040Y-70557219D01*
X144116040Y-70557219D02*
X144020802Y-70604838D01*
X144020802Y-70604838D02*
X143973183Y-70652457D01*
X143973183Y-70652457D02*
X143925564Y-70747695D01*
X143925564Y-70747695D02*
X143925564Y-70842933D01*
X143925564Y-70842933D02*
X143973183Y-70985790D01*
X143973183Y-70985790D02*
X144544611Y-71557219D01*
X144544611Y-71557219D02*
X143925564Y-71557219D01*
X143306516Y-70557219D02*
X143211278Y-70557219D01*
X143211278Y-70557219D02*
X143116040Y-70604838D01*
X143116040Y-70604838D02*
X143068421Y-70652457D01*
X143068421Y-70652457D02*
X143020802Y-70747695D01*
X143020802Y-70747695D02*
X142973183Y-70938171D01*
X142973183Y-70938171D02*
X142973183Y-71176266D01*
X142973183Y-71176266D02*
X143020802Y-71366742D01*
X143020802Y-71366742D02*
X143068421Y-71461980D01*
X143068421Y-71461980D02*
X143116040Y-71509600D01*
X143116040Y-71509600D02*
X143211278Y-71557219D01*
X143211278Y-71557219D02*
X143306516Y-71557219D01*
X143306516Y-71557219D02*
X143401754Y-71509600D01*
X143401754Y-71509600D02*
X143449373Y-71461980D01*
X143449373Y-71461980D02*
X143496992Y-71366742D01*
X143496992Y-71366742D02*
X143544611Y-71176266D01*
X143544611Y-71176266D02*
X143544611Y-70938171D01*
X143544611Y-70938171D02*
X143496992Y-70747695D01*
X143496992Y-70747695D02*
X143449373Y-70652457D01*
X143449373Y-70652457D02*
X143401754Y-70604838D01*
X143401754Y-70604838D02*
X143306516Y-70557219D01*
X142592230Y-70652457D02*
X142544611Y-70604838D01*
X142544611Y-70604838D02*
X142449373Y-70557219D01*
X142449373Y-70557219D02*
X142211278Y-70557219D01*
X142211278Y-70557219D02*
X142116040Y-70604838D01*
X142116040Y-70604838D02*
X142068421Y-70652457D01*
X142068421Y-70652457D02*
X142020802Y-70747695D01*
X142020802Y-70747695D02*
X142020802Y-70842933D01*
X142020802Y-70842933D02*
X142068421Y-70985790D01*
X142068421Y-70985790D02*
X142639849Y-71557219D01*
X142639849Y-71557219D02*
X142020802Y-71557219D01*
X141687468Y-70557219D02*
X141068421Y-70557219D01*
X141068421Y-70557219D02*
X141401754Y-70938171D01*
X141401754Y-70938171D02*
X141258897Y-70938171D01*
X141258897Y-70938171D02*
X141163659Y-70985790D01*
X141163659Y-70985790D02*
X141116040Y-71033409D01*
X141116040Y-71033409D02*
X141068421Y-71128647D01*
X141068421Y-71128647D02*
X141068421Y-71366742D01*
X141068421Y-71366742D02*
X141116040Y-71461980D01*
X141116040Y-71461980D02*
X141163659Y-71509600D01*
X141163659Y-71509600D02*
X141258897Y-71557219D01*
X141258897Y-71557219D02*
X141544611Y-71557219D01*
X141544611Y-71557219D02*
X141639849Y-71509600D01*
X141639849Y-71509600D02*
X141687468Y-71461980D01*
D12*
X154352381Y-81430571D02*
X154400000Y-81382952D01*
X154400000Y-81382952D02*
X154495238Y-81240095D01*
X154495238Y-81240095D02*
X154542857Y-81144857D01*
X154542857Y-81144857D02*
X154590476Y-81002000D01*
X154590476Y-81002000D02*
X154638095Y-80763904D01*
X154638095Y-80763904D02*
X154638095Y-80573428D01*
X154638095Y-80573428D02*
X154590476Y-80335333D01*
X154590476Y-80335333D02*
X154542857Y-80192476D01*
X154542857Y-80192476D02*
X154495238Y-80097238D01*
X154495238Y-80097238D02*
X154400000Y-79954380D01*
X154400000Y-79954380D02*
X154352381Y-79906761D01*
X154114285Y-80049619D02*
X153780952Y-81049619D01*
X153780952Y-81049619D02*
X153447619Y-80049619D01*
X153257142Y-80049619D02*
X152685714Y-80049619D01*
X152971428Y-81049619D02*
X152971428Y-80049619D01*
X151828571Y-80097238D02*
X151923809Y-80049619D01*
X151923809Y-80049619D02*
X152066666Y-80049619D01*
X152066666Y-80049619D02*
X152209523Y-80097238D01*
X152209523Y-80097238D02*
X152304761Y-80192476D01*
X152304761Y-80192476D02*
X152352380Y-80287714D01*
X152352380Y-80287714D02*
X152399999Y-80478190D01*
X152399999Y-80478190D02*
X152399999Y-80621047D01*
X152399999Y-80621047D02*
X152352380Y-80811523D01*
X152352380Y-80811523D02*
X152304761Y-80906761D01*
X152304761Y-80906761D02*
X152209523Y-81002000D01*
X152209523Y-81002000D02*
X152066666Y-81049619D01*
X152066666Y-81049619D02*
X151971428Y-81049619D01*
X151971428Y-81049619D02*
X151828571Y-81002000D01*
X151828571Y-81002000D02*
X151780952Y-80954380D01*
X151780952Y-80954380D02*
X151780952Y-80621047D01*
X151780952Y-80621047D02*
X151971428Y-80621047D01*
X151447618Y-81430571D02*
X151399999Y-81382952D01*
X151399999Y-81382952D02*
X151304761Y-81240095D01*
X151304761Y-81240095D02*
X151257142Y-81144857D01*
X151257142Y-81144857D02*
X151209523Y-81002000D01*
X151209523Y-81002000D02*
X151161904Y-80763904D01*
X151161904Y-80763904D02*
X151161904Y-80573428D01*
X151161904Y-80573428D02*
X151209523Y-80335333D01*
X151209523Y-80335333D02*
X151257142Y-80192476D01*
X151257142Y-80192476D02*
X151304761Y-80097238D01*
X151304761Y-80097238D02*
X151399999Y-79954380D01*
X151399999Y-79954380D02*
X151447618Y-79906761D01*
%LPC*%
D13*
X156200000Y-73200000D03*
D14*
X156200000Y-75740000D03*
X156200000Y-78280000D03*
X156200000Y-80820000D03*
D15*
X140305000Y-74110000D03*
X140305000Y-79890000D03*
D16*
X140805000Y-72680000D03*
D17*
X136625000Y-72680000D03*
D16*
X140805000Y-81320000D03*
D17*
X136625000Y-81320000D03*
%LPD*%
M02*
