%TF.GenerationSoftware,KiCad,Pcbnew,7.0.8-7.0.8~ubuntu22.04.1*%
%TF.CreationDate,2023-10-30T09:28:09+01:00*%
%TF.ProjectId,usb2serial-autovtg,75736232-7365-4726-9961-6c2d6175746f,rev?*%
%TF.SameCoordinates,Original*%
%TF.FileFunction,Copper,L2,Bot*%
%TF.FilePolarity,Positive*%
%FSLAX46Y46*%
G04 Gerber Fmt 4.6, Leading zero omitted, Abs format (unit mm)*
G04 Created by KiCad (PCBNEW 7.0.8-7.0.8~ubuntu22.04.1) date 2023-10-30 09:28:09*
%MOMM*%
%LPD*%
G01*
G04 APERTURE LIST*
%TA.AperFunction,ComponentPad*%
%ADD10R,1.700000X1.700000*%
%TD*%
%TA.AperFunction,ComponentPad*%
%ADD11O,1.700000X1.700000*%
%TD*%
%TA.AperFunction,ComponentPad*%
%ADD12O,2.100000X1.000000*%
%TD*%
%TA.AperFunction,ComponentPad*%
%ADD13O,1.800000X1.000000*%
%TD*%
%TA.AperFunction,ViaPad*%
%ADD14C,0.600000*%
%TD*%
%TA.AperFunction,Conductor*%
%ADD15C,0.400000*%
%TD*%
%TA.AperFunction,Conductor*%
%ADD16C,0.200000*%
%TD*%
%TA.AperFunction,Conductor*%
%ADD17C,0.250000*%
%TD*%
G04 APERTURE END LIST*
D10*
X156200000Y-73200000D03*
D11*
X156200000Y-75740000D03*
X156200000Y-78280000D03*
X156200000Y-80820000D03*
D12*
X140805000Y-72680000D03*
D13*
X136625000Y-72680000D03*
D12*
X140805000Y-81320000D03*
D13*
X136625000Y-81320000D03*
D14*
X147400000Y-75200000D03*
X143900000Y-76800000D03*
X150200000Y-70400000D03*
X152800000Y-76300000D03*
X152600000Y-81200000D03*
X137000000Y-71000000D03*
X142900000Y-74200000D03*
X137300000Y-82200000D03*
X153100000Y-83300000D03*
X149200000Y-75200000D03*
X148200000Y-80000000D03*
X150200000Y-77100000D03*
X144900000Y-70400000D03*
X152900000Y-70700000D03*
X146900000Y-72500000D03*
X143900000Y-81900000D03*
X146400000Y-82600000D03*
X144000000Y-73800000D03*
X150100000Y-73200000D03*
X147200000Y-77600000D03*
X142200000Y-82900000D03*
X146500000Y-81398500D03*
X148100000Y-72900000D03*
X151400000Y-71400000D03*
X154300000Y-82600000D03*
X148300000Y-82600000D03*
X139000000Y-74700000D03*
X140100000Y-75700000D03*
D15*
X148300000Y-76500000D02*
X147200000Y-77600000D01*
X150100000Y-73200000D02*
X148300000Y-75000000D01*
X148300000Y-75000000D02*
X148300000Y-76500000D01*
X144998500Y-82900000D02*
X146500000Y-81398500D01*
X142200000Y-82900000D02*
X144998500Y-82900000D01*
D16*
X151400000Y-71400000D02*
X149600000Y-71400000D01*
X149600000Y-71400000D02*
X148100000Y-72900000D01*
D17*
X154300000Y-82600000D02*
X148300000Y-82600000D01*
X140100000Y-75700000D02*
X140000000Y-75700000D01*
X140000000Y-75700000D02*
X139000000Y-74700000D01*
%TA.AperFunction,Conductor*%
G36*
X156301303Y-68075593D02*
G01*
X156525907Y-68091657D01*
X156536356Y-68093158D01*
X156752517Y-68140181D01*
X156762624Y-68143149D01*
X156969883Y-68220453D01*
X156979483Y-68224838D01*
X157173624Y-68330847D01*
X157182506Y-68336554D01*
X157322463Y-68441325D01*
X157359584Y-68469113D01*
X157367563Y-68476027D01*
X157523972Y-68632436D01*
X157530886Y-68640415D01*
X157663444Y-68817492D01*
X157669152Y-68826375D01*
X157775161Y-69020516D01*
X157779547Y-69030119D01*
X157856845Y-69237361D01*
X157859820Y-69247492D01*
X157906840Y-69463642D01*
X157908342Y-69474093D01*
X157915418Y-69573014D01*
X157924406Y-69698697D01*
X157924500Y-69701315D01*
X157924500Y-84298684D01*
X157924406Y-84301303D01*
X157917102Y-84403435D01*
X157908342Y-84525906D01*
X157906840Y-84536357D01*
X157859820Y-84752507D01*
X157856845Y-84762638D01*
X157779547Y-84969880D01*
X157775161Y-84979483D01*
X157669152Y-85173624D01*
X157663444Y-85182507D01*
X157530886Y-85359584D01*
X157523972Y-85367563D01*
X157367563Y-85523972D01*
X157359584Y-85530886D01*
X157182507Y-85663444D01*
X157173624Y-85669152D01*
X156979483Y-85775161D01*
X156969880Y-85779547D01*
X156762638Y-85856845D01*
X156752507Y-85859820D01*
X156536357Y-85906840D01*
X156525906Y-85908342D01*
X156408425Y-85916745D01*
X156301302Y-85924406D01*
X156298685Y-85924500D01*
X135701315Y-85924500D01*
X135698697Y-85924406D01*
X135587025Y-85916419D01*
X135474093Y-85908342D01*
X135463642Y-85906840D01*
X135247492Y-85859820D01*
X135237366Y-85856846D01*
X135118871Y-85812650D01*
X135030119Y-85779547D01*
X135020516Y-85775161D01*
X134826375Y-85669152D01*
X134817492Y-85663444D01*
X134640415Y-85530886D01*
X134632436Y-85523972D01*
X134476027Y-85367563D01*
X134469113Y-85359584D01*
X134336555Y-85182507D01*
X134330847Y-85173624D01*
X134224838Y-84979483D01*
X134220452Y-84969880D01*
X134143149Y-84762624D01*
X134140181Y-84752517D01*
X134093158Y-84536356D01*
X134091657Y-84525906D01*
X134084582Y-84426986D01*
X134075593Y-84301304D01*
X134075500Y-84298684D01*
X134075500Y-82900000D01*
X141694353Y-82900000D01*
X141714834Y-83042454D01*
X141714834Y-83042455D01*
X141714835Y-83042457D01*
X141741342Y-83100499D01*
X141774623Y-83173373D01*
X141868868Y-83282139D01*
X141868869Y-83282140D01*
X141868872Y-83282143D01*
X141989947Y-83359953D01*
X142096403Y-83391211D01*
X142128035Y-83400499D01*
X142128037Y-83400500D01*
X142128039Y-83400500D01*
X142271963Y-83400500D01*
X142271964Y-83400499D01*
X142410053Y-83359953D01*
X142484285Y-83312246D01*
X142524292Y-83300500D01*
X145061933Y-83300500D01*
X145086753Y-83292434D01*
X145098032Y-83289727D01*
X145123804Y-83285646D01*
X145147053Y-83273798D01*
X145157772Y-83269359D01*
X145182590Y-83261296D01*
X145203698Y-83245959D01*
X145213600Y-83239892D01*
X145236840Y-83228051D01*
X145236842Y-83228050D01*
X145255189Y-83209702D01*
X145255194Y-83209698D01*
X145259407Y-83205485D01*
X145259409Y-83205484D01*
X145864893Y-82600000D01*
X147794353Y-82600000D01*
X147814834Y-82742454D01*
X147874623Y-82873373D01*
X147968868Y-82982139D01*
X147968869Y-82982140D01*
X147968872Y-82982143D01*
X148089947Y-83059953D01*
X148196403Y-83091211D01*
X148228035Y-83100499D01*
X148228037Y-83100500D01*
X148228039Y-83100500D01*
X148371963Y-83100500D01*
X148371964Y-83100499D01*
X148510053Y-83059953D01*
X148631128Y-82982143D01*
X148658079Y-82951039D01*
X148702312Y-82926430D01*
X148714004Y-82925500D01*
X153885996Y-82925500D01*
X153933562Y-82942813D01*
X153941917Y-82951035D01*
X153968872Y-82982143D01*
X154089947Y-83059953D01*
X154196403Y-83091211D01*
X154228035Y-83100499D01*
X154228037Y-83100500D01*
X154228039Y-83100500D01*
X154371963Y-83100500D01*
X154371964Y-83100499D01*
X154510053Y-83059953D01*
X154631128Y-82982143D01*
X154725377Y-82873373D01*
X154785165Y-82742457D01*
X154805647Y-82600000D01*
X154785165Y-82457543D01*
X154725377Y-82326627D01*
X154679403Y-82273570D01*
X154631131Y-82217860D01*
X154631129Y-82217859D01*
X154631128Y-82217857D01*
X154574182Y-82181260D01*
X154510054Y-82140047D01*
X154510050Y-82140046D01*
X154371964Y-82099500D01*
X154371961Y-82099500D01*
X154228039Y-82099500D01*
X154228036Y-82099500D01*
X154089949Y-82140046D01*
X154089945Y-82140047D01*
X153968875Y-82217855D01*
X153968872Y-82217857D01*
X153941920Y-82248960D01*
X153897688Y-82273570D01*
X153885996Y-82274500D01*
X148714004Y-82274500D01*
X148666438Y-82257187D01*
X148658082Y-82248964D01*
X148631128Y-82217857D01*
X148574182Y-82181260D01*
X148510054Y-82140047D01*
X148510050Y-82140046D01*
X148371964Y-82099500D01*
X148371961Y-82099500D01*
X148228039Y-82099500D01*
X148228036Y-82099500D01*
X148089949Y-82140046D01*
X148089945Y-82140047D01*
X147968875Y-82217855D01*
X147968868Y-82217860D01*
X147874623Y-82326626D01*
X147814834Y-82457545D01*
X147794353Y-82600000D01*
X145864893Y-82600000D01*
X146550016Y-81914876D01*
X146581492Y-81896202D01*
X146629309Y-81882161D01*
X146710053Y-81858453D01*
X146831128Y-81780643D01*
X146925377Y-81671873D01*
X146985165Y-81540957D01*
X147005647Y-81398500D01*
X146985165Y-81256043D01*
X146925377Y-81125127D01*
X146901814Y-81097934D01*
X146831131Y-81016360D01*
X146831129Y-81016359D01*
X146831128Y-81016357D01*
X146774182Y-80979760D01*
X146710054Y-80938547D01*
X146710050Y-80938546D01*
X146571964Y-80898000D01*
X146571961Y-80898000D01*
X146428039Y-80898000D01*
X146428036Y-80898000D01*
X146289949Y-80938546D01*
X146289945Y-80938547D01*
X146168875Y-81016355D01*
X146168868Y-81016360D01*
X146074623Y-81125126D01*
X146014834Y-81256044D01*
X146014834Y-81256045D01*
X146008057Y-81303175D01*
X145987137Y-81344968D01*
X144854281Y-82477826D01*
X144808405Y-82499218D01*
X144801955Y-82499500D01*
X142524292Y-82499500D01*
X142484285Y-82487753D01*
X142410054Y-82440047D01*
X142410050Y-82440046D01*
X142271964Y-82399500D01*
X142271961Y-82399500D01*
X142128039Y-82399500D01*
X142128036Y-82399500D01*
X141989949Y-82440046D01*
X141989945Y-82440047D01*
X141868875Y-82517855D01*
X141868868Y-82517860D01*
X141774623Y-82626626D01*
X141714834Y-82757545D01*
X141694353Y-82900000D01*
X134075500Y-82900000D01*
X134075500Y-80820003D01*
X155044571Y-80820003D01*
X155064242Y-81032303D01*
X155064243Y-81032309D01*
X155122593Y-81237383D01*
X155122596Y-81237393D01*
X155217632Y-81428252D01*
X155217634Y-81428255D01*
X155346128Y-81598407D01*
X155503698Y-81742052D01*
X155684981Y-81854298D01*
X155883802Y-81931321D01*
X156093390Y-81970500D01*
X156306610Y-81970500D01*
X156516198Y-81931321D01*
X156715019Y-81854298D01*
X156896302Y-81742052D01*
X157053872Y-81598407D01*
X157182366Y-81428255D01*
X157277405Y-81237389D01*
X157335756Y-81032310D01*
X157337235Y-81016357D01*
X157355429Y-80820003D01*
X157355429Y-80819996D01*
X157335757Y-80607696D01*
X157335756Y-80607690D01*
X157277405Y-80402611D01*
X157272468Y-80392697D01*
X157182367Y-80211747D01*
X157182363Y-80211741D01*
X157158569Y-80180233D01*
X157053872Y-80041593D01*
X157052383Y-80040236D01*
X157012094Y-80003507D01*
X156896302Y-79897948D01*
X156715019Y-79785702D01*
X156516198Y-79708679D01*
X156424150Y-79691472D01*
X156306613Y-79669500D01*
X156306610Y-79669500D01*
X156093390Y-79669500D01*
X156093386Y-79669500D01*
X155936670Y-79698796D01*
X155883802Y-79708679D01*
X155883800Y-79708679D01*
X155883798Y-79708680D01*
X155684986Y-79785700D01*
X155684981Y-79785702D01*
X155684976Y-79785704D01*
X155684976Y-79785705D01*
X155503700Y-79897946D01*
X155346130Y-80041590D01*
X155217636Y-80211741D01*
X155217632Y-80211747D01*
X155122596Y-80402606D01*
X155122593Y-80402616D01*
X155064243Y-80607690D01*
X155064242Y-80607696D01*
X155044571Y-80819996D01*
X155044571Y-80820003D01*
X134075500Y-80820003D01*
X134075500Y-79890000D01*
X139724534Y-79890000D01*
X139744312Y-80040234D01*
X139744312Y-80040235D01*
X139744875Y-80041593D01*
X139802302Y-80180233D01*
X139894549Y-80300451D01*
X140014767Y-80392698D01*
X140154764Y-80450687D01*
X140267280Y-80465500D01*
X140267282Y-80465500D01*
X140342718Y-80465500D01*
X140342720Y-80465500D01*
X140455236Y-80450687D01*
X140595233Y-80392698D01*
X140715451Y-80300451D01*
X140807698Y-80180233D01*
X140865687Y-80040236D01*
X140885466Y-79890000D01*
X140865687Y-79739764D01*
X140807698Y-79599767D01*
X140715451Y-79479549D01*
X140595233Y-79387302D01*
X140455235Y-79329312D01*
X140368897Y-79317946D01*
X140342720Y-79314500D01*
X140267280Y-79314500D01*
X140241102Y-79317946D01*
X140154765Y-79329312D01*
X140154764Y-79329312D01*
X140014766Y-79387302D01*
X139894549Y-79479549D01*
X139802302Y-79599766D01*
X139744312Y-79739764D01*
X139744312Y-79739765D01*
X139724534Y-79890000D01*
X134075500Y-79890000D01*
X134075500Y-78580000D01*
X155089714Y-78580000D01*
X155123061Y-78697202D01*
X155123064Y-78697212D01*
X155218059Y-78887988D01*
X155218063Y-78887994D01*
X155346501Y-79058071D01*
X155504003Y-79201653D01*
X155685200Y-79313844D01*
X155685210Y-79313849D01*
X155883944Y-79390839D01*
X155883941Y-79390839D01*
X155899999Y-79393840D01*
X155900000Y-79393840D01*
X155900000Y-78681643D01*
X155926900Y-78704952D01*
X156057685Y-78764680D01*
X156164237Y-78780000D01*
X156235763Y-78780000D01*
X156342315Y-78764680D01*
X156473100Y-78704952D01*
X156500000Y-78681643D01*
X156500000Y-79393840D01*
X156516057Y-79390839D01*
X156714789Y-79313849D01*
X156714799Y-79313844D01*
X156895996Y-79201653D01*
X157053498Y-79058071D01*
X157181936Y-78887994D01*
X157181940Y-78887988D01*
X157276935Y-78697212D01*
X157276938Y-78697202D01*
X157310286Y-78580000D01*
X156601554Y-78580000D01*
X156659493Y-78489844D01*
X156700000Y-78351889D01*
X156700000Y-78208111D01*
X156659493Y-78070156D01*
X156601554Y-77980000D01*
X157310286Y-77980000D01*
X157276938Y-77862797D01*
X157276935Y-77862787D01*
X157181940Y-77672011D01*
X157181936Y-77672005D01*
X157053498Y-77501928D01*
X156895996Y-77358346D01*
X156714799Y-77246155D01*
X156714789Y-77246150D01*
X156516063Y-77169162D01*
X156500000Y-77166159D01*
X156500000Y-77878356D01*
X156473100Y-77855048D01*
X156342315Y-77795320D01*
X156235763Y-77780000D01*
X156164237Y-77780000D01*
X156057685Y-77795320D01*
X155926900Y-77855048D01*
X155900000Y-77878356D01*
X155900000Y-77166159D01*
X155899999Y-77166159D01*
X155883936Y-77169162D01*
X155685210Y-77246150D01*
X155685200Y-77246155D01*
X155504003Y-77358346D01*
X155346501Y-77501928D01*
X155218063Y-77672005D01*
X155218059Y-77672011D01*
X155123064Y-77862787D01*
X155123061Y-77862797D01*
X155089714Y-77980000D01*
X155798446Y-77980000D01*
X155740507Y-78070156D01*
X155700000Y-78208111D01*
X155700000Y-78351889D01*
X155740507Y-78489844D01*
X155798446Y-78580000D01*
X155089714Y-78580000D01*
X134075500Y-78580000D01*
X134075500Y-77600000D01*
X146694353Y-77600000D01*
X146714834Y-77742454D01*
X146714834Y-77742455D01*
X146714835Y-77742457D01*
X146769793Y-77862797D01*
X146774623Y-77873373D01*
X146868868Y-77982139D01*
X146868869Y-77982140D01*
X146868872Y-77982143D01*
X146989947Y-78059953D01*
X147096403Y-78091211D01*
X147128035Y-78100499D01*
X147128037Y-78100500D01*
X147128039Y-78100500D01*
X147271963Y-78100500D01*
X147271964Y-78100499D01*
X147410053Y-78059953D01*
X147531128Y-77982143D01*
X147625377Y-77873373D01*
X147685165Y-77742457D01*
X147691941Y-77695324D01*
X147712860Y-77653531D01*
X148605484Y-76760909D01*
X148605485Y-76760906D01*
X148609698Y-76756694D01*
X148609702Y-76756689D01*
X148628050Y-76738342D01*
X148639892Y-76715098D01*
X148645961Y-76705196D01*
X148661296Y-76684090D01*
X148669359Y-76659272D01*
X148673798Y-76648553D01*
X148685646Y-76625304D01*
X148689727Y-76599532D01*
X148692434Y-76588253D01*
X148700500Y-76563433D01*
X148700500Y-76436567D01*
X148700500Y-75740003D01*
X155044571Y-75740003D01*
X155064242Y-75952303D01*
X155064243Y-75952309D01*
X155122593Y-76157383D01*
X155122596Y-76157393D01*
X155217632Y-76348252D01*
X155217634Y-76348255D01*
X155346128Y-76518407D01*
X155503698Y-76662052D01*
X155684981Y-76774298D01*
X155883802Y-76851321D01*
X156093390Y-76890500D01*
X156306610Y-76890500D01*
X156516198Y-76851321D01*
X156715019Y-76774298D01*
X156896302Y-76662052D01*
X157053872Y-76518407D01*
X157182366Y-76348255D01*
X157277405Y-76157389D01*
X157335756Y-75952310D01*
X157345936Y-75842454D01*
X157355429Y-75740003D01*
X157355429Y-75739996D01*
X157335757Y-75527696D01*
X157335756Y-75527690D01*
X157277405Y-75322611D01*
X157275039Y-75317860D01*
X157182367Y-75131747D01*
X157182363Y-75131741D01*
X157144905Y-75082139D01*
X157053872Y-74961593D01*
X156896302Y-74817948D01*
X156715019Y-74705702D01*
X156516198Y-74628679D01*
X156424150Y-74611472D01*
X156306613Y-74589500D01*
X156306610Y-74589500D01*
X156093390Y-74589500D01*
X156093386Y-74589500D01*
X155969292Y-74612698D01*
X155883802Y-74628679D01*
X155883800Y-74628679D01*
X155883798Y-74628680D01*
X155692074Y-74702954D01*
X155684981Y-74705702D01*
X155684976Y-74705704D01*
X155684976Y-74705705D01*
X155503700Y-74817946D01*
X155346130Y-74961590D01*
X155217636Y-75131741D01*
X155217632Y-75131747D01*
X155122596Y-75322606D01*
X155122593Y-75322616D01*
X155064243Y-75527690D01*
X155064242Y-75527696D01*
X155044571Y-75739996D01*
X155044571Y-75740003D01*
X148700500Y-75740003D01*
X148700500Y-75196544D01*
X148717813Y-75148978D01*
X148722174Y-75144218D01*
X149345942Y-74520450D01*
X149771528Y-74094863D01*
X155049500Y-74094863D01*
X155052414Y-74119986D01*
X155052415Y-74119992D01*
X155097794Y-74222765D01*
X155177235Y-74302206D01*
X155280009Y-74347585D01*
X155305135Y-74350500D01*
X157094864Y-74350499D01*
X157119991Y-74347585D01*
X157222765Y-74302206D01*
X157302206Y-74222765D01*
X157347585Y-74119991D01*
X157350500Y-74094865D01*
X157350499Y-72305136D01*
X157347585Y-72280009D01*
X157302206Y-72177235D01*
X157222765Y-72097794D01*
X157119991Y-72052415D01*
X157119990Y-72052414D01*
X157119988Y-72052414D01*
X157098659Y-72049940D01*
X157094865Y-72049500D01*
X157094864Y-72049500D01*
X155305136Y-72049500D01*
X155280013Y-72052414D01*
X155280007Y-72052415D01*
X155177234Y-72097794D01*
X155097794Y-72177234D01*
X155052414Y-72280011D01*
X155049500Y-72305135D01*
X155049500Y-74094863D01*
X149771528Y-74094863D01*
X150150015Y-73716376D01*
X150181488Y-73697702D01*
X150310053Y-73659953D01*
X150431128Y-73582143D01*
X150525377Y-73473373D01*
X150585165Y-73342457D01*
X150605647Y-73200000D01*
X150585165Y-73057543D01*
X150525377Y-72926627D01*
X150472957Y-72866131D01*
X150431131Y-72817860D01*
X150431129Y-72817859D01*
X150431128Y-72817857D01*
X150374182Y-72781260D01*
X150310054Y-72740047D01*
X150310050Y-72740046D01*
X150171964Y-72699500D01*
X150171961Y-72699500D01*
X150028039Y-72699500D01*
X150028036Y-72699500D01*
X149889949Y-72740046D01*
X149889945Y-72740047D01*
X149768875Y-72817855D01*
X149768868Y-72817860D01*
X149674623Y-72926626D01*
X149614834Y-73057545D01*
X149608058Y-73104675D01*
X149587137Y-73146469D01*
X147994520Y-74739086D01*
X147994517Y-74739090D01*
X147994516Y-74739091D01*
X147994513Y-74739094D01*
X147971950Y-74761658D01*
X147971949Y-74761659D01*
X147960107Y-74784900D01*
X147954043Y-74794796D01*
X147938703Y-74815911D01*
X147938702Y-74815912D01*
X147930641Y-74840722D01*
X147926200Y-74851446D01*
X147914352Y-74874699D01*
X147914351Y-74874702D01*
X147910270Y-74900467D01*
X147907562Y-74911751D01*
X147899500Y-74936568D01*
X147899500Y-76303455D01*
X147882187Y-76351021D01*
X147877826Y-76355781D01*
X147149985Y-77083621D01*
X147118508Y-77102297D01*
X146989947Y-77140046D01*
X146989945Y-77140047D01*
X146868875Y-77217855D01*
X146868868Y-77217860D01*
X146774623Y-77326626D01*
X146714834Y-77457545D01*
X146694353Y-77600000D01*
X134075500Y-77600000D01*
X134075500Y-74700000D01*
X138494353Y-74700000D01*
X138514834Y-74842454D01*
X138514834Y-74842455D01*
X138514835Y-74842457D01*
X138529560Y-74874699D01*
X138574623Y-74973373D01*
X138668868Y-75082139D01*
X138668869Y-75082140D01*
X138668872Y-75082143D01*
X138746058Y-75131747D01*
X138772869Y-75148978D01*
X138789947Y-75159953D01*
X138871627Y-75183936D01*
X138928035Y-75200499D01*
X138928037Y-75200500D01*
X138928039Y-75200500D01*
X139009522Y-75200500D01*
X139057088Y-75217813D01*
X139061848Y-75222174D01*
X139586118Y-75746444D01*
X139607039Y-75788237D01*
X139614835Y-75842457D01*
X139665001Y-75952303D01*
X139674623Y-75973373D01*
X139768868Y-76082139D01*
X139768869Y-76082140D01*
X139768872Y-76082143D01*
X139861474Y-76141654D01*
X139885963Y-76157393D01*
X139889947Y-76159953D01*
X139996403Y-76191211D01*
X140028035Y-76200499D01*
X140028037Y-76200500D01*
X140028039Y-76200500D01*
X140171963Y-76200500D01*
X140171964Y-76200499D01*
X140310053Y-76159953D01*
X140431128Y-76082143D01*
X140525377Y-75973373D01*
X140585165Y-75842457D01*
X140605647Y-75700000D01*
X140585165Y-75557543D01*
X140525377Y-75426627D01*
X140435252Y-75322616D01*
X140431131Y-75317860D01*
X140431129Y-75317859D01*
X140431128Y-75317857D01*
X140374182Y-75281260D01*
X140310054Y-75240047D01*
X140310050Y-75240046D01*
X140171964Y-75199500D01*
X140171961Y-75199500D01*
X140028039Y-75199500D01*
X140028035Y-75199500D01*
X140017433Y-75202613D01*
X139966917Y-75199401D01*
X139944262Y-75183936D01*
X139526142Y-74765816D01*
X139504750Y-74719940D01*
X139505222Y-74702954D01*
X139505647Y-74700000D01*
X139485165Y-74557543D01*
X139425377Y-74426627D01*
X139359412Y-74350499D01*
X139331131Y-74317860D01*
X139331129Y-74317859D01*
X139331128Y-74317857D01*
X139241468Y-74260236D01*
X139210054Y-74240047D01*
X139210050Y-74240046D01*
X139071964Y-74199500D01*
X139071961Y-74199500D01*
X138928039Y-74199500D01*
X138928036Y-74199500D01*
X138789949Y-74240046D01*
X138789945Y-74240047D01*
X138668875Y-74317855D01*
X138668868Y-74317860D01*
X138574623Y-74426626D01*
X138514834Y-74557545D01*
X138494353Y-74700000D01*
X134075500Y-74700000D01*
X134075500Y-74110000D01*
X139724534Y-74110000D01*
X139744312Y-74260234D01*
X139744312Y-74260235D01*
X139780494Y-74347584D01*
X139802302Y-74400233D01*
X139894549Y-74520451D01*
X140014767Y-74612698D01*
X140154764Y-74670687D01*
X140267280Y-74685500D01*
X140267282Y-74685500D01*
X140342718Y-74685500D01*
X140342720Y-74685500D01*
X140455236Y-74670687D01*
X140595233Y-74612698D01*
X140715451Y-74520451D01*
X140807698Y-74400233D01*
X140865687Y-74260236D01*
X140885466Y-74110000D01*
X140865687Y-73959764D01*
X140807698Y-73819767D01*
X140715451Y-73699549D01*
X140595233Y-73607302D01*
X140534497Y-73582144D01*
X140455235Y-73549312D01*
X140368897Y-73537946D01*
X140342720Y-73534500D01*
X140267280Y-73534500D01*
X140241102Y-73537946D01*
X140154765Y-73549312D01*
X140154764Y-73549312D01*
X140014766Y-73607302D01*
X139894549Y-73699549D01*
X139802302Y-73819766D01*
X139744312Y-73959764D01*
X139744312Y-73959765D01*
X139724534Y-74110000D01*
X134075500Y-74110000D01*
X134075500Y-72900000D01*
X147594353Y-72900000D01*
X147614834Y-73042454D01*
X147614834Y-73042455D01*
X147614835Y-73042457D01*
X147654383Y-73129054D01*
X147674623Y-73173373D01*
X147768868Y-73282139D01*
X147768869Y-73282140D01*
X147768872Y-73282143D01*
X147889947Y-73359953D01*
X147996403Y-73391211D01*
X148028035Y-73400499D01*
X148028037Y-73400500D01*
X148028039Y-73400500D01*
X148171963Y-73400500D01*
X148171964Y-73400499D01*
X148310053Y-73359953D01*
X148431128Y-73282143D01*
X148525377Y-73173373D01*
X148585165Y-73042457D01*
X148605647Y-72900000D01*
X148600776Y-72866127D01*
X148611142Y-72816585D01*
X148621693Y-72803276D01*
X149702797Y-71722174D01*
X149748674Y-71700782D01*
X149755123Y-71700500D01*
X150964333Y-71700500D01*
X151011899Y-71717813D01*
X151020259Y-71726041D01*
X151068868Y-71782139D01*
X151068871Y-71782142D01*
X151068872Y-71782143D01*
X151189947Y-71859953D01*
X151296403Y-71891211D01*
X151328035Y-71900499D01*
X151328037Y-71900500D01*
X151328039Y-71900500D01*
X151471963Y-71900500D01*
X151471964Y-71900499D01*
X151610053Y-71859953D01*
X151731128Y-71782143D01*
X151825377Y-71673373D01*
X151885165Y-71542457D01*
X151905647Y-71400000D01*
X151885165Y-71257543D01*
X151825377Y-71126627D01*
X151731128Y-71017857D01*
X151674182Y-70981260D01*
X151610054Y-70940047D01*
X151610050Y-70940046D01*
X151471964Y-70899500D01*
X151471961Y-70899500D01*
X151328039Y-70899500D01*
X151328036Y-70899500D01*
X151189949Y-70940046D01*
X151189945Y-70940047D01*
X151068871Y-71017857D01*
X151068868Y-71017860D01*
X151020259Y-71073959D01*
X150976025Y-71098570D01*
X150964333Y-71099500D01*
X149661087Y-71099500D01*
X149649110Y-71097546D01*
X149649023Y-71098174D01*
X149642234Y-71097226D01*
X149610971Y-71098672D01*
X149593896Y-71099461D01*
X149592212Y-71099500D01*
X149572149Y-71099500D01*
X149567815Y-71100311D01*
X149562725Y-71100902D01*
X149536594Y-71102110D01*
X149530006Y-71102415D01*
X149530004Y-71102416D01*
X149518356Y-71107558D01*
X149502075Y-71112600D01*
X149489567Y-71114938D01*
X149489563Y-71114940D01*
X149461732Y-71132171D01*
X149457197Y-71134562D01*
X149427239Y-71147790D01*
X149427232Y-71147795D01*
X149418230Y-71156797D01*
X149404868Y-71167380D01*
X149394050Y-71174079D01*
X149394044Y-71174084D01*
X149374316Y-71200208D01*
X149370949Y-71204077D01*
X148197201Y-72377826D01*
X148151325Y-72399218D01*
X148144875Y-72399500D01*
X148028036Y-72399500D01*
X147889949Y-72440046D01*
X147889945Y-72440047D01*
X147768875Y-72517855D01*
X147768868Y-72517860D01*
X147674623Y-72626626D01*
X147614834Y-72757545D01*
X147594353Y-72900000D01*
X134075500Y-72900000D01*
X134075500Y-69701315D01*
X134075593Y-69698696D01*
X134091657Y-69474090D01*
X134093159Y-69463642D01*
X134140182Y-69247479D01*
X134143148Y-69237379D01*
X134220455Y-69030111D01*
X134224838Y-69020516D01*
X134330847Y-68826375D01*
X134336550Y-68817499D01*
X134469120Y-68640406D01*
X134476020Y-68632443D01*
X134632443Y-68476020D01*
X134640406Y-68469120D01*
X134817499Y-68336550D01*
X134826375Y-68330847D01*
X135020516Y-68224838D01*
X135030111Y-68220455D01*
X135237379Y-68143148D01*
X135247479Y-68140182D01*
X135463645Y-68093158D01*
X135474090Y-68091657D01*
X135698696Y-68075593D01*
X135701315Y-68075500D01*
X135724531Y-68075500D01*
X156275469Y-68075500D01*
X156298685Y-68075500D01*
X156301303Y-68075593D01*
G37*
%TD.AperFunction*%
M02*
