M48
; DRILL file {KiCad 7.0.8-7.0.8~ubuntu22.04.1} date Mon 30 Oct 2023 09:28:17 AM CET
; FORMAT={-:-/ absolute / metric / decimal}
; #@! TF.CreationDate,2023-10-30T09:28:17+01:00
; #@! TF.GenerationSoftware,Kicad,Pcbnew,7.0.8-7.0.8~ubuntu22.04.1
; #@! TF.FileFunction,Plated,1,2,PTH
FMAT,2
METRIC
; #@! TA.AperFunction,Plated,PTH,ViaDrill
T1C0.300
; #@! TA.AperFunction,Plated,PTH,ComponentDrill
T2C0.600
; #@! TA.AperFunction,Plated,PTH,ComponentDrill
T3C1.000
%
G90
G05
T1
X137.0Y-71.0
X137.3Y-82.2
X139.0Y-74.7
X140.1Y-75.7
X142.2Y-82.9
X142.9Y-74.2
X143.9Y-76.8
X143.9Y-81.9
X144.0Y-73.8
X144.9Y-70.4
X146.4Y-82.6
X146.5Y-81.398
X146.9Y-72.5
X147.2Y-77.6
X147.4Y-75.2
X148.1Y-72.9
X148.2Y-80.0
X148.3Y-82.6
X149.2Y-75.2
X150.1Y-73.2
X150.2Y-70.4
X150.2Y-77.1
X151.4Y-71.4
X152.6Y-81.2
X152.8Y-76.3
X152.9Y-70.7
X153.1Y-83.3
X154.3Y-82.6
T3
X156.2Y-73.2
X156.2Y-75.74
X156.2Y-78.28
X156.2Y-80.82
T2
X137.025Y-72.68G85X136.225Y-72.68
G05
X137.025Y-81.32G85X136.225Y-81.32
G05
X141.355Y-72.68G85X140.255Y-72.68
G05
X141.355Y-81.32G85X140.255Y-81.32
G05
T0
M30
