%TF.GenerationSoftware,KiCad,Pcbnew,7.0.8-7.0.8~ubuntu22.04.1*%
%TF.CreationDate,2023-10-30T09:28:17+01:00*%
%TF.ProjectId,usb2serial-autovtg,75736232-7365-4726-9961-6c2d6175746f,rev?*%
%TF.SameCoordinates,Original*%
%TF.FileFunction,Drillmap*%
%TF.FilePolarity,Positive*%
%FSLAX45Y45*%
G04 Gerber Fmt 4.5, Leading zero omitted, Abs format (unit mm)*
G04 Created by KiCad (PCBNEW 7.0.8-7.0.8~ubuntu22.04.1) date 2023-10-30 09:28:17*
%MOMM*%
%LPD*%
G01*
G04 APERTURE LIST*
%ADD10C,0.150000*%
%ADD11C,0.200000*%
%ADD12C,0.065000*%
G04 APERTURE END LIST*
D10*
X15630000Y-8600000D02*
X13570000Y-8600000D01*
X13570000Y-6800000D02*
X15630000Y-6800000D01*
X15630000Y-8600000D02*
G75*
G03*
X15800000Y-8430000I0J170000D01*
G01*
X13400000Y-8430000D02*
X13400000Y-6970000D01*
X13570000Y-6800000D02*
G75*
G03*
X13400000Y-6970000I0J-170000D01*
G01*
X15800000Y-6970000D02*
G75*
G03*
X15630000Y-6800000I-170000J0D01*
G01*
X13400000Y-8430000D02*
G75*
G03*
X13570000Y-8600000I170000J0D01*
G01*
X15800000Y-6970000D02*
X15800000Y-8430000D01*
D11*
D12*
X13998000Y-7378500D02*
X14063000Y-7443500D01*
X14063000Y-7378500D02*
X13998000Y-7443500D01*
X13998000Y-7956500D02*
X14063000Y-8021500D01*
X14063000Y-7956500D02*
X13998000Y-8021500D01*
D11*
X13653277Y-8918984D02*
X13653277Y-8718984D01*
X13653277Y-8718984D02*
X13700896Y-8718984D01*
X13700896Y-8718984D02*
X13729467Y-8728508D01*
X13729467Y-8728508D02*
X13748515Y-8747555D01*
X13748515Y-8747555D02*
X13758039Y-8766603D01*
X13758039Y-8766603D02*
X13767562Y-8804698D01*
X13767562Y-8804698D02*
X13767562Y-8833270D01*
X13767562Y-8833270D02*
X13758039Y-8871365D01*
X13758039Y-8871365D02*
X13748515Y-8890412D01*
X13748515Y-8890412D02*
X13729467Y-8909460D01*
X13729467Y-8909460D02*
X13700896Y-8918984D01*
X13700896Y-8918984D02*
X13653277Y-8918984D01*
X13853277Y-8918984D02*
X13853277Y-8785650D01*
X13853277Y-8823746D02*
X13862801Y-8804698D01*
X13862801Y-8804698D02*
X13872324Y-8795174D01*
X13872324Y-8795174D02*
X13891372Y-8785650D01*
X13891372Y-8785650D02*
X13910420Y-8785650D01*
X13977086Y-8918984D02*
X13977086Y-8785650D01*
X13977086Y-8718984D02*
X13967562Y-8728508D01*
X13967562Y-8728508D02*
X13977086Y-8738031D01*
X13977086Y-8738031D02*
X13986610Y-8728508D01*
X13986610Y-8728508D02*
X13977086Y-8718984D01*
X13977086Y-8718984D02*
X13977086Y-8738031D01*
X14100896Y-8918984D02*
X14081848Y-8909460D01*
X14081848Y-8909460D02*
X14072324Y-8890412D01*
X14072324Y-8890412D02*
X14072324Y-8718984D01*
X14205658Y-8918984D02*
X14186610Y-8909460D01*
X14186610Y-8909460D02*
X14177086Y-8890412D01*
X14177086Y-8890412D02*
X14177086Y-8718984D01*
X14434229Y-8918984D02*
X14434229Y-8718984D01*
X14434229Y-8718984D02*
X14500896Y-8861841D01*
X14500896Y-8861841D02*
X14567562Y-8718984D01*
X14567562Y-8718984D02*
X14567562Y-8918984D01*
X14748515Y-8918984D02*
X14748515Y-8814222D01*
X14748515Y-8814222D02*
X14738991Y-8795174D01*
X14738991Y-8795174D02*
X14719943Y-8785650D01*
X14719943Y-8785650D02*
X14681848Y-8785650D01*
X14681848Y-8785650D02*
X14662801Y-8795174D01*
X14748515Y-8909460D02*
X14729467Y-8918984D01*
X14729467Y-8918984D02*
X14681848Y-8918984D01*
X14681848Y-8918984D02*
X14662801Y-8909460D01*
X14662801Y-8909460D02*
X14653277Y-8890412D01*
X14653277Y-8890412D02*
X14653277Y-8871365D01*
X14653277Y-8871365D02*
X14662801Y-8852317D01*
X14662801Y-8852317D02*
X14681848Y-8842793D01*
X14681848Y-8842793D02*
X14729467Y-8842793D01*
X14729467Y-8842793D02*
X14748515Y-8833270D01*
X14843753Y-8785650D02*
X14843753Y-8985650D01*
X14843753Y-8795174D02*
X14862801Y-8785650D01*
X14862801Y-8785650D02*
X14900896Y-8785650D01*
X14900896Y-8785650D02*
X14919943Y-8795174D01*
X14919943Y-8795174D02*
X14929467Y-8804698D01*
X14929467Y-8804698D02*
X14938991Y-8823746D01*
X14938991Y-8823746D02*
X14938991Y-8880889D01*
X14938991Y-8880889D02*
X14929467Y-8899936D01*
X14929467Y-8899936D02*
X14919943Y-8909460D01*
X14919943Y-8909460D02*
X14900896Y-8918984D01*
X14900896Y-8918984D02*
X14862801Y-8918984D01*
X14862801Y-8918984D02*
X14843753Y-8909460D01*
X15024705Y-8899936D02*
X15034229Y-8909460D01*
X15034229Y-8909460D02*
X15024705Y-8918984D01*
X15024705Y-8918984D02*
X15015182Y-8909460D01*
X15015182Y-8909460D02*
X15024705Y-8899936D01*
X15024705Y-8899936D02*
X15024705Y-8918984D01*
X15024705Y-8795174D02*
X15034229Y-8804698D01*
X15034229Y-8804698D02*
X15024705Y-8814222D01*
X15024705Y-8814222D02*
X15015182Y-8804698D01*
X15015182Y-8804698D02*
X15024705Y-8795174D01*
X15024705Y-8795174D02*
X15024705Y-8814222D01*
D12*
X13327500Y-9215000D02*
X13392500Y-9280000D01*
X13392500Y-9215000D02*
X13327500Y-9280000D01*
D11*
X13691372Y-9138984D02*
X13710420Y-9138984D01*
X13710420Y-9138984D02*
X13729467Y-9148508D01*
X13729467Y-9148508D02*
X13738991Y-9158031D01*
X13738991Y-9158031D02*
X13748515Y-9177079D01*
X13748515Y-9177079D02*
X13758039Y-9215174D01*
X13758039Y-9215174D02*
X13758039Y-9262793D01*
X13758039Y-9262793D02*
X13748515Y-9300889D01*
X13748515Y-9300889D02*
X13738991Y-9319936D01*
X13738991Y-9319936D02*
X13729467Y-9329460D01*
X13729467Y-9329460D02*
X13710420Y-9338984D01*
X13710420Y-9338984D02*
X13691372Y-9338984D01*
X13691372Y-9338984D02*
X13672324Y-9329460D01*
X13672324Y-9329460D02*
X13662801Y-9319936D01*
X13662801Y-9319936D02*
X13653277Y-9300889D01*
X13653277Y-9300889D02*
X13643753Y-9262793D01*
X13643753Y-9262793D02*
X13643753Y-9215174D01*
X13643753Y-9215174D02*
X13653277Y-9177079D01*
X13653277Y-9177079D02*
X13662801Y-9158031D01*
X13662801Y-9158031D02*
X13672324Y-9148508D01*
X13672324Y-9148508D02*
X13691372Y-9138984D01*
X13843753Y-9319936D02*
X13853277Y-9329460D01*
X13853277Y-9329460D02*
X13843753Y-9338984D01*
X13843753Y-9338984D02*
X13834229Y-9329460D01*
X13834229Y-9329460D02*
X13843753Y-9319936D01*
X13843753Y-9319936D02*
X13843753Y-9338984D01*
X14024705Y-9138984D02*
X13986610Y-9138984D01*
X13986610Y-9138984D02*
X13967562Y-9148508D01*
X13967562Y-9148508D02*
X13958039Y-9158031D01*
X13958039Y-9158031D02*
X13938991Y-9186603D01*
X13938991Y-9186603D02*
X13929467Y-9224698D01*
X13929467Y-9224698D02*
X13929467Y-9300889D01*
X13929467Y-9300889D02*
X13938991Y-9319936D01*
X13938991Y-9319936D02*
X13948515Y-9329460D01*
X13948515Y-9329460D02*
X13967562Y-9338984D01*
X13967562Y-9338984D02*
X14005658Y-9338984D01*
X14005658Y-9338984D02*
X14024705Y-9329460D01*
X14024705Y-9329460D02*
X14034229Y-9319936D01*
X14034229Y-9319936D02*
X14043753Y-9300889D01*
X14043753Y-9300889D02*
X14043753Y-9253270D01*
X14043753Y-9253270D02*
X14034229Y-9234222D01*
X14034229Y-9234222D02*
X14024705Y-9224698D01*
X14024705Y-9224698D02*
X14005658Y-9215174D01*
X14005658Y-9215174D02*
X13967562Y-9215174D01*
X13967562Y-9215174D02*
X13948515Y-9224698D01*
X13948515Y-9224698D02*
X13938991Y-9234222D01*
X13938991Y-9234222D02*
X13929467Y-9253270D01*
X14224705Y-9138984D02*
X14129467Y-9138984D01*
X14129467Y-9138984D02*
X14119943Y-9234222D01*
X14119943Y-9234222D02*
X14129467Y-9224698D01*
X14129467Y-9224698D02*
X14148515Y-9215174D01*
X14148515Y-9215174D02*
X14196134Y-9215174D01*
X14196134Y-9215174D02*
X14215182Y-9224698D01*
X14215182Y-9224698D02*
X14224705Y-9234222D01*
X14224705Y-9234222D02*
X14234229Y-9253270D01*
X14234229Y-9253270D02*
X14234229Y-9300889D01*
X14234229Y-9300889D02*
X14224705Y-9319936D01*
X14224705Y-9319936D02*
X14215182Y-9329460D01*
X14215182Y-9329460D02*
X14196134Y-9338984D01*
X14196134Y-9338984D02*
X14148515Y-9338984D01*
X14148515Y-9338984D02*
X14129467Y-9329460D01*
X14129467Y-9329460D02*
X14119943Y-9319936D01*
X14358039Y-9138984D02*
X14377086Y-9138984D01*
X14377086Y-9138984D02*
X14396134Y-9148508D01*
X14396134Y-9148508D02*
X14405658Y-9158031D01*
X14405658Y-9158031D02*
X14415182Y-9177079D01*
X14415182Y-9177079D02*
X14424705Y-9215174D01*
X14424705Y-9215174D02*
X14424705Y-9262793D01*
X14424705Y-9262793D02*
X14415182Y-9300889D01*
X14415182Y-9300889D02*
X14405658Y-9319936D01*
X14405658Y-9319936D02*
X14396134Y-9329460D01*
X14396134Y-9329460D02*
X14377086Y-9338984D01*
X14377086Y-9338984D02*
X14358039Y-9338984D01*
X14358039Y-9338984D02*
X14338991Y-9329460D01*
X14338991Y-9329460D02*
X14329467Y-9319936D01*
X14329467Y-9319936D02*
X14319943Y-9300889D01*
X14319943Y-9300889D02*
X14310420Y-9262793D01*
X14310420Y-9262793D02*
X14310420Y-9215174D01*
X14310420Y-9215174D02*
X14319943Y-9177079D01*
X14319943Y-9177079D02*
X14329467Y-9158031D01*
X14329467Y-9158031D02*
X14338991Y-9148508D01*
X14338991Y-9148508D02*
X14358039Y-9138984D01*
X14510420Y-9338984D02*
X14510420Y-9205650D01*
X14510420Y-9224698D02*
X14519943Y-9215174D01*
X14519943Y-9215174D02*
X14538991Y-9205650D01*
X14538991Y-9205650D02*
X14567563Y-9205650D01*
X14567563Y-9205650D02*
X14586610Y-9215174D01*
X14586610Y-9215174D02*
X14596134Y-9234222D01*
X14596134Y-9234222D02*
X14596134Y-9338984D01*
X14596134Y-9234222D02*
X14605658Y-9215174D01*
X14605658Y-9215174D02*
X14624705Y-9205650D01*
X14624705Y-9205650D02*
X14653277Y-9205650D01*
X14653277Y-9205650D02*
X14672324Y-9215174D01*
X14672324Y-9215174D02*
X14681848Y-9234222D01*
X14681848Y-9234222D02*
X14681848Y-9338984D01*
X14777086Y-9338984D02*
X14777086Y-9205650D01*
X14777086Y-9224698D02*
X14786610Y-9215174D01*
X14786610Y-9215174D02*
X14805658Y-9205650D01*
X14805658Y-9205650D02*
X14834229Y-9205650D01*
X14834229Y-9205650D02*
X14853277Y-9215174D01*
X14853277Y-9215174D02*
X14862801Y-9234222D01*
X14862801Y-9234222D02*
X14862801Y-9338984D01*
X14862801Y-9234222D02*
X14872324Y-9215174D01*
X14872324Y-9215174D02*
X14891372Y-9205650D01*
X14891372Y-9205650D02*
X14919943Y-9205650D01*
X14919943Y-9205650D02*
X14938991Y-9215174D01*
X14938991Y-9215174D02*
X14948515Y-9234222D01*
X14948515Y-9234222D02*
X14948515Y-9338984D01*
X15338991Y-9129460D02*
X15167563Y-9386603D01*
X15596134Y-9138984D02*
X15615182Y-9138984D01*
X15615182Y-9138984D02*
X15634229Y-9148508D01*
X15634229Y-9148508D02*
X15643753Y-9158031D01*
X15643753Y-9158031D02*
X15653277Y-9177079D01*
X15653277Y-9177079D02*
X15662801Y-9215174D01*
X15662801Y-9215174D02*
X15662801Y-9262793D01*
X15662801Y-9262793D02*
X15653277Y-9300889D01*
X15653277Y-9300889D02*
X15643753Y-9319936D01*
X15643753Y-9319936D02*
X15634229Y-9329460D01*
X15634229Y-9329460D02*
X15615182Y-9338984D01*
X15615182Y-9338984D02*
X15596134Y-9338984D01*
X15596134Y-9338984D02*
X15577086Y-9329460D01*
X15577086Y-9329460D02*
X15567563Y-9319936D01*
X15567563Y-9319936D02*
X15558039Y-9300889D01*
X15558039Y-9300889D02*
X15548515Y-9262793D01*
X15548515Y-9262793D02*
X15548515Y-9215174D01*
X15548515Y-9215174D02*
X15558039Y-9177079D01*
X15558039Y-9177079D02*
X15567563Y-9158031D01*
X15567563Y-9158031D02*
X15577086Y-9148508D01*
X15577086Y-9148508D02*
X15596134Y-9138984D01*
X15748515Y-9319936D02*
X15758039Y-9329460D01*
X15758039Y-9329460D02*
X15748515Y-9338984D01*
X15748515Y-9338984D02*
X15738991Y-9329460D01*
X15738991Y-9329460D02*
X15748515Y-9319936D01*
X15748515Y-9319936D02*
X15748515Y-9338984D01*
X15881848Y-9138984D02*
X15900896Y-9138984D01*
X15900896Y-9138984D02*
X15919944Y-9148508D01*
X15919944Y-9148508D02*
X15929467Y-9158031D01*
X15929467Y-9158031D02*
X15938991Y-9177079D01*
X15938991Y-9177079D02*
X15948515Y-9215174D01*
X15948515Y-9215174D02*
X15948515Y-9262793D01*
X15948515Y-9262793D02*
X15938991Y-9300889D01*
X15938991Y-9300889D02*
X15929467Y-9319936D01*
X15929467Y-9319936D02*
X15919944Y-9329460D01*
X15919944Y-9329460D02*
X15900896Y-9338984D01*
X15900896Y-9338984D02*
X15881848Y-9338984D01*
X15881848Y-9338984D02*
X15862801Y-9329460D01*
X15862801Y-9329460D02*
X15853277Y-9319936D01*
X15853277Y-9319936D02*
X15843753Y-9300889D01*
X15843753Y-9300889D02*
X15834229Y-9262793D01*
X15834229Y-9262793D02*
X15834229Y-9215174D01*
X15834229Y-9215174D02*
X15843753Y-9177079D01*
X15843753Y-9177079D02*
X15853277Y-9158031D01*
X15853277Y-9158031D02*
X15862801Y-9148508D01*
X15862801Y-9148508D02*
X15881848Y-9138984D01*
X16024706Y-9158031D02*
X16034229Y-9148508D01*
X16034229Y-9148508D02*
X16053277Y-9138984D01*
X16053277Y-9138984D02*
X16100896Y-9138984D01*
X16100896Y-9138984D02*
X16119944Y-9148508D01*
X16119944Y-9148508D02*
X16129467Y-9158031D01*
X16129467Y-9158031D02*
X16138991Y-9177079D01*
X16138991Y-9177079D02*
X16138991Y-9196127D01*
X16138991Y-9196127D02*
X16129467Y-9224698D01*
X16129467Y-9224698D02*
X16015182Y-9338984D01*
X16015182Y-9338984D02*
X16138991Y-9338984D01*
X16319944Y-9138984D02*
X16224706Y-9138984D01*
X16224706Y-9138984D02*
X16215182Y-9234222D01*
X16215182Y-9234222D02*
X16224706Y-9224698D01*
X16224706Y-9224698D02*
X16243753Y-9215174D01*
X16243753Y-9215174D02*
X16291372Y-9215174D01*
X16291372Y-9215174D02*
X16310420Y-9224698D01*
X16310420Y-9224698D02*
X16319944Y-9234222D01*
X16319944Y-9234222D02*
X16329467Y-9253270D01*
X16329467Y-9253270D02*
X16329467Y-9300889D01*
X16329467Y-9300889D02*
X16319944Y-9319936D01*
X16319944Y-9319936D02*
X16310420Y-9329460D01*
X16310420Y-9329460D02*
X16291372Y-9338984D01*
X16291372Y-9338984D02*
X16243753Y-9338984D01*
X16243753Y-9338984D02*
X16224706Y-9329460D01*
X16224706Y-9329460D02*
X16215182Y-9319936D01*
X16500896Y-9138984D02*
X16462801Y-9138984D01*
X16462801Y-9138984D02*
X16443753Y-9148508D01*
X16443753Y-9148508D02*
X16434229Y-9158031D01*
X16434229Y-9158031D02*
X16415182Y-9186603D01*
X16415182Y-9186603D02*
X16405658Y-9224698D01*
X16405658Y-9224698D02*
X16405658Y-9300889D01*
X16405658Y-9300889D02*
X16415182Y-9319936D01*
X16415182Y-9319936D02*
X16424706Y-9329460D01*
X16424706Y-9329460D02*
X16443753Y-9338984D01*
X16443753Y-9338984D02*
X16481848Y-9338984D01*
X16481848Y-9338984D02*
X16500896Y-9329460D01*
X16500896Y-9329460D02*
X16510420Y-9319936D01*
X16510420Y-9319936D02*
X16519944Y-9300889D01*
X16519944Y-9300889D02*
X16519944Y-9253270D01*
X16519944Y-9253270D02*
X16510420Y-9234222D01*
X16510420Y-9234222D02*
X16500896Y-9224698D01*
X16500896Y-9224698D02*
X16481848Y-9215174D01*
X16481848Y-9215174D02*
X16443753Y-9215174D01*
X16443753Y-9215174D02*
X16424706Y-9224698D01*
X16424706Y-9224698D02*
X16415182Y-9234222D01*
X16415182Y-9234222D02*
X16405658Y-9253270D01*
X16596134Y-9138984D02*
X16596134Y-9177079D01*
X16672325Y-9138984D02*
X16672325Y-9177079D01*
X16967563Y-9415174D02*
X16958039Y-9405650D01*
X16958039Y-9405650D02*
X16938991Y-9377079D01*
X16938991Y-9377079D02*
X16929468Y-9358031D01*
X16929468Y-9358031D02*
X16919944Y-9329460D01*
X16919944Y-9329460D02*
X16910420Y-9281841D01*
X16910420Y-9281841D02*
X16910420Y-9243746D01*
X16910420Y-9243746D02*
X16919944Y-9196127D01*
X16919944Y-9196127D02*
X16929468Y-9167555D01*
X16929468Y-9167555D02*
X16938991Y-9148508D01*
X16938991Y-9148508D02*
X16958039Y-9119936D01*
X16958039Y-9119936D02*
X16967563Y-9110412D01*
X17034230Y-9158031D02*
X17043753Y-9148508D01*
X17043753Y-9148508D02*
X17062801Y-9138984D01*
X17062801Y-9138984D02*
X17110420Y-9138984D01*
X17110420Y-9138984D02*
X17129468Y-9148508D01*
X17129468Y-9148508D02*
X17138991Y-9158031D01*
X17138991Y-9158031D02*
X17148515Y-9177079D01*
X17148515Y-9177079D02*
X17148515Y-9196127D01*
X17148515Y-9196127D02*
X17138991Y-9224698D01*
X17138991Y-9224698D02*
X17024706Y-9338984D01*
X17024706Y-9338984D02*
X17148515Y-9338984D01*
X17386611Y-9338984D02*
X17386611Y-9138984D01*
X17472325Y-9338984D02*
X17472325Y-9234222D01*
X17472325Y-9234222D02*
X17462801Y-9215174D01*
X17462801Y-9215174D02*
X17443753Y-9205650D01*
X17443753Y-9205650D02*
X17415182Y-9205650D01*
X17415182Y-9205650D02*
X17396134Y-9215174D01*
X17396134Y-9215174D02*
X17386611Y-9224698D01*
X17596134Y-9338984D02*
X17577087Y-9329460D01*
X17577087Y-9329460D02*
X17567563Y-9319936D01*
X17567563Y-9319936D02*
X17558039Y-9300889D01*
X17558039Y-9300889D02*
X17558039Y-9243746D01*
X17558039Y-9243746D02*
X17567563Y-9224698D01*
X17567563Y-9224698D02*
X17577087Y-9215174D01*
X17577087Y-9215174D02*
X17596134Y-9205650D01*
X17596134Y-9205650D02*
X17624706Y-9205650D01*
X17624706Y-9205650D02*
X17643753Y-9215174D01*
X17643753Y-9215174D02*
X17653277Y-9224698D01*
X17653277Y-9224698D02*
X17662801Y-9243746D01*
X17662801Y-9243746D02*
X17662801Y-9300889D01*
X17662801Y-9300889D02*
X17653277Y-9319936D01*
X17653277Y-9319936D02*
X17643753Y-9329460D01*
X17643753Y-9329460D02*
X17624706Y-9338984D01*
X17624706Y-9338984D02*
X17596134Y-9338984D01*
X17777087Y-9338984D02*
X17758039Y-9329460D01*
X17758039Y-9329460D02*
X17748515Y-9310412D01*
X17748515Y-9310412D02*
X17748515Y-9138984D01*
X17929468Y-9329460D02*
X17910420Y-9338984D01*
X17910420Y-9338984D02*
X17872325Y-9338984D01*
X17872325Y-9338984D02*
X17853277Y-9329460D01*
X17853277Y-9329460D02*
X17843753Y-9310412D01*
X17843753Y-9310412D02*
X17843753Y-9234222D01*
X17843753Y-9234222D02*
X17853277Y-9215174D01*
X17853277Y-9215174D02*
X17872325Y-9205650D01*
X17872325Y-9205650D02*
X17910420Y-9205650D01*
X17910420Y-9205650D02*
X17929468Y-9215174D01*
X17929468Y-9215174D02*
X17938992Y-9234222D01*
X17938992Y-9234222D02*
X17938992Y-9253270D01*
X17938992Y-9253270D02*
X17843753Y-9272317D01*
X18015182Y-9329460D02*
X18034230Y-9338984D01*
X18034230Y-9338984D02*
X18072325Y-9338984D01*
X18072325Y-9338984D02*
X18091373Y-9329460D01*
X18091373Y-9329460D02*
X18100896Y-9310412D01*
X18100896Y-9310412D02*
X18100896Y-9300889D01*
X18100896Y-9300889D02*
X18091373Y-9281841D01*
X18091373Y-9281841D02*
X18072325Y-9272317D01*
X18072325Y-9272317D02*
X18043753Y-9272317D01*
X18043753Y-9272317D02*
X18024706Y-9262793D01*
X18024706Y-9262793D02*
X18015182Y-9243746D01*
X18015182Y-9243746D02*
X18015182Y-9234222D01*
X18015182Y-9234222D02*
X18024706Y-9215174D01*
X18024706Y-9215174D02*
X18043753Y-9205650D01*
X18043753Y-9205650D02*
X18072325Y-9205650D01*
X18072325Y-9205650D02*
X18091373Y-9215174D01*
X18167563Y-9415174D02*
X18177087Y-9405650D01*
X18177087Y-9405650D02*
X18196134Y-9377079D01*
X18196134Y-9377079D02*
X18205658Y-9358031D01*
X18205658Y-9358031D02*
X18215182Y-9329460D01*
X18215182Y-9329460D02*
X18224706Y-9281841D01*
X18224706Y-9281841D02*
X18224706Y-9243746D01*
X18224706Y-9243746D02*
X18215182Y-9196127D01*
X18215182Y-9196127D02*
X18205658Y-9167555D01*
X18205658Y-9167555D02*
X18196134Y-9148508D01*
X18196134Y-9148508D02*
X18177087Y-9119936D01*
X18177087Y-9119936D02*
X18167563Y-9110412D01*
X18529468Y-9415174D02*
X18519944Y-9405650D01*
X18519944Y-9405650D02*
X18500896Y-9377079D01*
X18500896Y-9377079D02*
X18491373Y-9358031D01*
X18491373Y-9358031D02*
X18481849Y-9329460D01*
X18481849Y-9329460D02*
X18472325Y-9281841D01*
X18472325Y-9281841D02*
X18472325Y-9243746D01*
X18472325Y-9243746D02*
X18481849Y-9196127D01*
X18481849Y-9196127D02*
X18491373Y-9167555D01*
X18491373Y-9167555D02*
X18500896Y-9148508D01*
X18500896Y-9148508D02*
X18519944Y-9119936D01*
X18519944Y-9119936D02*
X18529468Y-9110412D01*
X18605658Y-9205650D02*
X18605658Y-9338984D01*
X18605658Y-9224698D02*
X18615182Y-9215174D01*
X18615182Y-9215174D02*
X18634230Y-9205650D01*
X18634230Y-9205650D02*
X18662801Y-9205650D01*
X18662801Y-9205650D02*
X18681849Y-9215174D01*
X18681849Y-9215174D02*
X18691373Y-9234222D01*
X18691373Y-9234222D02*
X18691373Y-9338984D01*
X18815182Y-9338984D02*
X18796134Y-9329460D01*
X18796134Y-9329460D02*
X18786611Y-9319936D01*
X18786611Y-9319936D02*
X18777087Y-9300889D01*
X18777087Y-9300889D02*
X18777087Y-9243746D01*
X18777087Y-9243746D02*
X18786611Y-9224698D01*
X18786611Y-9224698D02*
X18796134Y-9215174D01*
X18796134Y-9215174D02*
X18815182Y-9205650D01*
X18815182Y-9205650D02*
X18843754Y-9205650D01*
X18843754Y-9205650D02*
X18862801Y-9215174D01*
X18862801Y-9215174D02*
X18872325Y-9224698D01*
X18872325Y-9224698D02*
X18881849Y-9243746D01*
X18881849Y-9243746D02*
X18881849Y-9300889D01*
X18881849Y-9300889D02*
X18872325Y-9319936D01*
X18872325Y-9319936D02*
X18862801Y-9329460D01*
X18862801Y-9329460D02*
X18843754Y-9338984D01*
X18843754Y-9338984D02*
X18815182Y-9338984D01*
X18938992Y-9205650D02*
X19015182Y-9205650D01*
X18967563Y-9138984D02*
X18967563Y-9310412D01*
X18967563Y-9310412D02*
X18977087Y-9329460D01*
X18977087Y-9329460D02*
X18996134Y-9338984D01*
X18996134Y-9338984D02*
X19015182Y-9338984D01*
X19234230Y-9205650D02*
X19234230Y-9405650D01*
X19234230Y-9215174D02*
X19253277Y-9205650D01*
X19253277Y-9205650D02*
X19291373Y-9205650D01*
X19291373Y-9205650D02*
X19310420Y-9215174D01*
X19310420Y-9215174D02*
X19319944Y-9224698D01*
X19319944Y-9224698D02*
X19329468Y-9243746D01*
X19329468Y-9243746D02*
X19329468Y-9300889D01*
X19329468Y-9300889D02*
X19319944Y-9319936D01*
X19319944Y-9319936D02*
X19310420Y-9329460D01*
X19310420Y-9329460D02*
X19291373Y-9338984D01*
X19291373Y-9338984D02*
X19253277Y-9338984D01*
X19253277Y-9338984D02*
X19234230Y-9329460D01*
X19443754Y-9338984D02*
X19424706Y-9329460D01*
X19424706Y-9329460D02*
X19415182Y-9310412D01*
X19415182Y-9310412D02*
X19415182Y-9138984D01*
X19605658Y-9338984D02*
X19605658Y-9234222D01*
X19605658Y-9234222D02*
X19596135Y-9215174D01*
X19596135Y-9215174D02*
X19577087Y-9205650D01*
X19577087Y-9205650D02*
X19538992Y-9205650D01*
X19538992Y-9205650D02*
X19519944Y-9215174D01*
X19605658Y-9329460D02*
X19586611Y-9338984D01*
X19586611Y-9338984D02*
X19538992Y-9338984D01*
X19538992Y-9338984D02*
X19519944Y-9329460D01*
X19519944Y-9329460D02*
X19510420Y-9310412D01*
X19510420Y-9310412D02*
X19510420Y-9291365D01*
X19510420Y-9291365D02*
X19519944Y-9272317D01*
X19519944Y-9272317D02*
X19538992Y-9262793D01*
X19538992Y-9262793D02*
X19586611Y-9262793D01*
X19586611Y-9262793D02*
X19605658Y-9253270D01*
X19672325Y-9205650D02*
X19748515Y-9205650D01*
X19700896Y-9138984D02*
X19700896Y-9310412D01*
X19700896Y-9310412D02*
X19710420Y-9329460D01*
X19710420Y-9329460D02*
X19729468Y-9338984D01*
X19729468Y-9338984D02*
X19748515Y-9338984D01*
X19891373Y-9329460D02*
X19872325Y-9338984D01*
X19872325Y-9338984D02*
X19834230Y-9338984D01*
X19834230Y-9338984D02*
X19815182Y-9329460D01*
X19815182Y-9329460D02*
X19805658Y-9310412D01*
X19805658Y-9310412D02*
X19805658Y-9234222D01*
X19805658Y-9234222D02*
X19815182Y-9215174D01*
X19815182Y-9215174D02*
X19834230Y-9205650D01*
X19834230Y-9205650D02*
X19872325Y-9205650D01*
X19872325Y-9205650D02*
X19891373Y-9215174D01*
X19891373Y-9215174D02*
X19900896Y-9234222D01*
X19900896Y-9234222D02*
X19900896Y-9253270D01*
X19900896Y-9253270D02*
X19805658Y-9272317D01*
X20072325Y-9338984D02*
X20072325Y-9138984D01*
X20072325Y-9329460D02*
X20053277Y-9338984D01*
X20053277Y-9338984D02*
X20015182Y-9338984D01*
X20015182Y-9338984D02*
X19996135Y-9329460D01*
X19996135Y-9329460D02*
X19986611Y-9319936D01*
X19986611Y-9319936D02*
X19977087Y-9300889D01*
X19977087Y-9300889D02*
X19977087Y-9243746D01*
X19977087Y-9243746D02*
X19986611Y-9224698D01*
X19986611Y-9224698D02*
X19996135Y-9215174D01*
X19996135Y-9215174D02*
X20015182Y-9205650D01*
X20015182Y-9205650D02*
X20053277Y-9205650D01*
X20053277Y-9205650D02*
X20072325Y-9215174D01*
X20148516Y-9415174D02*
X20158039Y-9405650D01*
X20158039Y-9405650D02*
X20177087Y-9377079D01*
X20177087Y-9377079D02*
X20186611Y-9358031D01*
X20186611Y-9358031D02*
X20196135Y-9329460D01*
X20196135Y-9329460D02*
X20205658Y-9281841D01*
X20205658Y-9281841D02*
X20205658Y-9243746D01*
X20205658Y-9243746D02*
X20196135Y-9196127D01*
X20196135Y-9196127D02*
X20186611Y-9167555D01*
X20186611Y-9167555D02*
X20177087Y-9148508D01*
X20177087Y-9148508D02*
X20158039Y-9119936D01*
X20158039Y-9119936D02*
X20148516Y-9110412D01*
M02*
